<svg xmlns="http://www.w3.org/2000/svg" xmlns:xlink="http://www.w3.org/1999/xlink" width="231" height="231" viewBox="0 0 231 231">
    <defs>
        <path id="a" d="M0 .311H230.69V231H0V.311z"/>
        <path id="c" d="M.878 33.76C21.145 66.891 57.662 89 99.344 89V.916H.878V33.76z"/>
        <path id="e" d="M.468 51.583c3.256.276 6.55.417 9.876.417V.034H.468v51.55z"/>
        <path id="g" d="M.344 89c41.683 0 78.2-22.11 98.467-55.24V.916H.344V89z"/>
        <path id="i" d="M.344 52c3.327 0 6.621-.14 9.876-.417V.034H.344V52z"/>
    </defs>
    <g fill="none" fill-rule="evenodd">
        <g transform="translate(0 -.311)">
            <mask id="b" fill="#fff">
                <use xlink:href="#a"/>
            </mask>
            <path fill="#D5E6F5" d="M230.69 115.655C230.69 179.358 179.046 231 115.343 231S0 179.358 0 115.655C0 51.952 51.641.31 115.344.31c63.703 0 115.345 51.642 115.345 115.345" mask="url(#b)"/>
        </g>
        <path fill="#EDC4A9" d="M115.344 102.011H88.692v34.473c0 5.12 8.452 21.357 26.652 21.357v-55.83z"/>
        <path fill="#F4D4BD" d="M115.344 33.723c-30.028 0-34.477 20.707-34.477 47.242 0 29.362 17.565 48.85 34.477 48.85V33.723z"/>
        <path fill="#F4D4BD" d="M81.272 77.432c-2.113-7.896-5.005-7.896-6.229-5.895-1.223 2.002-.3 6.79 1.776 14.434 1.663 6.118 3.331 8.987 5.671 6.675 2.341-2.314-1.218-15.214-1.218-15.214"/>
        <g transform="translate(16 141.689)">
            <mask id="d" fill="#fff">
                <use xlink:href="#c"/>
            </mask>
            <path fill="#7F8FB2" d="M61.102.916l-.26.04C57.855 1.4 13.702 5.672 9.218 23.604 6.466 34.614.88 89 .88 89h98.465V17.243L61.102.916z" mask="url(#d)"/>
        </g>
        <g transform="translate(105 178.689)">
            <mask id="f" fill="#fff">
                <use xlink:href="#e"/>
            </mask>
            <path fill="#CB1663" d="M10.344.034h-8.13L.468 52h9.876z" mask="url(#f)"/>
        </g>
        <path fill="#CB1663" d="M115.344 158.932h-7.154l-6.172 10.865 5.196 8.926h8.13z"/>
        <path fill="#CCC" d="M98.044 142.965l-9.352-9.035c-4.75 2.78-11.59 8.675-11.59 8.675l31.58 37.948 6.663-21.62-.501-.56-16.8-15.407z"/>
        <path fill="#FFF" d="M98.544 142.605l-9.852-8.675c-4.75 2.67-11.59 8.675-11.59 8.675l31.58 35.423 6.662-19.096v-1.534l-16.8-14.793z"/>
        <path fill="#DDB59F" d="M115.344 102.011h26.653v34.473c0 5.12-8.453 21.357-26.653 21.357v-55.83z"/>
        <path fill="#E0C1AD" d="M115.344 33.723c30.03 0 34.478 20.707 34.478 47.242 0 29.362-17.566 48.85-34.478 48.85V33.723z"/>
        <path fill="#E0C1AD" d="M149.417 77.432c2.113-7.896 5.005-7.896 6.23-5.895 1.222 2.002.3 6.79-1.778 14.434-1.662 6.118-3.33 8.987-5.67 6.675-2.34-2.314 1.218-15.214 1.218-15.214"/>
        <g transform="translate(115 141.689)">
            <mask id="h" fill="#fff">
                <use xlink:href="#g"/>
            </mask>
            <path fill="#7F8FB2" d="M38.587.916l.261.04c2.985.444 47.137 4.716 51.622 22.648C93.223 34.614 98.811 89 98.811 89H.345V17.243L38.586.916z" mask="url(#h)"/>
        </g>
        <g transform="translate(115 178.689)">
            <mask id="j" fill="#fff">
                <use xlink:href="#i"/>
            </mask>
            <path fill="#CB1663" d="M.344.034h8.13L10.22 52H.344z" mask="url(#j)"/>
        </g>
        <path fill="#CB1663" d="M115.344 158.932h7.154l6.173 10.865-5.197 8.926h-8.13z"/>
        <path fill="#CCC" d="M132.646 142.965l9.352-9.035c4.75 2.78 11.589 8.675 11.589 8.675l-31.58 37.948-6.662-21.62.5-.56 16.8-15.407z"/>
        <path fill="#FFF" d="M132.145 142.605l9.852-8.675c4.75 2.67 11.59 8.675 11.59 8.675l-31.579 35.423-6.664-19.096v-1.534l16.801-14.793z"/>
        <path fill="#5B5449" d="M94.915 60.637s10.18-1.5 20.43-5.368v-3.24c-9.089 5.613-20.43 8.608-20.43 8.608"/>
        <path fill="#3F3C37" d="M88.838 55.256c.27-.393.55-.78.846-1.157 3.85-4.923 10.24-8.79 16.67-10.783-4.981 6.075-13.273 10.144-17.516 11.94m-9.404-16.972c-5.332 22.18.666 42.442 1.382 44.45 3.034.609.37-15.525 7.587-26.81 5.015-.932 17.442-3.64 26.942-9.008V14.484c-19.352 0-32.22 8.445-35.911 23.8"/>
        <path fill="#5B5449" d="M97.415 57.526s9.373-1.8 17.93-6.536v-4.03c-7.19 6.87-17.93 10.566-17.93 10.566M115.344 46.916v.044c.037-.035.075-.068.111-.104-.036.02-.074.039-.11.06"/>
        <path fill="#3F3C37" d="M132.577 44.573c4.14 1.693 7.44 4.23 9.91 7.812 11.1 16.1 4.184 30.991 7.387 30.35.716-2.01 11.335-20.88 3.713-45.413-2.206-7.1-9.515-8.118-9.515-8.118 1.172-8.343-4.645-16.19-4.645-16.19s.917 3.673.84 7.614c-1.928-4.159-5.479-8.737-11.97-10.297 0 0 3.364 3.118 5.982 7.324-.048-.022-.09-.048-.14-.069-4.36-4.42-8.828-8.026-17.353-7.78 0 0 1.31 1.953 5.997 5.032a73.326 73.326 0 0 0-7.439-.355v32.433c.037-.021.075-.039.111-.06l-.11.104v4.03c3.21-1.776 6.305-3.963 8.747-6.627-2.054 2.933-5.233 5.495-8.748 7.666v3.24c6.625-2.499 13.278-5.982 17.233-10.696"/>
    </g>
</svg>
