<svg xmlns="http://www.w3.org/2000/svg" width="287" height="314" viewBox="0 0 287 314">
    <g fill="none" fill-rule="evenodd">
        <path fill="#CB1663" d="M153.365 284.197c-6.573-8.323-24.968-13.003-43.331-13.587v-56.707h42.934a7.805 7.805 0 0 0 7.807-7.803 7.805 7.805 0 0 0-7.807-7.803h-42.503v-47.57h30.548c4.52 0 8.197-3.675 8.197-8.192v-31.212c0-4.517-3.678-8.193-8.197-8.193H71.248c-4.519 0-8.196 3.676-8.196 8.193v31.212c0 4.517 3.677 8.193 8.196 8.193h29.85v47.569H59.292a7.804 7.804 0 0 0-7.806 7.803 7.804 7.804 0 0 0 7.806 7.803h42.935v56.707c-18.364.584-36.758 5.263-43.331 13.587-3.803.523-6.735 3.776-6.735 7.721a7.805 7.805 0 0 0 7.807 7.803 7.805 7.805 0 0 0 6.021-12.769c5.253-4.365 18.218-8.757 36.238-9.32v6.652a7.793 7.793 0 0 0-3.903 6.75 7.804 7.804 0 0 0 7.806 7.803 7.805 7.805 0 0 0 7.806-7.803c0-2.886-1.572-5.4-3.903-6.75v-6.653c18.02.564 30.985 4.956 36.237 9.321a7.805 7.805 0 0 0 6.021 12.769 7.804 7.804 0 0 0 7.807-7.803c0-3.945-2.931-7.197-6.734-7.72"/>
        <path fill="#F8DFD5" d="M118.424 86.64l-2.92-1.345V76.02H96.77v9.275l-2.931 1.265.78 26.305h2.15v4.034h18.736v-4.034h2.138z"/>
        <path fill="#383643" d="M144.385 299.734h-22.123s9.828-81.93 3.716-87.392c-6.112-5.462-16.315-10.917-16.315-10.917h-6.495s-12.45 7.016-17.197 10.917c-4.746 3.901 3.903 87.392 3.903 87.392H67.751s-10.6-84.271-3.903-95.195c6.698-10.924 14.075-22.691 14.075-22.691h56.985s5.808 8.72 13.232 22.765c7.298 14.233-3.755 95.121-3.755 95.121"/>
        <path fill="#231F1F" d="M92.124 304.589c0 6.132-27.322 6.132-27.322 0 0-6.133 6.116-8.756 13.661-8.756s13.661 2.623 13.661 8.756M147.548 304.589c0 6.132-27.322 6.132-27.322 0 0-6.133 6.116-8.756 13.661-8.756s13.661 2.623 13.661 8.756"/>
        <path fill="#221F1F" d="M135.043 181.926H77.187v-6.077h57.889z"/>
        <path fill="#43414D" d="M103.625 175.927a1.74 1.74 0 0 0-1.738 1.737v2.447c0 .958.78 1.737 1.738 1.737h5.013c.958 0 1.737-.779 1.737-1.737v-2.447c0-.958-.78-1.737-1.737-1.737h-5.013zm5.013 7.606h-5.013a3.426 3.426 0 0 1-3.423-3.422v-2.447a3.426 3.426 0 0 1 3.423-3.421h5.013a3.426 3.426 0 0 1 3.423 3.421v2.447a3.426 3.426 0 0 1-3.423 3.422z"/>
        <path fill="#5A6786" d="M153.76 132.132c-1.753-13.019-3.425-21.887-7.728-31.422-3.435-7.483-13.075-9.332-26.892-14.084-.492-.172-.991-.343-1.491-.523-.008.024-.008.055-.016.078-.91 5.143-3.493 11.8-11.5 12.581-8.008-.78-10.59-7.438-11.5-12.58-.008-.024-.008-.055-.016-.079-.5.18-1 .351-1.491.523-13.817 4.752-23.458 6.601-26.892 14.084-4.303 9.535-7.226 18.597-10.07 31.422-2.272 10.25-6.734 21.978-3.706 36.535 1.41 6.776 12.85 5.822 13.757-.518 2.48-17.314 5.082-24.46 8.855-37.07 0 0 .336 45.085 2.201 45.085h28.86l.002-.188.002.188h28.86c1.865 0 2.2-45.085 2.2-45.085 1.208 12.417 3.989 18.377.268 37.07-1.25 6.281-1.947 7.067-3.572 12.066l12.583 2.78c1.784-5.49 3.337-5.211 4.747-11.987 3.028-14.557 4.391-25.107 2.538-38.876"/>
        <path fill="#00ADEF" d="M110.64 97.117l-1.798 3.443h-5.473l-1.747-3.443 4.509-3.684z"/>
        <path fill="#FFF" d="M106.13 93.433l-5.76 6.064L89.162 87.99l7.502-3.303 2.313 2.139 7.153 6.606zM106.131 93.433l5.762 6.064L123.1 87.99l-7.503-3.303-2.313 2.139-7.153 6.606z"/>
        <path fill="#00ADEF" d="M108.842 101.383l2.228 67.79-4.939 5.457-4.938-5.456 2.176-67.79z"/>
        <path fill="#F7CCB8" d="M126.576 49.614l.634-8.24c0-10.776-10.304-19.507-21.077-19.507-10.78 0-21.077 8.73-21.077 19.506l.634 8.233a3.885 3.885 0 0 0-2.975 3.784v4.058a3.897 3.897 0 0 0 3.878 3.898c0 10.176 12.232 19.822 19.54 19.822s19.54-9.645 19.54-19.82a3.9 3.9 0 0 0 3.875-3.899v-4.058a3.895 3.895 0 0 0-2.972-3.777"/>
        <path fill="#F7CCB8" d="M100.233 51.815a3.082 3.082 0 1 1-6.16.215 3.082 3.082 0 0 1 6.16-.215"/>
        <path fill="#3C2417" d="M100.233 51.035a3.082 3.082 0 1 1-6.16.214 3.082 3.082 0 0 1 6.16-.214"/>
        <path fill="#FFF" d="M98.97 50.154a.77.77 0 1 1-1.542.053.77.77 0 0 1 1.541-.053"/>
        <path fill="#F7CCB8" d="M118.188 51.815a3.082 3.082 0 1 1-6.16.215 3.082 3.082 0 0 1 6.16-.215"/>
        <path fill="#3C2417" d="M118.188 51.035a3.082 3.082 0 1 1-6.161.214 3.082 3.082 0 0 1 6.16-.214"/>
        <path fill="#FFF" d="M116.924 50.154a.77.77 0 1 1-1.541.053.77.77 0 0 1 1.54-.053"/>
        <path fill="#333" d="M126.911 28.664c.219-2.605-.618-6.315-2.67-11.612-.484-1.25-2.12-1.466-2.955-.419-2.378 2.98-5.522 2.384-10.694.278-8.647-3.52-14.992-1.37-18.65 2.456-15.68 8-6.1 36.042-6.1 36.042s.33-14.603 5.717-21.306c2.95.676 11.253 1.813 14.574 1.813 3.32 0 12.798-1.09 15.816-1.813 5.852 3.489 4.48 21.306 4.48 21.306s6.172-15.545.482-26.745"/>
        <path fill="#686671" d="M112.381 73.679a.78.78 0 0 1-.186-1.539c10.956-2.697 15.14-12.753 15.182-12.854a.781.781 0 0 1 1.448.583c-.178.443-4.505 10.893-16.256 13.787a.79.79 0 0 1-.188.023"/>
        <path fill="#42404D" d="M112.381 74.46a1.562 1.562 0 0 1-.372-3.077 20.778 20.778 0 0 0 4.235-1.544 1.56 1.56 0 1 1 1.385 2.798 23.911 23.911 0 0 1-4.873 1.777c-.125.03-.251.045-.375.045"/>
        <path fill="#686671" d="M128.77 57.173a.78.78 0 0 1-.78-.78V39.16c0-10.746-10.214-20.172-21.857-20.172-11.644 0-21.858 9.426-21.858 20.172v17.223a.78.78 0 0 1-1.56 0V39.161c0-11.577 10.942-21.733 23.418-21.733 12.475 0 23.418 10.156 23.418 21.733v17.232c0 .43-.35.78-.78.78"/>
        <path fill="#CB1663" d="M81.566 60.253c-1 0-1.853-.765-1.942-1.78l-.55-6.292a1.952 1.952 0 0 1 3.888-.34l.55 6.291a1.952 1.952 0 0 1-1.946 2.121"/>
        <path fill="#686671" d="M84.61 63.107c-1 0-1.852-.765-1.941-1.78l-1.093-12.485a1.951 1.951 0 0 1 1.774-2.114c1.067-.09 2.02.7 2.114 1.774l1.093 12.485a1.95 1.95 0 0 1-1.946 2.12"/>
        <path fill="#CB1663" d="M130.693 60.253a1.952 1.952 0 0 1-1.947-2.12l.551-6.292a1.951 1.951 0 1 1 3.889.34l-.55 6.291a1.952 1.952 0 0 1-1.943 1.781"/>
        <path fill="#686671" d="M127.648 63.107a1.951 1.951 0 0 1-1.947-2.12l1.094-12.485a1.952 1.952 0 1 1 3.889.34l-1.094 12.484a1.952 1.952 0 0 1-1.942 1.781"/>
        <path fill="#7F8FB2" d="M224.27 172.683H7.025a7.024 7.024 0 1 0 0 14.046h3.952v127.14h11.71V186.73h185.92v127.14h11.71V186.73h3.951a7.024 7.024 0 0 0 0-14.046"/>
        <path fill="#CB1663" d="M204.608 172.683H115.13a2.098 2.098 0 1 1 0-4.195h89.478a2.098 2.098 0 1 1 0 4.195"/>
        <path fill="#E3E3E3" d="M114.423 168.64a1.391 1.391 0 0 1-1.391-1.391v-65.194c0-.768.623-1.39 1.391-1.39h90.892c.768 0 1.391.622 1.391 1.39v65.194c0 .768-.623 1.39-1.391 1.39h-90.892z"/>
        <path fill="#FFF" d="M167.528 132.493a7.658 7.658 0 0 1-7.66 7.657 7.658 7.658 0 0 1-7.659-7.657 7.658 7.658 0 0 1 7.66-7.656c4.23 0 7.66 3.428 7.66 7.656"/>
        <path fill="#FFF" d="M185.404 100.664h-68.47a3.902 3.902 0 0 0-3.902 3.902v60.172a3.902 3.902 0 0 0 3.903 3.901h13.496c2.761-32.397 25.098-59.12 54.973-67.975" opacity=".326"/>
        <path fill="#CB1663" d="M66.249 172.683h-13.91c-.476 0-.855-.422-.779-.891.523-3.234 3.786-6.453 7.733-6.453 3.948 0 7.211 3.22 7.734 6.453.075.469-.303.891-.778.891"/>
        <path fill="#F7CCB8" d="M68.718 168.042c-2.01-3.043-4.693-5.491-9.425-5.491-2.944 0-5.54.638-7.082 2.046a1.484 1.484 0 0 0-.677.664l-1.837 3.632a1.498 1.498 0 1 0 2.676 1.353l.517-1.022.048-.002-.235.465a1.713 1.713 0 1 0 3.059 1.545l.203-.402a1.71 1.71 0 0 0 3.238.844l.35-.69c.155.219.359.408.615.538a1.713 1.713 0 0 0 2.303-.756l1.598-3.162c3.527 3.84 5.886 2.313 4.649.438"/>
        <path fill="#3F99EB" d="M193.615 20.996v16.809c0 5.304 4.303 9.605 9.61 9.605h3.1v11.736l9.656-11.736h43.385c5.307 0 9.609-4.3 9.609-9.605v-16.81c0-5.304-4.302-9.604-9.61-9.604h-56.14c-5.307 0-9.61 4.3-9.61 9.605"/>
        <text fill="#FFF" font-family="Arial-BoldMT, Arial" font-size="18" font-weight="bold" letter-spacing="-.077" transform="translate(0 11)">
            <tspan x="215" y="24">FAQ</tspan>
        </text>
    </g>
</svg>
