<svg xmlns="http://www.w3.org/2000/svg" width="20" height="20" viewBox="0 0 20 20">
    <g fill="none" fill-rule="evenodd" transform="translate(1 1)">
        <g fill="#FFF" fill-rule="nonzero">
            <path d="M6.884 8.035h1.519V4.607c0-.134.213-.243.477-.243h.834c.264 0 .477.109.477.243v3.428h1.519c.152 0 .276.097.276.216 0 0-2.275 3.345-2.482 3.507-.207.162-.414 0-.414 0L6.61 8.251c0-.12.123-.216.275-.216zM6.552 13.363c0 .191.135.346.301.346h4.827c.166 0 .301-.155.301-.346v-.346c0-.191-.135-.346-.301-.346H6.853c-.166 0-.301.155-.301.346v.346z"/>
        </g>
        <circle cx="9" cy="9" r="9" stroke="#FFF" stroke-width="2"/>
    </g>
</svg>
