<svg xmlns="http://www.w3.org/2000/svg" xmlns:xlink="http://www.w3.org/1999/xlink" width="117" height="50" viewBox="0 0 117 50">
    <defs>
        <path id="a" d="M15.388 15.363H0V.027h15.388v15.336z"/>
    </defs>
    <g fill="none" fill-rule="evenodd">
        <path fill="#00ADEF" d="M15.085 0h.03a2796.84 2796.84 0 0 1 9.424 9.514 1042.486 1042.486 0 0 1-5.129 5.176c-3.146-3.178-6.295-6.353-9.441-9.53C11.673 3.44 13.374 1.713 15.085 0"/>
        <g transform="translate(23.276 33.674)">
            <mask id="b" fill="#fff">
                <use xlink:href="#a"/>
            </mask>
            <path fill="#00ADEF" d="M0 5.219C1.712 3.492 3.417 1.759 5.123.027c3.426 3.387 6.84 6.787 10.265 10.177-1.706 1.72-3.405 3.446-5.117 5.16h-.027C6.814 11.997 3.42 8.594 0 5.218" mask="url(#b)"/>
        </g>
        <path fill="#E60D64" d="M25.598 11.824c3.262-3.29 6.52-6.583 9.783-9.87 1.707 1.73 3.423 3.45 5.128 5.183-3.264 3.291-6.522 6.588-9.79 9.876-1.72-1.717-3.404-3.47-5.12-5.189M7.07 40.866c4.77-4.87 9.563-9.716 14.338-14.58 1.711 1.726 3.424 3.452 5.133 5.18-4.773 4.865-9.562 9.713-14.337 14.575-1.716-1.72-3.42-3.453-5.134-5.175"/>
        <path fill="#88ABCB" d="M2.853 12.18c1.712-1.725 3.423-3.45 5.132-5.178 2.433 2.459 4.835 4.95 7.275 7.401-1.266 1.318-2.57 2.6-3.851 3.904-.436.429-.85.882-1.303 1.294-.842-.923-1.758-1.774-2.609-2.688-1.555-1.57-3.097-3.153-4.644-4.732M23.631 24.373c1.707-1.73 3.4-3.476 5.127-5.187 5.723 5.78 11.45 11.555 17.174 17.335-1.711 1.726-3.4 3.473-5.12 5.19-5.73-5.776-11.454-11.558-17.181-17.338"/>
        <path fill="#6D6E72" d="M94.023 7.092c.439-.224 1 .2.92.689 0 .495-.629.8-1.02.512-.433-.27-.38-1.013.1-1.201M114.345 7.314c.593-.023 1.176-.142 1.749-.293-.003 2.037 0 4.074-.001 6.11.008.653-.027 1.309.048 1.958.068.405.555.353.859.4v.312c-.914-.031-1.83-.006-2.743-.013-.002-.1-.002-.2-.001-.299.235-.034.49-.02.71-.13.238-.163.186-.496.215-.748.01-1.506.001-3.012.005-4.518-.022-.698.058-1.408-.08-2.098-.07-.356-.487-.346-.76-.401l-.001-.28M51.995 7.168h3.916v.31c-.323.007-.66-.026-.967.09-.343.164-.32.6-.343.923-.038 1.216-.007 2.435-.017 3.651.011.868-.031 1.737.039 2.602.012.24.107.512.342.613.298.13.632.096.948.125-.002.1-.003.203-.003.305h-3.915a11.66 11.66 0 0 1 0-.305c.33-.032.688.01.994-.142.326-.198.318-.624.331-.96.038-1.993.04-3.988-.003-5.98-.02-.3-.022-.703-.346-.84-.315-.102-.651-.077-.977-.082l.001-.31M64.447 8.932l.226.001v1.628l1.549.001c-.002.105-.002.208-.002.313h-1.547v3.503c.009.263.004.542.133.78.163.272.515.432.821.328.254-.076.418-.3.585-.492l.223.148c-.34.678-1.213 1.04-1.913.731-.348-.156-.644-.472-.706-.86a6.546 6.546 0 0 1-.073-1.077v-3.06l-.752-.002-.002-.291c.838-.065 1.372-.867 1.458-1.65M90.508 9.38c.071-.184.037-.494.315-.477.004.553.002 1.106.002 1.658.516.002 1.033 0 1.55.001a12.27 12.27 0 0 0 0 .313c-.514 0-1.027.003-1.54-.006-.007 1.258-.036 2.517.02 3.774-.012.37.187.764.567.85.402.121.74-.204.963-.5l.22.14c-.376.796-1.513 1.143-2.206.558-.444-.317-.466-.908-.478-1.403-.007-1.138 0-2.275-.003-3.412l-.751-.001a7.89 7.89 0 0 1-.005-.29c.65-.06 1.185-.578 1.346-1.205M56.376 10.644c.556-.045 1.087-.232 1.64-.292.08.34.127.685.141 1.034.422-.46.935-.881 1.563-.993.581-.096 1.26-.025 1.683.434.27.28.322.686.345 1.058.022 1.07-.03 2.145.053 3.214.067.369.509.345.792.371-.003.107-.005.213-.006.32a212.7 212.7 0 0 0-2.615.001c-.006-.074-.02-.223-.028-.297.305-.05.784-.005.864-.403.083-.947.014-1.903.038-2.853-.024-.4.036-.889-.294-1.184-.404-.39-1.064-.33-1.516-.056-.346.217-.659.517-.855.878-.034.835 0 1.672-.015 2.507.01.287-.034.596.099.861.166.242.49.19.742.232 0 .103.002.207.004.31-.88.003-1.759 0-2.639.002l.015-.316c.27-.041.657.018.789-.292.124-.673.037-1.364.063-2.044-.025-.623.057-1.256-.058-1.872-.116-.332-.525-.287-.805-.31v-.31M68.18 11.11c-.214.272-.294.616-.38.944.826.008 1.651.005 2.476.002-.006-.326.004-.683-.204-.953-.436-.614-1.454-.585-1.892.008m-.757.046c.726-.868 2.104-1.062 3.05-.46.53.378.862 1 .92 1.65-1.203.003-2.406.002-3.61 0-.035.915-.057 1.928.487 2.712.428.608 1.292.694 1.934.415.401-.162.67-.524.87-.896l.324.008c-.299.955-1.339 1.468-2.284 1.4-1.102-.057-2.095-.915-2.338-1.997-.208-.974-.036-2.079.647-2.832M72.04 10.732c.536-.073 1.058-.226 1.577-.382.116.402.17.817.195 1.233.304-.617.872-1.191 1.59-1.226.486-.057.979.39.926.888-.036.284-.36.464-.613.336-.305-.159-.259-.63-.587-.75-.354.013-.622.3-.844.55-.462.522-.422 1.27-.43 1.924.025.628-.058 1.267.067 1.886.166.321.583.25.881.29v.31c-.92-.006-1.84-.003-2.76-.003-.001-.102-.002-.202-.001-.302.302-.034.76-.007.856-.385.082-1.16.052-2.33.025-3.494-.003-.16-.03-.348-.172-.446-.21-.135-.47-.115-.706-.14a15.78 15.78 0 0 1-.005-.29M76.836 10.644c.557-.038 1.087-.242 1.642-.29.085.343.132.693.142 1.046.482-.565 1.149-1.044 1.917-1.042.591-.037 1.272.202 1.533.778.203.549.137 1.148.149 1.723.012.759-.037 1.524.055 2.28.096.334.506.301.778.328l.003.324c-.876-.008-1.752-.003-2.629-.003l.003-.306c.277-.044.683.019.812-.306.109-.435.057-.89.07-1.334-.015-.74.035-1.483-.038-2.22-.013-.477-.465-.845-.923-.84-.74-.042-1.373.514-1.725 1.124-.035.971-.008 1.947.012 2.92.014.155.002.338.121.458.182.195.471.153.71.186.003.106.005.212.009.317H76.84c.001-.105.003-.21.006-.314.277-.037.7.009.803-.33.097-.604.042-1.22.056-1.83-.019-.674.046-1.357-.053-2.026-.097-.349-.526-.311-.808-.334a17.773 17.773 0 0 1-.008-.309M85.193 13.542c-.313.273-.544.678-.498 1.107-.006.424.367.831.8.776.569-.076 1.037-.447 1.482-.784-.005-.675.002-1.35-.003-2.025-.614.261-1.273.473-1.78.926m-.726-2.868c.603-.356 1.338-.347 2.013-.285.599.072 1.27.442 1.363 1.1.106.749.044 1.508.06 2.262.017.473-.048.957.057 1.424.024.225.301.311.482.22.236-.096.29-.374.369-.588l.24-.001c-.032.366-.132.79-.482.976-.377.182-.875.198-1.223-.058-.226-.163-.299-.446-.387-.696-.55.384-1.143.76-1.815.868-.558.091-1.216-.147-1.451-.696a1.298 1.298 0 0 1 .118-1.084c.188-.317.498-.533.802-.728.736-.469 1.558-.77 2.362-1.096-.008-.366.029-.75-.101-1.097-.189-.375-.627-.535-1.022-.542-.308 0-.647.032-.89.242-.281.252-.166.731-.476.962-.194.143-.576.118-.645-.15-.091-.454.293-.805.626-1.033M92.973 10.693c.637-.054 1.258-.203 1.878-.35.008 1.403-.01 2.805.01 4.207.027.255-.036.562.156.767.21.163.494.13.742.168v.302h-2.787c-.003-.1-.004-.201-.004-.301.305-.048.759.04.909-.313.089-.373.06-.764.069-1.144-.013-.801.027-1.605-.034-2.405-.02-.209-.06-.48-.281-.567-.214-.066-.442-.046-.661-.054l.003-.31M98.012 10.774c-.383.14-.68.464-.825.845-.231.592-.245 1.242-.23 1.871.026.507.086 1.037.34 1.486.567.958 2.2.94 2.717-.06.298-.604.31-1.303.302-1.965-.026-.617-.095-1.288-.498-1.784-.432-.518-1.2-.6-1.806-.393m.155-.387c.588-.077 1.21-.018 1.743.26.76.405 1.332 1.177 1.44 2.045.114.86-.051 1.819-.677 2.455-.979 1.04-2.766 1.135-3.844.202-1.024-.829-1.2-2.419-.62-3.559.397-.731 1.13-1.29 1.958-1.403M101.994 10.645c.554-.049 1.084-.228 1.634-.3.082.335.128.679.156 1.023.514-.55 1.184-1.044 1.972-1.011.67-.041 1.444.353 1.557 1.075.156 1.212-.02 2.442.106 3.657.052.378.51.354.793.385 0 .104.003.208.007.313l-2.634.001a6.998 6.998 0 0 1-.002-.304c.3-.036.764.002.84-.39.078-.952.037-1.91.04-2.863-.028-.39.028-.854-.273-1.157-.312-.334-.823-.348-1.23-.218-.512.175-.886.595-1.193 1.025.025 1.071-.049 2.149.054 3.216.07.374.522.347.81.378-.002.104-.003.209-.002.313-.881-.007-1.764.011-2.644-.01.006-.077.02-.23.025-.308.26-.034.626.013.772-.266.09-.295.061-.612.079-.915-.005-.861.014-1.723-.012-2.584-.023-.197.012-.434-.141-.585-.19-.18-.472-.14-.708-.167a8.946 8.946 0 0 1-.006-.308M110.126 13.69c-.315.313-.454.808-.305 1.235.104.335.47.565.817.492.538-.094.978-.449 1.407-.768-.002-.676-.001-1.351-.001-2.027-.675.277-1.41.512-1.918 1.067m-.893-2.764c.47-.498 1.194-.577 1.84-.567.564-.008 1.174.126 1.575.556.271.281.3.696.322 1.067.011.888-.003 1.776.004 2.665 0 .246.052.49.12.726.168.032.367.101.516-.024.24-.154.148-.635.529-.562-.058.298-.083.636-.314.858-.322.311-.835.33-1.235.182-.331-.125-.456-.484-.55-.795-.517.352-1.06.702-1.678.84-.481.108-1.037.011-1.39-.357-.325-.33-.343-.87-.152-1.276.17-.366.502-.613.832-.824.74-.486 1.577-.784 2.39-1.12-.013-.39.06-.82-.135-1.175-.383-.532-1.17-.572-1.724-.324-.35.156-.333.578-.471.88-.109.281-.5.341-.727.172-.222-.311.01-.699.248-.922M71.56 25.277a4.7 4.7 0 0 0 0 2.286c.15.59.584 1.144 1.19 1.292.632.156 1.303-.097 1.75-.556.11-.124.271-.244.259-.43.01-1.034-.002-2.07.004-3.106-.517-.425-1.163-.783-1.852-.704-.65.06-1.194.589-1.35 1.218m2.317-4.737c.614-.02 1.21-.173 1.813-.283.003 2.388-.003 4.776.002 7.164.027.381-.02.773.077 1.146.157.273.518.233.784.275l.001.293a10.92 10.92 0 0 0-1.662.177 8.783 8.783 0 0 1-.071-.913c-.552.537-1.28.954-2.069.909-1.197-.022-2.17-1.09-2.357-2.236-.098-.726-.047-1.506.323-2.152.425-.756 1.24-1.315 2.121-1.3.71-.04 1.391.268 1.924.725-.005-.94 0-1.88 0-2.82-.003-.199-.02-.442-.2-.563-.207-.123-.458-.098-.687-.115l.001-.307M52.108 20.387c2.794.001 5.588-.001 8.382.001.007.709.017 1.417.048 2.125l-.305-.012c-.113-.645-.282-1.48-.978-1.72-.767-.14-1.554-.066-2.33-.074.016 2.248-.011 4.498.014 6.747.038.389-.05.881.284 1.163.364.218.808.155 1.213.168l-.009.313c-1.436-.005-2.872 0-4.309-.002v-.312c.357-.001.722.021 1.07-.076.233-.066.389-.289.422-.525.054-.37.055-.746.059-1.12-.002-2.121 0-4.242-.001-6.363-.651.008-1.303-.021-1.953.024-.253.02-.54.045-.722.247-.408.403-.515.997-.62 1.54l-.318-.007c.034-.705.038-1.41.053-2.117"/>
        <path fill="#6D6E72" d="M59.982 23.999a10.63 10.63 0 0 0 1.574-.389c.124.402.175.821.206 1.24.324-.641.936-1.253 1.695-1.23.48-.022.922.453.835.937-.053.278-.41.446-.642.273-.301-.183-.266-.841-.728-.71a1.819 1.819 0 0 0-1.08 1.526c-.079.858-.045 1.721-.02 2.581.001.172.052.373.216.457.22.105.473.089.71.11v.302c-.921.001-1.843-.002-2.765.001v-.3c.248-.037.548.007.744-.187.15-.143.128-.371.141-.56v-3.041c-.006-.203-.002-.455-.19-.582-.206-.132-.465-.108-.696-.144v-.284zM65.97 27.016c-.35.374-.472 1.002-.162 1.438.171.257.515.337.801.26.505-.134.936-.448 1.34-.767-.004-.681 0-1.362-.002-2.042-.698.285-1.461.525-1.977 1.11m-1.136-2.488c.313-.554.943-.846 1.556-.887.7-.048 1.497-.057 2.056.443.36.28.413.767.427 1.193.01.865 0 1.73.004 2.596.005.23.011.468.087.688.087.224.4.225.564.09.238-.15.142-.624.516-.557-.033.28-.063.585-.255.81-.3.361-.841.395-1.259.26-.353-.123-.504-.494-.605-.824-.52.372-1.085.72-1.716.856-.563.128-1.246-.06-1.54-.593-.27-.544-.035-1.224.425-1.584.837-.68 1.863-1.044 2.85-1.44-.005-.4.043-.834-.148-1.199-.39-.528-1.178-.566-1.738-.321-.338.151-.342.564-.462.863-.097.28-.456.371-.697.235-.199-.14-.161-.437-.065-.629M78.428 24.317c-.252.282-.345.662-.435 1.02.827.02 1.655-.001 2.484.011.034-.334.018-.697-.189-.977-.42-.598-1.394-.595-1.86-.054m-1.23.72c.352-.719 1.039-1.295 1.84-1.395.44-.045.902-.035 1.317.136.732.3 1.209 1.074 1.26 1.855-1.212.004-2.427.001-3.64.002-.049.687-.03 1.39.165 2.056.133.46.408.91.854 1.116.459.199.999.168 1.455-.027.386-.17.65-.524.85-.886l.324-.004c-.343 1.14-1.709 1.628-2.778 1.341-.988-.25-1.787-1.132-1.925-2.153-.091-.687-.037-1.415.279-2.041M53.084 34.197c.763-1.01 2.06-1.497 3.294-1.465 1.069-.002 2.11.488 2.842 1.267.153-.354.262-.724.314-1.107l.288-.002c.03 1.103.067 2.206.07 3.309h-.28c-.154-.797-.372-1.636-.948-2.237-.773-.759-1.959-1.072-2.997-.766-.74.22-1.313.824-1.636 1.515-.368.789-.48 1.673-.489 2.537-.01.864.1 1.757.498 2.533.35.66.93 1.216 1.642 1.456.9.303 1.923.092 2.691-.449.747-.593 1.093-1.557 1.248-2.475.068.002.206.006.275.01-.004 1.016-.001 2.034-.002 3.052l-.274.007a3.449 3.449 0 0 0-.395-.894c-.544.576-1.231 1.03-2.014 1.185-1.258.24-2.66.011-3.664-.83-.832-.665-1.336-1.69-1.446-2.748-.158-1.357.159-2.798.983-3.898M74.361 34.646l.195.071c.022.537 0 1.076.007 1.614h1.571v.313l-1.57-.001c.012 1.273-.027 2.547.021 3.82-.016.395.234.817.647.866.387.07.678-.245.895-.52l.23.16c-.287.498-.82.856-1.4.837-.637.025-1.253-.5-1.278-1.154-.096-1.334-.02-2.674-.047-4.01-.254.002-.509.002-.762.002.004-.09.012-.179.022-.267.26-.114.56-.144.774-.349.426-.331.59-.873.695-1.382M62.51 36.827c-.257.28-.343.66-.435 1.017.83.014 1.659-.002 2.487.01.034-.356.003-.747-.233-1.03-.445-.545-1.372-.528-1.82.003m-1.068.435c.363-.545.919-.99 1.573-1.098.614-.092 1.296-.046 1.812.338.508.387.824 1 .879 1.637-1.217.005-2.434-.006-3.65.005-.039.919-.05 1.929.486 2.72.42.62 1.29.71 1.938.444.414-.16.694-.528.898-.91l.334-.005c-.282.916-1.253 1.45-2.168 1.414-1.18.026-2.282-.902-2.515-2.06-.166-.839-.06-1.76.413-2.485M66.265 36.41c.554-.05 1.086-.222 1.635-.3.092.345.14.699.169 1.055.394-.46.894-.86 1.494-.99.591-.118 1.278-.056 1.73.385.336.305.375.793.393 1.22.01 1.041-.024 2.086.047 3.127.064.384.526.36.82.397-.002.098-.004.197-.004.297h-2.677c-.001-.1-.002-.202-.001-.3.243-.03.523.004.73-.155.16-.152.157-.387.16-.59-.006-.926-.003-1.85-.003-2.776-.007-.323-.01-.7-.269-.933-.288-.311-.755-.348-1.144-.25-.463.122-.824.464-1.12.826-.08.102-.177.21-.164.352-.009.866 0 1.733-.004 2.6.015.23-.015.482.103.69.179.234.505.194.765.239-.003.099-.005.198-.006.298h-2.651c-.002-.1-.003-.2-.002-.3.27-.045.658 0 .794-.3.116-.585.052-1.19.069-1.782-.019-.717.045-1.44-.054-2.151-.096-.35-.524-.326-.808-.35 0-.076 0-.23-.002-.308M76.47 36.498c.544-.05 1.054-.256 1.585-.36.141.394.171.817.19 1.232.33-.63.916-1.248 1.67-1.245.464-.03.921.39.887.866-.013.277-.32.5-.58.386-.362-.124-.285-.681-.66-.778-.424.06-.723.422-.966.747-.388.635-.272 1.42-.294 2.13.017.5-.047 1.009.056 1.5.147.354.587.295.897.321-.002.101-.002.202 0 .303-.93.002-1.859 0-2.788.002a11.522 11.522 0 0 1-.001-.303c.284-.03.658.015.83-.272.079-.207.063-.436.077-.653v-2.766c-.023-.225.016-.504-.179-.661-.21-.156-.488-.117-.73-.156.001-.098.003-.196.006-.293M82.52 36.753c-.295.288-.407.703-.492 1.096.83 0 1.66.003 2.49-.002.01-.341.008-.716-.216-.995-.417-.549-1.296-.557-1.782-.1m-1.274.757c.35-.688 1.005-1.243 1.779-1.355.585-.076 1.23-.026 1.724.33.521.385.849 1.007.902 1.654-1.218.007-2.437-.007-3.655.008-.03.908-.041 1.9.471 2.69.502.756 1.642.782 2.318.261.24-.184.396-.448.548-.704l.324.009c-.388 1.207-1.883 1.676-2.996 1.27a2.645 2.645 0 0 1-1.712-2.088c-.093-.7-.038-1.443.297-2.075"/>
        <path fill="#002B55" d="M32.448 18.889c2.284-2.301 4.565-4.606 6.847-6.908l5.13 5.178c-2.273 2.308-4.562 4.601-6.836 6.91-1.724-1.716-3.429-3.453-5.14-5.18M17.32 16.424c1.715 1.724 3.427 3.452 5.135 5.183L5.11 39.112C3.408 37.389 1.697 35.676 0 33.947v-.031c5.765-5.839 11.551-11.656 17.32-17.492"/>
    </g>
</svg>
