<svg xmlns="http://www.w3.org/2000/svg" xmlns:xlink="http://www.w3.org/1999/xlink" width="271" height="271" viewBox="0 0 271 271">
    <defs>
        <circle id="a" cx="127.5" cy="127.5" r="127.5"/>
        <filter id="b" width="110.2%" height="110.2%" x="-5.1%" y="-4.3%" filterUnits="objectBoundingBox">
            <feOffset dy="2" in="SourceAlpha" result="shadowOffsetOuter1"/>
            <feGaussianBlur in="shadowOffsetOuter1" result="shadowBlurOuter1" stdDeviation="4"/>
            <feColorMatrix in="shadowBlurOuter1" values="0 0 0 0 0 0 0 0 0 0 0 0 0 0 0 0 0 0 0.13 0"/>
        </filter>
        <path id="d" d="M29.698 104.185H.223V.14h29.475v104.046z"/>
    </defs>
    <g fill="none" fill-rule="evenodd" transform="translate(8 6)">
        <mask id="c" fill="#fff">
            <use xlink:href="#a"/>
        </mask>
        <use fill="#000" filter="url(#b)" xlink:href="#a"/>
        <use fill="#FFF" xlink:href="#a"/>
        <g mask="url(#c)">
            <path fill="#E60D64" d="M172.686 91.925c3.728.025 4.585 3.018 4.63 6.41.88 0 .365 3.916-.684 3.888.156.418-.34 2.047-.814 2.362-.474.315-.502.762-.502 1.55s.553 1.26.553 1.26 1.5.237 1.657 1.103c.158.867 1.5 1.34 3 1.42 1.5.078 4.183 1.023 4.183 2.126s.079 3.308.552 3.151c.474-.157.553 1.97.947 3.86.395 1.891 2.746 8.229 1.258 10.14-1.489 1.91-4.967 1.836-4.967 1.836s.079 1.182.395 3.703c.315 2.522.789 4.255.315 4.255-.474 0-.158 8.43-.158 12.763v13.079c0 .787-2.683.709-3.552.709-.868 0-1.578-.079-1.578-.079s-.158 2.6-.316 4.333c-.157 1.734-.157 10.321-.394 12.448-.237 2.128-1.026 6.933-.948 9.927.08 2.994.87 5.988 1.816 7.485.947 1.497 1.263 2.127 1.894 2.679.632.551 1.895 1.339.395 1.418-1.5.079-4.894.158-5.525-.394-.631-.552-.158-2.206-.71-3.152-.553-.945-1.342-1.89-1.342-1.89v1.103s1.42 2.678 1.184 3.387c-.237.71-.158 1.97-1.263 1.97s-4.262-.866-4.578-1.89c-.315-1.025-.078-4.019-.473-4.885-.395-.867-.158-2.522.079-4.176.237-1.655-.237-6.697-1.42-9.848-1.185-3.152-1.422-9.297-1.343-11.976.079-2.679.474-4.648.395-5.909-.079-1.26-.079-1.497-.079-1.497s-3.394 0-3.314-.63c.078-.63.394-7.643.394-10.794 0-3.151.153-7.488.431-10.097.278-2.608.278-3.497.278-3.497s-.278-.388 0-2.33c.278-1.943.5-3.608.5-3.608s-1.946.056-2.502-2.054c-.555-2.109-.662-5.512-.589-9.779.073-4.267.508-7.377.508-8.462s-.29-1.519 1.304-1.952c1.593-.435 2.607-.218 3.984-1.23 1.377-1.012 1.884-2.025 2.535-2.531.653-.507 1.425-1.334 1.008-2.045-.42-.71-1.236-1.474-1.132-3.01-1.26-.023-1.732-4.27-.866-4.339.237-3.03.655-6.339 4.854-6.31"/>
            <path fill="#FFF" d="M175.664 107.164c.11.15.205.232.205.232s.201.031.464.114c.556 1.153.808 5.975.808 7.515 0 1.566-.993 4.698-1.569 6.317-.575 1.618-.626 3.184-.626 3.184s-.68-2.766-1.466-4.96c-.784-2.191-2.353-5.063-3.451-7.1a11.408 11.408 0 0 1-1.335-4.729c.043-.038.086-.073.129-.107.205-.16.422-.35.61-.56.124.843.543 2.037.962 2.734.47.784 1.621 1.201 2.092 1.723.47.522-.47 1.097 0 1.932.47.834.889 1.305.889 1.305s-.157-.887.052-1.619c.21-.73.784-.052 1.203-1.2.39-1.07.734-3.225 1.033-4.781M173.439 134.07h.866s.866 2.595 2.194 3.172c1.33.576 3.697.634 3.697.634s-1.213 1.037-2.83 1.037-2.137-.692-2.137-.692-2.368 1.558-4.62 1.21c-2.252-.345-2.83-1.094-2.83-1.094s3.004.518 4.274-.519c1.27-1.038 1.328-2.018 1.386-3.747"/>
            <path fill="#00ADEF" d="M232.332 78.362s1.821-.579 2.732.579c.91 1.157 1.739 3.884 2.07 5.207.331 1.322.013 4.754 1.01 5.391 1.551.99-.154 2.752 1.186 3.134 1.354.386 2.027 1.889 2.027 1.889s2.815-.496 3.311.99c.497 1.49-.082 5.539-.166 6.861-.082 1.323-2.152 7.77-2.235 8.926-.082 1.158-1.242 2.067-1.242 2.067s.083 1.735.663 3.471c.58 1.736.662 2.314.662 2.314s.828 4.05 1.325 5.786c.497 1.736.414 1.901-.58 2.314-.994.414-1.656 1.157-1.656 2.975 0 1.819 1 8.297.336 14.6-.665 6.303-.831 12.44-.831 12.44h-.832s.333 4.81-.83 8.957c-1.163 4.147-2.211 7.913-2.211 9.042 0 1.128-.087 1.823.175 2.43.26.608.869 1.824.173 3.3-.696 1.476-.87 2.604-.87 3.472 0 .868-2.522 1.823-4.522 1.737-2-.087-1.827-1.476-1.305-2.344.522-.868 1.392-1.997 1.826-3.56.436-1.562.174-2.691.61-4.254.435-1.563.782-3.038.782-7.032v-8.247c0-2.518-.174-3.646-.174-3.646l-5.653-.435s.436 2.084.783 3.646c.348 1.564.174 5.123 0 8.422-.174 3.299-.347 6.598.174 7.205.522.608 1.391 2.344.957 3.82-.435 1.476-.87 3.126-.783 3.907.087.781-.174.868-.174.868h-.957s.348-1.39.348-2.17c0-.781-.261-1.042-.261-1.042s-1.043 1.65-1.304 2.344c-.261.695 0 2.084-2.261 2.17-2.262.087-3.827.261-4-.52-.175-.782.26-1.216 1.478-2.084 1.217-.868 1.826-2.344 2.522-3.472.695-1.13.87-3.04.434-5.123-.434-2.083-2.609-10.678-2.696-13.37-.087-2.69.087-4.948.087-4.948s-1.478-.087-1.913-.087c-.435 0 0-4.514 0-7.812 0-3.3.26-15.28.522-17.104.26-1.822.26-3.037.26-3.037s-.869.434-.695-.695c.174-1.13 1.13-5.296 1.13-6.772s-.174-3.039-.174-3.039-2.956-.347-2.956-2.083c0-1.737-.087-1.823-.261-2.344-.174-.52-.348-.955 0-1.997.348-1.042 1.044-2.083 1.652-4.948.61-2.865 1.74-6.077 1.74-7.292 0-1.216.434-1.477 1.826-2.084 1.392-.608.113-1.082 1.547-2.483 1.435-1.4-.94-2.194.162-4.595 1.104-2.4.117-5.944.465-7.854.348-1.91 2.435-5.383 6.567-3.791"/>
            <path fill="#EEE" d="M229.679 93.352l-2.088 2.778s.61 1.129.957 1.302c.348.174.26 1.736.26 3.646s0 5.904.088 6.772c.087.868.174 1.39.174 1.39s1.044-3.213 1.652-5.557c.61-2.344 2.174-5.209 3.131-6.772.957-1.562 2-3.472 2-3.472l-.696-1.129s-1.217 1.042-2.086 1.824c-.87.78-1.914 1.215-1.914 1.215s1.827 1.042 1.218 2.431c-.609 1.388-1.305 1.475-1.566 2.951-.26 1.476.261-1.649-.174-2.865-.434-1.215-1.565-.52-.956-4.514"/>
            <path fill="#00ADEF" d="M228.374 117.747l-.782 1.736h1.217z"/>
            <path fill="#5B6887" d="M188.745 100.522c-.437-.524.175-.96 1.05-.96s.263-.962 1.662-.962c1.4 0 3.5-.785 5.163-.261 1.662.524 3.062 1.66 4.025 3.581.962 1.922 1.137 3.668.524 5.24-.612 1.573-1.224 3.93-1.224 3.93s.175.786 1.487 1.748c1.313.96 4.987 1.834 7 4.192 2.012 2.358 2.275 6.638 3.237 8.298.963 1.66.262 6.2 1.05 8.297.788 2.096-.525 4.455-.525 5.24 0 .786 2.888 16.683 3.15 17.731.263 1.048-.7 1.31-3.062 1.834s-3.062.612-3.412 1.31c-.35.7-.35 4.105-.35 5.94 0 1.834-.526 4.104-.263 6.637.262 2.533 2.275 10.744 2.187 14.936-.088 4.193-1.05 18.43-.962 20.001.087 1.573.087 3.145.087 3.145l-2.8.262.088-.786s-1.925 1.659-5.775 1.834c-3.85.174-6.124-.524-6.562-1.136-.438-.61-.262-1.746.962-1.746 1.225 0 1.838-.612 2.275-.961.438-.35-.35-.786-.35-.786s-2.975.786-5.862.524c-2.888-.262-4.9-.7-5.076-1.223-.174-.524.264-1.834 1.839-1.834s2.712.174 3.674-.35c.963-.523 1.838-.96 1.838-.96s.438-4.804 1.4-7.686c.962-2.883 1.75-4.804 1.05-5.678-.7-.873-2.188-6.9-2.1-9.87.088-2.97.088-5.24-.788-8.035-.875-2.795-2.8-12.228-2.625-17.38.175-5.154-.175-6.551-.262-7.774-.088-1.223-.088-2.359-.088-2.359l-.028-1.23c-.753 1.053-1.13 3.35-1.284 5.597-.155 2.249-.7-1.135-.35-3.93.35-2.794 1.05-4.367.875-6.288-.175-1.922-.525-5.853.875-9.608 1.4-3.756 1.084-2.208 1.364-4.24.28-2.03.842-3.642.842-4.762 0-1.12.35-3.152.35-3.152s.351-.35-.42-1.611c-.772-1.262-.912-1.892-2.456-1.821-1.544.07-2.613.016-2.278-1.033.333-1.05-.103-1.294.178-1.537.281-.243.599-.41.275-.572-.323-.162-.561-.15-.561-.711 0-.56-.561-.28-.912-.56s.14-1.192.631-2.032c.49-.84.842-1.121.562-1.751-.281-.63.14-1.261.701-2.381.561-1.122.912-1.472-.026-2.31"/>
            <path fill="#FFF" d="M200.055 110.681c-.07.256-.11.41-.11.41s.09.403.622.984c-2.524 2.444-5.054 7.338-6.047 10.575-1.068 3.482-1.71 8.031-1.994 11.159-.284 3.127.428 4.335 1.496 6.68 1.068 2.346 2.065 3.981 2.065 3.981s-1.21.07-2.706.213c-1.496.142-2.848-.071-2.848-.071s-.072-.071-.142-1.137a6.924 6.924 0 0 1-.013-.248v-.001c-.036-1.113.115-2.946.511-3.803.427-.923.996-4.833 1.282-6.183.284-1.351.213-2.985.142-5.118-.07-2.132 2.207-8.244 1.496-8.813-.396-.315-.725-.85-.94-1.262.09-.671.183-1.205.183-1.205s.06-.06.075-.218c1.84-2.666 4.707-4.675 6.928-5.943"/>
            <path fill="#002B55" d="M122.545 176.314c-.124.572-.221 1.028-.28 1.327-.425 2.118-.934 6.354-1.528 6.354s-.425.424-.51 1.61c-.084 1.186-1.273 1.355-1.952 1.61-.678.253-.849-.424-.849-.424s-1.103 2.287-3.055 2.541c-1.951.254-5.685 1.017-5.685.085 0-.933.423-1.78 1.697-2.541 1.272-.763 2.206-2.796 2.715-3.305.51-.508-.17-.338.255-1.355.424-1.017 1.698-7.031 1.952-8.98.255-1.949.085-8.641 1.018-11.776.934-3.135 3.82-13.215 4.243-16.011.425-2.796 1.02-5.592 1.02-7.117 0-1.525.169-2.54.593-3.642.425-1.102-.085-2.627-.085-2.627s-1.103.848-1.782 1.44c-.678.594-.678-.338-.34-1.694.34-1.355.085-2.118-.254-1.694-.34.423-.594-2.203-1.443-3.813-.849-1.61-2.715-4.913-2.291-6.777.424-1.864.594-5.168 1.103-6.777.51-1.61 1.019-4.49 1.613-6.27.594-1.778.51-2.625 1.273-4.404.764-1.78 1.612-3.813 1.612-4.66 0-.477.215-.873.96-1.203v18.71c-.255.573-.506.996-.705 1.046-.679.17-.764 1.101 0 1.525.764.423.254 3.304.594 3.728.047.059.083.065.111.028v55.066zm15.177-98.897c.581.497 1.328 1.491 1.91 1.16.58-.332.414 1.241 1.077 1.241.664 0 1.411 2.32 1.328 3.562-.083 1.243-.414 2.485-.498 2.982-.083.497-.331 2.568-.746 2.568s-.582.082-.582.082-.497 1.575-.497 2.817c0 1.242.165 1.242.165 1.242l.747 1.16s3.734 1.988 5.477 2.485c.782.223 1.564.462 2.232.898v18.408c-.216-.365-.438-.94-.688-2.051.007 2.385-.797 5.899-.21 8.22-.051-.865.407-1.714.898-2.472v11.494c-.636-.055-1.052.013-1.052.013s-.316 1.346-.872 1.742c-.555.396-1.268 1.74-1.426 1.266-.16-.475-.634 3.482-1.11 5.619-.476 2.137-2.77 17.032-2.77 19.15 0 2.118-.849 4.32-.764 5.846.085 1.525-.255 5.507-.34 7.71-.084 2.202-2.121 4.49-2.121 6.099 0 1.61.509 2.372.254 3.304-.254.931-.17 1.61.85 2.71 1.018 1.102 1.442 2.119 1.357 2.966-.085.846-.34 1.186-2.376 1.27-2.037.085-3.99-.508-3.99-1.016s-.678-.678-1.272-.678-.509-.593-.255-1.779c.255-1.186 1.103-2.795.594-2.626-.51.17-.933-.17-.933-1.864 0-1.694-.255-2.202.509-3.22.764-1.016.594-2.88.424-4.404-.17-1.525-.679-2.627-.254-4.49.424-1.864.51-4.151.254-5.084-.254-.932-.085-2.032.594-2.795.68-.763-.339-2.118-.339-2.965s.254-4.406-.17-7.963c-.424-3.559-.509-6.27-.594-7.202-.085-.932-.594-.508-1.867 3.05-1.273 3.559-4.498 14.656-5.092 17.113-.51 2.11-2.273 9.847-3.029 13.329v-55.066c.172-.23.045-2.117.483-3.502.51-1.61.679-3.813.764-6.438 0 0-.635 2.238-1.247 3.614v-18.71c.58-.258 1.484-.476 2.86-.662 3.14-.424 5.43-1.271 6.195-1.864.447-.347.737-.644.996-.93.208-.23.601-.68.244-.712-.798-.073-.941-3.074-1.342-3.949-.4-.876-.263-1.5.017-2.287.279-.788-.255-1.949.424-3.219.679-1.271-.254-2.796.679-2.966.933-.169.594-1.27 1.527-1.27.934 0 1.019-1.271 1.952-.847.934.423.934-1.017 1.625-.09zm10.613 20.197c.823.536 1.476 1.368 1.751 2.83.498 2.65 3.224 11.55 4.571 14.004 1.348 2.454 1.52 5.791.173 7.849-1.349 2.058-4.55 7.074-5.026 7.787-.476.712-.618 1.222-1.331 1.142-.047-.004-.093-.01-.138-.013v-11.494c.633-.973 1.32-1.795 1.055-2.307-.397-.765-.72-.827-1.055-1.39V97.614z"/>
            <path fill="#002B55" d="M139.771 92.798c.048.273.109.273.109.273l.651 1.012c-.017.07-.03.142-.039.212-.215 1.712-.536 7.598-.536 11.557 0 3.96-.536 6.1.107 9.31.644 3.21.75 5.03 1.608 6.956.858 1.926 1.394 3.317 1.394 3.317s-2.788-.32-5.682-.32c-2.894 0-8.254.427-9.326.106-1.072-.32-1.823-.749-1.823-.749s1.287-2.889 2.144-6.1c.858-3.21 1.716-7.597 1.716-11.985 0-4.387-.108-8.56.75-10.807.309-.81.535-1.411.697-1.85.02-.014-.168.132.058-.043.227-.177.704-.657 1.001-.939.46.567.702.95 1.674 2.082.973 1.133 1.072 1.927 2.68.857 1.148-.764 2.022-1.908 2.817-2.89"/>
            <path fill="#EEE" d="M135.668 96.543l-1.608 1.605s.86.267.586.95c-.273.682-1.411 4.545-2.504 9.682-1.093 5.136-2.596 14.136-2.915 15.41-.318 1.272.092 2.18.957 3.5.865 1.317.956 1.272 1.821.135.865-1.135 1.503-.68 2.05-3.954.546-3.272 1.457-9.728 1.912-12.59.455-2.865.956-8.41.592-9.684-.364-1.273-.637-1.955-.5-2.5.136-.545.955-1.045.955-1.045s-.592-1.182-1.346-1.51"/>
            <path fill="#00ADEF" d="M89.926 88.873l.056-.001v73.44c-.124.736-.264 1.503-.376 1.949-.263 1.053.159 1.738.159 2.475 0 .738.158 1.685.158 1.685s.012-.507.06-1.123v33.14c-1.345-.401-2.323-2.088-2.247-4.433.087-2.697-.523-3.132-.088-4.698.437-1.566-.086-2.697-.87-5.133-.785-2.436-3.749-12.963-3.575-15.66.175-2.697.436-5.047.175-6.874-.262-1.827-.436-3.393-.436-3.393s-1.918.87-1.918-1.74-.435-10.092-.61-12.355c-.174-2.261.175-6.699.175-6.699s-1.83-.174-2.44-.435c-.61-.26 1.569-4.176 2.004-5.742.436-1.566.349-4.263.349-4.263s-3.313-.174-3.487-2.958c-.174-2.784-.26-6.786 0-8.439.262-1.654.349-1.48.61-3.654.262-2.175 1.395-6.004 2.528-6.178 1.133-.174 2.528-1.043 2.528-1.043s-1.133-1.305.261-2.436c1.395-1.132 2.18-1.567 1.57-3.046-.612-1.479-.175-2.61.173-4.524.349-1.914 1.308-7.83 5.24-7.862zm.056-.001c2.464-.043 4.523 2.26 5 4.408.483 2.164.883 2.003.883 3.205 0 1.203.482 2.484.723 4.408.24 1.922.401 3.205 1.365 4.326.963 1.122.803 2.244.803 2.244s3.21.16 4.013 2.324c.803 2.164.964 5.85 1.285 8.334.32 2.484.08 5.368-.803 7.212-.884 1.842-2.81 2.083-2.81 2.083s-.32 3.846.803 7.211c1.123 3.366 1.927 5.13.964 5.29l-1.446.24s.028 4.342-.63 7.135c-.658 2.792-2.139 10.02-2.139 11.826 0 1.807-.06 1.477-.758 1.477H96.19s.087 2.871-.261 3.567c-.35.696.261 3.915-.785 7.308-1.046 3.394-3.137 9.136-3.137 11.571 0 2.437 1.045 5.395 2.178 6.613 1.133 1.218 2.79 3.654 1.918 4.263-.872.61-2.092.522-2.877.261-.784-.261-1.394-.957-1.394-.957s.087 1.218.436 2.175c.348.957 0 5.133-1.656 5.133a2.2 2.2 0 0 1-.63-.092v-33.139c.052-.67.146-1.467.31-1.879.317-.79.053-2.528 0-5.056 0 0-.14.946-.31 1.948v-73.44z"/>
            <path fill="#EEE" d="M87.998 104.914s1.742 1.478 1.742 2.61c0 1.13.785 4.872 1.133 6.002.35 1.131.523-1.392 1.134-2.522.61-1.132.871-2.089.522-2.959-.348-.87.993-1.251 1.865-3.427.114.82.055 1.484.025 2.3-.03.817-1.424 4.87-1.818 5.657-.394.786-1.455 3.297-1.546 4.023-.09.726-1.03-1.422-1.575-3.751-.545-2.329-1.545-5.717-1.482-7.933"/>
            <path fill="#00ADEF" d="M85.457 124.85s.234-.747.28-1.634c.048-.887 0-1.167 0-1.167l-.935.14s-.074 1.734-.26 2.294c.413.375.915.367.915.367M94.133 127.665s-.26 1.748-.325 2.266c-.064.518 1.298 0 1.298 0v-2.266h-.973z"/>
            <g transform="translate(98.585 113.96)">
                <mask id="e" fill="#fff">
                    <use xlink:href="#d"/>
                </mask>
                <path fill="#2A7FCB" d="M12.275.139c2.061-.014 5.276 2.04 5.276 5.132 0 3.093-.252 4.43-.503 5.434-.25 1.003-.586.836-.586.836s.084 2.09-.586 2.591c-.67.502-.837.669-.837 1.338s.418 1.17 1.004 1.839c.586.668 3.1 1.42 4.439 1.922 1.34.502 2.429 1.338 3.182 3.01.754 1.671 1.842 3.762 3.266 5.183 1.424 1.421 3.183 3.678 2.68 5.852-.503 2.173-3.517 3.845-5.192 2.925-1.675-.92-2.345-1.003-2.345-1.003s1.089 4.765 1.59 9.53c.504 4.765 1.843 9.363 1.09 9.78-.754.419-1.842.92-1.842.92s-.228 6.735-1.425 12.56c-1.196 5.824-1.632 8.463-1.786 11.93-.155 3.466-.54 6.01-.232 7.473.31 1.463 2.316 4.314 3.473 4.854 1.158.539 3.242.539 4.09.923.85.386 1.467 1.465-.463 1.773-1.929.308-5.556-.231-6.482-.54-.926-.308-2.393-1-2.393-1s.464 1.154-1.62 1.154-2.47-.154-2.547-1.463c-.077-1.31 0-3.082-.309-4.006-.309-.925 1.235-3.313.463-4.623s-1.543-4.699-.849-6.702c.695-2.003-.23-4.006 0-5.316.232-1.31.54-3.081.54-5.084 0-2.003-.077-3.467-.077-3.467s-1.466 7.55-1.852 9.553c-.386 2.003-1.003 9.167-1.003 11.324 0 2.158-1.62 5.085-1.698 7.011-.077 1.926-.154 3.082-.695 3.082-.54 0 .54 2.157.926 3.852.387 1.695 1.544 5.47-.694 5.47s-4.785-.925-4.863-3.313c-.076-2.389.232-4.469-.385-5.393-.617-.925-.694-2.928-.617-4.16.077-1.233-.309-3.313 0-5.932.308-2.62.308-7.01.926-10.324.617-3.312.771-8.397 1.08-12.403.309-4.006.54-6.01.154-6.625-.385-.616-2.7-1.156-3.318-1.31-.617-.154.772-4.314 1.235-7.78.462-3.467 1.312-5.547 1.775-8.013.463-2.465.463-3.62-.54-5.393-1.004-1.77-2.239-2.927-2.779-6.933S-.288 19.982.792 18.98c1.08-1.001 3.164-.462 4.707-1.694 1.544-1.233 1.776-2.62 2.47-2.774.695-.154.849-.308.849-1.155 0-.848-.231-1.696-.231-1.696s-1.081-.693-1.312-1.771c-.232-1.079-.463-3.775-.155-5.624C7.43 2.417 9.116.16 12.275.139" mask="url(#e)"/>
            </g>
            <path fill="#FFF" d="M113.84 130.236c.127.235.304.465.513.715-.283.796-.341 1.722-.37 2.48-1.148-.737-.56-2.398-1.564-2.493-.97-.093-1.096.324-1.258.972-.163.648-.26 1.134-.26 1.134s-3.197-3.413-4.147-4.62c.461-.127.613-.3.643-.854 1.062 1.128 3.67 3.165 4.9 3.165.584 0 1.09-.194 1.543-.499M116.437 143.214l-1.785-.122s1.623 1.135 1.623 2.35c0 1.216-.081 1.742-.081 1.742l1.42.325s.447-1.216.04-2.391c-.405-1.174-.851-1.5-1.217-1.904M116.963 153.647s-.232 2.176-.325 2.871c-.092.695-.092.926-.092.926l1.392-.23s-.325-1.761-.975-3.567"/>
            <path fill="#C3DBED" d="M26.572 89.824c2.612 1.118-.28 2.514.56 3.818.84 1.304-1.026 2.236-.56 4.005.467 1.77 4.478 1.676 6.438 1.49 1.96-.187-.84-12.945-6.438-9.313"/>
            <path fill="#C3DBED" d="M23.675 78.473c3.22-4.388 11.597-2.596 11.52 3.103-.079 5.699 3.482 2.07 2.3 4.935-1.183 2.865 2.549 2.54.992 4.896-1.557 2.355 2.25 2.883-1.403 5.616-3.653 2.733-5.765 1.88-5.765 1.88s1.124-15.982-5.482-14.118c-2.048.578-3.72-4.188-2.162-6.312"/>
            <path fill="#C3DBED" d="M28.431 76c2.276-.006 4.298 1.094 5.31 3.534 1.012 2.44 1.18 5.217.843 6.647-.285 1.21.813 4.726 1.303 5.92a128.46 128.46 0 0 0 1.563 3.588s1.011 1.514 1.011 3.618-.084 5.133.675 9.003c.758 3.87.674 4.712 0 6.647-.675 1.936-2.866 5.638-2.866 5.638s2.107 1.01 1.349 1.935c-.759.926-1.433 1.262-1.433 1.262s2.275 3.282 1.096 6.816c-1.18 3.534-1.403 6.12-1.268 9.356.135 3.237.135 6.068.135 6.068l-1.35.27s0 2.966 1.35 4.854c1.351 1.887 3.512 4.988 3.918 9.977.405 4.99 1.485 9.303 2.97 10.518 1.487 1.213 3.003 1.079 3.003 3.122 0 2.044-.394 4.401-.394 5.422v2.437l-.63.157s.158-1.179 0-2.515c-.157-1.335-.55-3.144-1.416-2.593-.866.55-2.205 3.065-2.834 4.243-.63 1.18-1.89 2.28-4.409 1.572-2.519-.707-3.385-2.357-2.047-2.75 1.339-.393 2.992.235 3.307-1.179.315-1.414.866-5.03.315-6.916-.551-1.885-2.52-7.78-3.307-9.98-.787-2.2-1.89-4.793-1.89-4.793s.08 3.458-.629 5.108c-.708 1.65-3.149 8.015-3.621 9.351-.472 1.337.394 2.2 1.102 2.908.709.707.315 2.436-.236 3.772-.551 1.336-.787 2.986-.787 3.693v2.2H27.54s.315-1.65.315-2.986c0-1.336.236-2.278-.236-2.514-.472-.236-2.598 1.65-3.464 2.986-.866 1.336-1.024 3.222-3.857 2.514-2.834-.707-4.723-2.2-4.015-3.064.708-.865 2.125-.157 2.991-.629.866-.471 2.52-4.637 3.543-7.15 1.023-2.515 2.204-7.702 2.519-10.767.315-3.064.787-5.422.866-6.444.079-1.02.079-2.907.079-2.907s-.945-3.536-1.26-5.03c-.315-1.493-.315-2.592-.315-2.592s-1.653.314-1.653-.708.551-5.344.393-7.387c-.157-2.043-.865-1.885-.865-1.885s-.158 1.1-.158 1.964c0 .864-.63.629-.866 0s-1.102 0-1.102-.629c0-.628-.393-1.965-.236-2.986.158-1.021.866-2.907.866-2.907L14 131.553l.936-14.352 6.611.087s.348-4.515.348-6.686c0-2.17-.261-5.036 1.218-7.467 1.479-2.432 3.392-4.429 4.61-5.992 1.218-1.563 1.392-1.65 1.044-3.038-.348-1.39-.348-3.126-1.218-3.04-.87.087-1.653 0-2.087-1.128-.436-1.13-1.48-3.213-1.566-4.69-.088-1.476.25-1.69.038-2.157-.212-.467.085-1.907.128-3.093.042-1.187 1.57-3.99 4.369-3.997"/>
            <path fill="#FFF" d="M35.18 90.009c.116.4.238.783.352 1.124-3.4-.167-5.266 2.41-6.67 4.345.525-.855.458-2.177.429-2.82.827-.82 2.06-1.654 3.163-2.103.942-.382 2.01-.526 2.726-.546"/>
            <path fill="#7F8FB2" d="M55.585 86.837c2.049 0 4.38 1.48 4.662 3.597.283 2.115.142 5.077.142 5.077s.706 1.41.141 2.538-1.907.917-1.907.917-.353 1.763-.353 2.75c0 .987.07 1.622.848 2.256.776.635 3.672 1.834 5.933 2.54l.733.222v40.489a.689.689 0 0 1-.125.01c-.688 0-.946.087-.946.087s.258 1.03.258 1.975c0 .944-.086 1.89-.086 1.89l.899-.135v22.195a2.018 2.018 0 0 0-.196-.01c-1.054 0-1.581.065-1.581.065s.288 5.411.288 7.547c0 2.135-.188 5.526-1.132 7.097-.944 1.57-1.07 2.072-1.07 3.455 0 1.381 2.014 5.086 1.95 6.342-.063 1.257-.377 3.204-2.453 3.14-2.077-.062-3.65-.879-3.65-2.574 0-1.696.253-2.764-.44-3.392-.692-.628.377-2.135-.818-3.768-1.195-1.633.126-1.821-.188-3.329-.316-1.507.25-6.092.377-7.913.126-1.822-.189-3.957-1.133-11.745-.944-7.788-1.51-11.18-1.761-12.875-.252-1.696-.692-3.831-.692-3.831s-1.196 7.285-2.203 9.107c-1.006 1.82-2.076 10.865-2.39 13.503-.315 2.637-.126 10.426-.755 11.242-.63.817-.945 1.947-.945 1.947s1.637.941 1.637 2.26c0 1.32-1.196 2.387-1.133 4.083.063 1.696-.126 3.14-.818 3.517-.692.377-.566 3.266-1.447 4.271-.88 1.005-2.328 1.822-4.09 1.319-1.761-.502-1.761-2.826-.88-5.025.88-2.197 1.95-3.705 1.635-4.584-.315-.88-.629-2.198.252-3.078.88-.879-.063-1.821-.629-2.575-.566-.753-.44-4.27-.503-6.155-.063-1.884.188-11.305.062-14.759-.125-3.455-.44-13.817.063-16.706.504-2.89.063-5.024.063-5.024s-1.132.564-1.132-.504c0-1.067.44-1.255-.063-3.14-.504-1.884-.63-3.642-1.196-5.087-.566-1.445-.692-3.894 0-4.648.692-.753-.314-4.898.315-8.039.63-3.14 1.07-8.164 1.132-10.865.064-2.701.19-4.648 3.713-5.527 3.523-.88 6.103-1.884 6.606-2.638.503-.754.692-2.7.566-3.58-.125-.879-.189-1.57-.189-2.072 0-.503-1.006.25-1.258-.691-.251-.942-.406-2.978-.231-3.147.174-.168.33-.146.546-.12a31.21 31.21 0 0 1 .013-4.285c.14-1.867 2.064-3.488 5.56-3.617zm10.199 19.897c1.899.576 3.301 1.078 3.364 3.585.07 2.82.343 8.354.74 12.05.397 3.697 1.497 11.608 1.563 14.106.065 2.5.33 7.825.263 8.417-.066.592-.527.527-.33 1.513.199.986.198 1.907-.329 2.564-.526.658-.263 1.513-.263 1.513l4.61-.197-.328 18.215-7.247 5.59s-1.044-.753-2.043-.845V151.05l.822-.123s-.173-1.289.086-2.148c.258-.858.172-1.63 0-2.576 0 0-.303.907-.908 1.02v-40.489z"/>
            <path fill="#E60D64" d="M40.705 143.113s-.931-1.488 0-2.697c.932-1.208 3.074-.278 3.074-.278s-1.49 0-2.329.65c-.838.65-.558 1.116-.745 2.325M66.692 145.902s0-1.58 2.142-1.58c2.143 0 2.515 1.673 2.515 1.673s-1.152-.869-2.579-.826c-1.426.042-1.447.064-2.078.733"/>
            <path fill="#EEE" d="M58.367 102.855c.082.319.227.601.488.875-.43 2.326-1.409 9.254-1.784 14.379-.43 5.858.644 17.146.644 17.146s-.787.143-3.436.143c-2.648 0-7.873-1.643-7.873-1.643s.86-1.572 1.575-3.644c.716-2.072 2.004-11.074 2.362-18.647.181-3.838.197-5.766-.027-6.839.115-.095.203-.187.263-.276.167-.25.299-.631.397-1.062.813 1.625 2.769 3.176 3.948 3.176 1.155 0 2.728-2.278 3.443-3.608"/>
            <path fill="#7F8FB2" d="M52.132 108.25s.93-1.43 2.505-1.43c1.575 0 2.577 1.43 2.577 1.43s-1.718-.358-1.646.785c.072 1.143.644 7.145.644 11.074 0 3.93.286 14.146-.143 16.075-.43 1.929-1.79 2.643-2.076.143-.286-2.5-.214-15.932-.143-18.504.072-2.572.501-8.001.215-8.716-.286-.715-1.074-1.287-1.933-.858"/>
        </g>
    </g>
</svg>
