<svg xmlns="http://www.w3.org/2000/svg" width="312" height="296" viewBox="0 0 312 296">
    <g fill="none" fill-rule="evenodd">
        <path fill="#F4F3F3" d="M265.955 276.397c0 10.826-59.536 19.603-132.978 19.603C59.536 296 0 287.223 0 276.397c0-10.826 59.536-19.602 132.977-19.602 73.442 0 132.978 8.776 132.978 19.602z"/>
        <path fill="#5B6887" d="M59.142 154.357h151.523c3.097 0 5.631 2.542 5.631 5.65v96.056c0 3.108-2.534 5.65-5.631 5.65H59.142c-3.098 0-5.631-2.542-5.631-5.65v-96.056c0-3.108 2.533-5.65 5.63-5.65"/>
        <path fill="#F4F4F4" d="M61.956 165.566H207.85v78.593l-145.893 5.217z"/>
        <path fill="#FFF" d="M134.903 162.216c1.13 0 2.048-.92 2.048-2.054a2.05 2.05 0 0 0-2.048-2.055 2.05 2.05 0 0 0-2.047 2.055 2.05 2.05 0 0 0 2.047 2.054M134.903 258.914a3.333 3.333 0 0 0 3.326-3.339 3.332 3.332 0 0 0-3.326-3.338 3.331 3.331 0 0 0-3.327 3.338 3.331 3.331 0 0 0 3.327 3.339"/>
        <path fill="#DBDBDB" d="M53.51 261.714h162.786l28.273 12.07H25.238z"/>
        <path fill="#C7C7C7" d="M25.238 273.783h219.331v3.17c0 2.244-1.832 4.082-4.07 4.082H29.307c-2.237 0-4.07-1.837-4.07-4.083v-3.169z"/>
        <path fill="#A5A5A5" d="M112.751 278.85h44.304v-2.834H112.75z"/>
        <path fill="#FFF" d="M61.956 249.376H207.85v-83.81z"/>
        <path fill="#D5E6F5" d="M292.935 92.91l-18.08 18.819 21.397 16.076.194 2.054-23.693-15.941-6.115 6.364-7.205-5.09-20.262 20.148-.196-2.053 17.981-19.845-21.297-15.05-.195-2.053 30.59 17.785 26.686-23.266.195 2.052zm-59.713 1.573l4.096 43.105 61.37-5.874-4.099-43.104-61.367 5.873z"/>
        <path fill="#FFF" d="M292.935 92.91l-18.08 18.819 21.397 16.076.194 2.054-23.693-15.941-6.115 6.364-7.205-5.09-20.262 20.148-.196-2.053 17.981-19.845-21.297-15.05-.195-2.053 30.59 17.785 26.686-23.266z"/>
        <path fill="#CB1663" d="M201.866 152.527l-2.543 12.866 13.379.961.637.813-14.312-.278-.86 4.352-4.418-.187-3.106 14.022-.637-.813 2.225-13.273-13.061-.555-.637-.813 17.722-.821 4.973-17.088.638.814zm-24.782 16.921l13.386 17.081 24.318-19.188L201.4 150.26l-24.317 19.188z"/>
        <path fill="#FFF" d="M201.866 152.527l-2.543 12.866 13.379.961.637.813-14.312-.278-.86 4.352-4.418-.187-3.106 14.022-.637-.813 2.225-13.273-13.061-.555-.637-.813 17.722-.821 4.973-17.088z"/>
        <path fill="#CB1663" d="M296.42 86.497l-14.602 1.555 3.437 14.722-.657.957-4.478-15.498-4.94.526-1.273-4.817-16.025 1.336.657-.958 14.93-2.034-3.765-14.242.657-.958 6.79 18.801 19.926-.348-.657.958zM270.063 65.47l-13.792 20.106 28.625 19.771 13.792-20.106-28.625-19.771z"/>
        <path fill="#FFF" d="M296.42 86.497l-14.602 1.555 3.437 14.722-.657.957-4.478-15.498-4.94.526-1.273-4.817-16.025 1.336.657-.958 14.93-2.034-3.765-14.242.657-.958 6.79 18.801 19.926-.348z"/>
        <path fill="#D5E6F5" d="M181.833 38.383l-8.16 19.61 20.937 5.842.752 1.497-22.637-5.058-2.76 6.634-6.956-1.723-9.423 21.264-.751-1.497 7.783-20.36-20.56-5.092-.752-1.497 28.404 4.413 13.372-25.53.751 1.497zM137.062 57.26l15.784 31.44 44.76-22.625-15.784-31.44-44.76 22.625z"/>
        <path fill="#FFF" d="M181.833 38.383l-8.16 19.61 20.937 5.842.752 1.497-22.637-5.058-2.76 6.634-6.956-1.723-9.423 21.264-.751-1.497 7.783-20.36-20.56-5.092-.752-1.497 28.404 4.413 13.372-25.53z"/>
        <path fill="#E3E3E3" d="M179.474 130.191l-8.346 7.18 8.346 7.613v.87l-9.317-7.65-2.823 2.429-2.823-2.428-9.317 7.649v-.87l8.346-7.614-8.346-7.179v-.87l12.14 8.701 12.14-8.7v.87zm-25.147 16.533h26.014v-18.273h-26.014v18.273z"/>
        <path fill="#FFF" d="M179.474 130.191l-8.346 7.18 8.346 7.613v.87l-9.317-7.65-2.823 2.429-2.823-2.428-9.317 7.649v-.87l8.346-7.614-8.346-7.179v-.87l12.14 8.701 12.14-8.7z"/>
        <path fill="#3F99EA" d="M147.044 206.674l-8.347 7.178 8.347 7.614v.87l-9.317-7.649-2.823 2.428-2.824-2.428-9.316 7.65v-.871l8.345-7.614-8.345-7.178v-.87l12.14 8.7 12.14-8.7v.87zm-25.148 16.532h26.014v-18.273h-26.014v18.273z"/>
        <path fill="#FFF" d="M147.044 206.674l-8.347 7.178 8.347 7.614v.87l-9.317-7.649-2.823 2.428-2.824-2.428-9.316 7.65v-.871l8.345-7.614-8.345-7.178v-.87l12.14 8.7 12.14-8.7z"/>
        <path fill="#3F99EA" d="M269.711 148.085l-27.143-3.156.253 28.133-1.583 1.47-1.826-29.97-9.182-1.067-.353-9.268-29.636-4.14 1.581-1.468 27.934 2.42-1.043-27.398 1.583-1.47 4.68 36.916 36.317 7.528-1.582 1.47zm-39.298-48.97l-33.219 30.855 43.927 47.618 33.218-30.854-43.926-47.619z"/>
        <path fill="#FFF" d="M269.711 148.085l-27.143-3.156.253 28.133-1.583 1.47-1.826-29.97-9.182-1.067-.353-9.268-29.636-4.14 1.581-1.468 27.934 2.42-1.043-27.398 1.583-1.47 4.68 36.916 36.317 7.528z"/>
        <path fill="#3F99EA" d="M255.854 28.932L244.27 50.248l23.101 9.12.678 1.792-25.126-8.434-3.918 7.21-7.7-2.783-13.214 23.044-.678-1.79 11.245-22.21-22.763-8.228-.678-1.79 31.755 8.385 18.203-27.422.678 1.79zM202.756 45.07l14.229 37.598 53.527-20.397-14.228-37.598-53.528 20.397z"/>
        <path fill="#FFF" d="M255.854 28.932L244.27 50.248l23.101 9.12.678 1.792-25.126-8.434-3.918 7.21-7.7-2.783-13.214 23.044-.678-1.79 11.245-22.21-22.763-8.228-.678-1.79 31.755 8.385 18.203-27.422z"/>
        <path fill="#CDCDCD" d="M189.34 103.103l-8.963-1.65-.533 9.369-.558.454.049-10.014-3.032-.558.085-3.092-9.772-2.031.559-.454 9.242 1.422.254-9.141.558-.454.75 12.388 11.92 3.307-.558.454zm-12.004-17.164l-11.73 9.535 13.574 16.817 11.73-9.535-13.574-16.817z"/>
        <path fill="#FFF" d="M189.34 103.103l-8.963-1.65-.533 9.369-.558.454.049-10.014-3.032-.558.085-3.092-9.772-2.031.559-.454 9.242 1.422.254-9.141.558-.454.75 12.388 11.92 3.307z"/>
        <path fill="#B2BFCC" d="M222.431 20.549l-11.39-1.074.359 11.775-.65.63-1.035-12.53-3.853-.364-.232-3.876-12.444-1.463.65-.63 11.715.76-.684-11.46.649-.63 2.293 15.411 15.271 2.821-.649.63zM205.537.406l-13.627 13.22 18.82 19.534 13.626-13.219L205.537.406z"/>
        <path fill="#FFF" d="M222.431 20.549l-11.39-1.074.359 11.775-.65.63-1.035-12.53-3.853-.364-.232-3.876-12.444-1.463.65-.63 11.715.76-.684-11.46.649-.63 2.293 15.411 15.271 2.821z"/>
        <path fill="#D5E6F5" d="M288.803 171.032l-16.534-1.56.522 17.091-.942.914-1.503-18.185-5.592-.528-.336-5.626-18.061-2.123.942-.914 17.003 1.102-.992-16.633.941-.914 3.33 22.367 22.163 4.095-.941.914zm-24.52-29.235l-19.779 19.186 27.314 28.352 19.779-19.186-27.315-28.352z"/>
        <path fill="#FFF" d="M288.803 171.032l-16.534-1.56.522 17.091-.942.914-1.503-18.185-5.592-.528-.336-5.626-18.061-2.123.942-.914 17.003 1.102-.992-16.633.941-.914 3.33 22.367 22.163 4.095z"/>
        <path fill="#B2BFCC" d="M127.462 214.4l-11.36 5.958 7.493 10.848-.228.99-8.586-11.144-3.842 2.015-2.573-3.501-12.585 6.238.228-.989 11.472-6.454-7.605-10.353.227-.988 11.519 13.081 16.067-6.69-.227.988zm-28.117-8.597l-4.777 20.76 29.557 6.848 4.777-20.76-29.557-6.848z"/>
        <path fill="#FFF" d="M127.462 214.4l-11.36 5.958 7.493 10.848-.228.99-8.586-11.144-3.842 2.015-2.573-3.501-12.585 6.238.228-.989 11.472-6.454-7.605-10.353.227-.988 11.519 13.081 16.067-6.69z"/>
        <path fill="#B2BFCC" d="M194.932 193.023l-12.234 3.84 5.453 12.01-.4.932-6.476-12.496-4.138 1.298-1.912-3.904-13.489 3.895.4-.932 12.431-4.306-5.651-11.544.398-.932 9.02 14.926 16.996-3.72-.398.933zm-26.148-13.472l-8.377 19.58 27.875 12.007 8.376-19.58-27.874-12.007z"/>
        <path fill="#FFF" d="M194.932 193.023l-12.234 3.84 5.453 12.01-.4.932-6.476-12.496-4.138 1.298-1.912-3.904-13.489 3.895.4-.932 12.431-4.306-5.651-11.544.398-.932 9.02 14.926 16.996-3.72z"/>
        <path fill="#7F8FB2" d="M241.223 86.289l-14.287 12.288 14.287 13.032v1.49l-15.948-13.093-4.832 4.156-4.833-4.156-15.947 13.093v-1.49l14.286-13.032-14.286-12.288v-1.49l20.78 14.894 20.78-14.894v1.49zm-43.045 28.299h44.53V83.31h-44.53v31.278z"/>
        <path fill="#FFF" d="M241.223 86.289l-14.287 12.288 14.287 13.032v1.49l-15.948-13.093-4.832 4.156-4.833-4.156-15.947 13.093v-1.49l14.286-13.032-14.286-12.288v-1.49l20.78 14.894 20.78-14.894z"/>
        <path fill="#7F8FB2" d="M247.96 194.104l-13.8 6.859 8.716 13.226-.3 1.181-10.02-13.61-4.668 2.32-2.999-4.274-15.279 7.162.299-1.182 13.949-7.45-8.865-12.635.3-1.181 13.492 16.016 19.474-7.613-.299 1.18zm-33.546-11.066l-6.28 24.811 35.321 9.003 6.28-24.81-35.321-9.004z"/>
        <path fill="#FFF" d="M247.96 194.104l-13.8 6.859 8.716 13.226-.3 1.181-10.02-13.61-4.668 2.32-2.999-4.274-15.279 7.162.299-1.182 13.949-7.45-8.865-12.635.3-1.181 13.492 16.016 19.474-7.613z"/>
        <path fill="#7F8FB2" d="M154.69 178.201l-3.872 13.2 13.886 2.276.589.91-14.925-1.651-1.31 4.464-4.597-.616-4.569 14.354-.589-.91 3.577-13.655-13.591-1.821-.59-.91 18.592.827 6.81-17.378.589.91zm-27.486 15.322l12.37 19.116 27.215-17.733-12.37-19.116-27.215 17.733z"/>
        <path fill="#FFF" d="M154.69 178.201l-3.872 13.2 13.886 2.276.589.91-14.925-1.651-1.31 4.464-4.597-.616-4.569 14.354-.589-.91 3.577-13.655-13.591-1.821-.59-.91 18.592.827 6.81-17.378z"/>
        <path fill="#7F8FB2" d="M303.543 53.202l-9.928-2.46-1.232 10.456-.656.47.734-11.212-3.357-.831.306-3.458-10.806-2.942.657-.47 10.254 2.224.904-10.22.657-.47-.002 13.924 13.125 4.519-.656.47zm-12.28-20.042l-13.784 9.876 14.06 19.76 13.785-9.876-14.06-19.76z"/>
        <path fill="#FFF" d="M303.543 53.202l-9.928-2.46-1.232 10.456-.656.47.734-11.212-3.357-.831.306-3.458-10.806-2.942.657-.47 10.254 2.224.904-10.22.657-.47-.002 13.924 13.125 4.519z"/>
        <path fill="#D82534" d="M294.274 154.286l-4.406-5.205-4.72 5.164-.537-.002 4.745-5.767-1.49-1.76 1.505-1.748-4.694-5.808.538.002 4.674 5.206 4.452-5.166.536.003-5.401 7.518 5.335 7.565-.537-.002zm1.143-15.617l-11.274-.05-.071 16.16 11.273.05.072-16.16z"/>
        <path fill="#FFF" d="M294.274 154.286l-4.406-5.205-4.72 5.164-.537-.002 4.745-5.767-1.49-1.76 1.505-1.748-4.694-5.808.538.002 4.674 5.206 4.452-5.166.536.003-5.401 7.518 5.335 7.565z"/>
        <path fill="#CDCDCD" d="M133.156 139.16a4.262 4.262 0 0 1-4.254 4.269 4.262 4.262 0 0 1-4.255-4.27 4.262 4.262 0 0 1 4.255-4.268 4.262 4.262 0 0 1 4.254 4.269"/>
        <path fill="#CB1663" d="M311.775 145.854a3.76 3.76 0 0 1-3.753 3.766 3.76 3.76 0 0 1-3.753-3.766 3.76 3.76 0 0 1 3.753-3.766 3.76 3.76 0 0 1 3.753 3.766"/>
        <path fill="#CDCDCD" d="M288.326 216.852a4.262 4.262 0 0 1-4.254 4.27 4.262 4.262 0 0 1-4.255-4.27 4.262 4.262 0 0 1 4.255-4.27 4.262 4.262 0 0 1 4.254 4.27"/>
        <path fill="#2A7FCB" d="M278.594 24.672a4.262 4.262 0 0 1-4.255 4.269 4.262 4.262 0 0 1-4.254-4.27 4.262 4.262 0 0 1 4.254-4.269 4.262 4.262 0 0 1 4.255 4.27"/>
        <path fill="#CB1663" d="M237.477 9.322a4.262 4.262 0 0 1-4.255 4.27 4.262 4.262 0 0 1-4.254-4.27 4.262 4.262 0 0 1 4.254-4.27 4.262 4.262 0 0 1 4.255 4.27"/>
        <path fill="#D82534" d="M309.578 95.127a4.262 4.262 0 0 1-4.254 4.27 4.262 4.262 0 0 1-4.255-4.27 4.262 4.262 0 0 1 4.255-4.27 4.262 4.262 0 0 1 4.254 4.27"/>
        <path fill="#CB1663" d="M300.7 207.02a4.262 4.262 0 0 1-4.254 4.27 4.262 4.262 0 0 1-4.254-4.27 4.262 4.262 0 0 1 4.254-4.27 4.262 4.262 0 0 1 4.255 4.27M142.484 129.321a4.262 4.262 0 0 1-4.255 4.27 4.262 4.262 0 0 1-4.254-4.27 4.262 4.262 0 0 1 4.254-4.27 4.262 4.262 0 0 1 4.255 4.27"/>
        <path fill="#E3E3E3" d="M143.704 109.523a2.742 2.742 0 0 1-2.737 2.746 2.742 2.742 0 0 1-2.738-2.746 2.742 2.742 0 0 1 2.738-2.747 2.742 2.742 0 0 1 2.737 2.747M190.91 80.196a2.742 2.742 0 0 1-2.737 2.747 2.742 2.742 0 0 1-2.737-2.747 2.743 2.743 0 0 1 2.737-2.746 2.742 2.742 0 0 1 2.737 2.746"/>
        <path fill="#018C8B" d="M306.936 65.47a2.742 2.742 0 0 1-2.737 2.746 2.742 2.742 0 0 1-2.737-2.747 2.743 2.743 0 0 1 2.737-2.746 2.742 2.742 0 0 1 2.737 2.746"/>
        <path fill="#3F99EA" d="M280.217 202.75a2.742 2.742 0 0 1-2.737 2.748 2.743 2.743 0 0 1-2.738-2.747 2.743 2.743 0 0 1 2.738-2.747 2.742 2.742 0 0 1 2.737 2.747"/>
        <path fill="#CB1663" d="M229.83 225.953a2.742 2.742 0 0 1-2.736 2.747 2.743 2.743 0 0 1-2.738-2.747 2.743 2.743 0 0 1 2.738-2.747 2.742 2.742 0 0 1 2.737 2.747"/>
        <path fill="#3F99EA" d="M140.967 146.724a2.742 2.742 0 0 1-2.737 2.747 2.743 2.743 0 0 1-2.738-2.747 2.743 2.743 0 0 1 2.738-2.747 2.742 2.742 0 0 1 2.737 2.747"/>
        <path fill="#F05E22" d="M190.041 119.297c0 .602-.486 1.09-1.086 1.09-.6 0-1.086-.488-1.086-1.09 0-.602.486-1.09 1.086-1.09.6 0 1.086.488 1.086 1.09M293.278 198.915c0 .601-.486 1.09-1.086 1.09-.6 0-1.086-.489-1.086-1.09 0-.602.486-1.09 1.086-1.09.6 0 1.086.488 1.086 1.09M308.022 172.502c0 .601-.486 1.09-1.086 1.09-.6 0-1.086-.489-1.086-1.09 0-.602.486-1.09 1.086-1.09.6 0 1.086.488 1.086 1.09M269.136 193.38c0 .602-.486 1.09-1.086 1.09-.6 0-1.085-.488-1.085-1.09 0-.6.486-1.089 1.085-1.089.6 0 1.086.488 1.086 1.09M301.787 161.78c0 .602-.486 1.09-1.086 1.09-.6 0-1.086-.488-1.086-1.09 0-.6.486-1.09 1.086-1.09.6 0 1.086.49 1.086 1.09M299.774 73.698c0 .602-.487 1.09-1.086 1.09-.6 0-1.086-.488-1.086-1.09 0-.601.486-1.09 1.086-1.09.6 0 1.086.489 1.086 1.09M277.48 33.16c0 .601-.487 1.09-1.087 1.09s-1.086-.489-1.086-1.09c0-.601.487-1.09 1.086-1.09.6 0 1.086.489 1.086 1.09M195.359 84.8c0 .6-.487 1.089-1.086 1.089-.6 0-1.086-.488-1.086-1.09 0-.601.486-1.09 1.086-1.09.6 0 1.086.489 1.086 1.09M133.942 121.476c0 .601-.486 1.09-1.086 1.09-.6 0-1.086-.489-1.086-1.09 0-.601.486-1.09 1.086-1.09.6 0 1.086.489 1.086 1.09M129.988 102.171c0 .602-.487 1.09-1.086 1.09-.6 0-1.086-.488-1.086-1.09 0-.6.486-1.09 1.086-1.09.6 0 1.086.49 1.086 1.09M139.315 83.71c0 .601-.486 1.09-1.086 1.09-.6 0-1.085-.489-1.085-1.09 0-.602.486-1.09 1.085-1.09.6 0 1.086.488 1.086 1.09"/>
        <path fill="#D82534" d="M173.496 27.142c0 .601-.486 1.09-1.086 1.09-.6 0-1.086-.489-1.086-1.09 0-.602.487-1.09 1.086-1.09.6 0 1.086.488 1.086 1.09"/>
        <path fill="#F1CB14" d="M179.344 19.313c0 .601-.486 1.09-1.086 1.09-.6 0-1.086-.489-1.086-1.09 0-.601.486-1.09 1.086-1.09.6 0 1.086.489 1.086 1.09"/>
        <path fill="#018C8B" d="M125.853 128.451c0 .668-.54 1.21-1.206 1.21a1.208 1.208 0 0 1-1.206-1.21c0-.668.54-1.21 1.206-1.21.666 0 1.206.542 1.206 1.21"/>
    </g>
</svg>
