<svg xmlns="http://www.w3.org/2000/svg" xmlns:xlink="http://www.w3.org/1999/xlink" width="271" height="271" viewBox="0 0 271 271">
    <defs>
        <circle id="a" cx="127.5" cy="127.5" r="127.5"/>
        <filter id="b" width="110.2%" height="110.2%" x="-5.1%" y="-4.3%" filterUnits="objectBoundingBox">
            <feOffset dy="2" in="SourceAlpha" result="shadowOffsetOuter1"/>
            <feGaussianBlur in="shadowOffsetOuter1" result="shadowBlurOuter1" stdDeviation="4"/>
            <feColorMatrix in="shadowBlurOuter1" values="0 0 0 0 0 0 0 0 0 0 0 0 0 0 0 0 0 0 0.124830163 0"/>
        </filter>
        <path id="d" d="M17.343.285V19.2H.045V.285h17.298z"/>
        <path id="f" d="M0 391.41h222.808V0H0z"/>
    </defs>
    <g fill="none" fill-rule="evenodd" transform="translate(8 6)">
        <mask id="c" fill="#fff">
            <use xlink:href="#a"/>
        </mask>
        <use fill="#000" filter="url(#b)" xlink:href="#a"/>
        <use fill="#FFF" xlink:href="#a"/>
        <g mask="url(#c)">
            <g transform="translate(29 19)">
                <g transform="translate(205.465 77.55)">
                    <mask id="e" fill="#fff">
                        <use xlink:href="#d"/>
                    </mask>
                    <path fill="#F3DBBD" d="M16.315.746c1.137.743 1.359 2.134.528 3.103L4.683 18.336c-.83.973-2.47 1.145-3.607.403-1.139-.744-1.363-2.131-.53-3.108L12.708 1.147C13.54.174 15.176.003 16.315.746" mask="url(#e)"/>
                </g>
                <path fill="#E5CFB3" d="M192.33 110.309l8.295 6.699 8.225-5.784c4.378-3.076 8.357-14.923 10.27-20.101l-7.415-2.834-15.304 9.646-4.071 12.374z"/>
                <path fill="#F3DBBD" d="M196.666 100.994l1.195 1.375 1.323-1.425 10.639-11.42c1.196-1.285 1.348-2.526.99-3.676-.305-.977-1.637-2.835-2.202-2.225l-12.05 12.992c-1.054 1.133-1.008 3.104.105 4.379"/>
                <path fill="#FFE7D4" d="M209.246 83.519c-.232-.262-.418-.124-.513-.025l-2.397 2.628c1.182 1.034 2.555-.132 3.221-1.546.096-.204-.018-.723-.31-1.057"/>
                <path fill="#F3DBBD" d="M213.42 102.867c.687.95.444 2.143-.53 2.66l-3.31 1.756c-.974.516-2.337.158-3.024-.789-.686-.944-.446-2.143.53-2.658l3.312-1.755c.974-.519 2.337-.163 3.023.786M216.2 96.26c.796 1.105.516 2.493-.616 3.092l-3.274 1.736c-1.132.602-2.716.187-3.513-.916-.797-1.1-.518-2.487.615-3.087l3.274-1.736c1.136-.6 2.716-.19 3.514.911"/>
                <path fill="#FFE7D4" d="M212.75 98.04c.632.873.41 1.98-.488 2.454l-.339.18c-.9.473-2.158.148-2.79-.727-.634-.876-.412-1.979.489-2.458l.336-.177c.902-.477 2.16-.147 2.792.728M210.261 104.465c.582.803.38 1.818-.448 2.251l-.311.167c-.826.435-1.984.135-2.564-.665-.583-.805-.38-1.82.449-2.257l.312-.164c.827-.44 1.983-.136 2.562.668"/>
                <path fill="#F3DBBD" d="M218.784 89.206c.795 1.102.515 2.49-.616 3.09l-3.275 1.735c-1.133.602-2.716.189-3.511-.914-.797-1.103-.519-2.489.616-3.09l3.275-1.736c1.133-.6 2.713-.188 3.511.915"/>
                <path fill="#FFE7D4" d="M215.333 90.983c.634.876.411 1.981-.488 2.455l-.338.181c-.901.473-2.157.149-2.791-.729-.634-.876-.413-1.978.488-2.455l.339-.178c.902-.476 2.158-.149 2.79.726"/>
                <path fill="#F3DBBD" d="M192.33 110.309l5.903 4.765c3.768-4.235 9.03-13.053 4.064-17.738a11.349 11.349 0 0 0-1.919-1.907l-3.977 2.506-4.071 12.374z"/>
                <path fill="#F2CAA9" d="M19.322 200.882l12.292 5.767 8.055-17.157-12.294-5.766z"/>
                <path fill="#F3DBBD" d="M36.695 192.499l-12.432-2.752-2.16 9.767-6.206 9.643c5.198 2.3 14.626-.387 13.95 7.323l6.848-23.981z"/>
                <path fill="#F3DBBD" d="M13.951 212.89l8.268-18.397c.685-1.41 2.418-1.97 3.818-1.27.132.07.258.146.372.224l.736-1.516c.718-1.468 2.532-2.058 3.998-1.322a2.968 2.968 0 0 1 1.63 2.602 3.214 3.214 0 0 1 2.04.284c1.579.797 2.207 2.727 1.433 4.32l-10.643 19.237-2.994 8.77c-.775 1.587-2.737 2.227-4.317 1.427-1.51-.758-1.425-3.31-.81-4.855-.098-1.287-5.303-5.86-3.53-9.503"/>
                <path fill="#F3DBBD" d="M18.806 237.668c-1.202-.203-2.002-1.348-1.813-2.554l3.68-18.705-.066-.179 4.141 2.76-3.387 16.87c-.189 1.2-1.353 2.014-2.555 1.808M31.399 225.054c-1.303-.14-2.239-1.318-2.117-2.623l.685-7.21c.084-2.737-2.133-2.195-3.727.684l-3.874-15.411 7.622-5.065 3.032 6.501c2.127.475 2.616 4.073 2.445 5.868l-1.438 15.135c-.124 1.31-1.322 2.258-2.628 2.121"/>
                <path fill="#F3DBBD" d="M19.095 233.916c-1.21.142-2.3-.732-2.46-1.938l-1.77-18.982-.114-.154 4.755 1.478 1.527 17.133c.16 1.209-.726 2.319-1.938 2.463"/>
                <path fill="#F3DBBD" d="M22.445 234.153c-1.134.448-2.413-.12-2.875-1.247l-5.833-16.871 4.99 2.655 4.966 12.594c.46 1.121-.115 2.418-1.248 2.869"/>
                <path fill="#FFF" d="M15.092 203.238l21.718 5.177 1.234-4.999-21.72-5.174z"/>
                <path fill="#2A7FCB" d="M63.837 100.349L49.552 83.961c-6.835 4.868-10.798 15.828-11.81 20.084L15.11 199.112c-.003.016.011.046.034.048l23.822 5.68c.022 0 .043-.007.05-.025L63.87 100.398c.004-.02-.022-.036-.033-.049"/>
                <path fill="#231F1F" d="M62.784 198.413h20.343c2.799 0 5.087 2.289 5.087 5.084v150.618a5.1 5.1 0 0 1-5.087 5.087H62.784c-2.8 0-5.09-2.287-5.09-5.087V203.497c0-2.795 2.29-5.084 5.09-5.084M97.86 198.413h20.343c2.799 0 5.087 2.289 5.087 5.084v150.618a5.1 5.1 0 0 1-5.087 5.087H97.859a5.1 5.1 0 0 1-5.085-5.087V203.497c0-2.795 2.288-5.084 5.085-5.084"/>
                <path fill="#2A7FCB" d="M123.333 112.12l8.736-28.019c.007-.018 33.593 35.852 37.863 40.163l20.668-20.466c.016-.012.045-.012.06.002l17.252 17.384c.013.01.013.039 0 .053l-31.592 31.289c-5.96 5.896-11.3 1.696-13.68-.717-13.063-13.243-26.203-26.421-39.307-39.63-.013-.016-.003-.041 0-.058"/>
                <path fill="#2A7FCB" d="M126.512 212.385c-23.917 6.65-47.837 7.002-71.754 0l-3.87-83.944c-.956-20.855 3.056-20.288-1.337-44.48 9.987-7.09 24.314-12.689 30.386-17.636 3.303 2.907 6.934 4.628 10.677 4.628 3.743 0 7.375-1.721 10.675-4.628 6.13 4.996 20.806 10.58 30.782 17.777-5.676 23.607-.668 23.705-1.686 45.529l-3.873 82.754z"/>
                <path fill="#FFF" d="M69.824 72.992l2.32 21.413 18.603 47.224 18.338-47.224 2.322-21.413-8.874-5.705H78.698z"/>
                <mask id="g" fill="#fff">
                    <use xlink:href="#f"/>
                </mask>
                <path fill="#E5CFB3" d="M78.698 78.869h23.626V59.62H78.698z" mask="url(#g)"/>
                <path fill="#F3DBBD" d="M90.614 70.953c9.311 0 17.932-10.648 22.478-23.69.264.273.565.446.897.501 1.85.309 3.976-3.173 4.74-7.774.764-4.602-.119-8.58-1.97-8.887a1.352 1.352 0 0 0-.397-.008C117.272 14.932 110.57 0 90.614 0 70.645 0 63.949 14.952 64.869 31.132a1.434 1.434 0 0 0-.602-.029c-1.855.308-2.737 4.285-1.974 8.887.765 4.601 2.888 8.083 4.74 7.774.394-.064.743-.298 1.043-.667 4.532 13.12 13.187 23.856 22.538 23.856" mask="url(#g)"/>
                <path fill="#455D6C" d="M116.366 31.095c.906-16.163-5.797-31.096-25.752-31.096-19.969 0-26.667 14.952-25.746 31.134 1.614.4 3.298 3.358 4.041 7.207 1.301.877 2.243.366 2.243-2.894 0-9.616 1.19-18.143 7.508-20.174 6.011-1.936 7.332 2.31 11.92 2.31 4.587 0 6.034-3.997 11.921-2.31 6.11 1.751 7.506 10.558 7.506 20.174 0 3.128.867 3.726 2.09 2.994.76-4.065 2.576-7.159 4.269-7.345" mask="url(#g)"/>
                <path fill="#CB1663" d="M93.697 90.772l1.296-2.74-4.38-10.61-4.303 10.44 1.376 2.91z" mask="url(#g)"/>
                <path fill="#CCC" d="M78.698 67.287l11.916 10.137-6.687 17.895-10.789-24.346z" mask="url(#g)"/>
                <path fill="#3F99EB" d="M73.139 70.973l17.474 70.913-24.526-39.115 3.22-6.828-6.997-5.58 7.514-17.37z" mask="url(#g)"/>
                <path fill="#CCC" d="M102.532 67.287L90.614 77.424l6.692 17.895 10.786-24.346z" mask="url(#g)"/>
                <path fill="#CB1663" d="M87.685 97.422h6.012l3.124 30.133-6.207 14.33-5.972-14.33z" mask="url(#g)"/>
                <path fill="#FFF" d="M78.698 67.287l11.916 10.137-6.833 13.472-10.643-19.923z" mask="url(#g)"/>
                <path fill="#3F99EB" d="M73.139 70.973l17.474 70.913-22.142-42.234 3.673-5.246-7.084-5.509 4.764-15.905zM108.092 70.973l-17.478 70.913 24.53-39.115-3.223-6.828 7.001-5.58-7.515-17.37z" mask="url(#g)"/>
                <path fill="#3F99EB" d="M108.092 70.973l-17.478 70.913 22.144-42.234-3.672-5.246 7.085-5.509-4.764-15.905z" mask="url(#g)"/>
                <path fill="#FFF" d="M102.532 67.287L90.614 77.424l6.836 13.472 10.642-19.923z" mask="url(#g)"/>
                <path fill="#CB1663" d="M87.685 90.274h6.012c1.344 2.782 1.238 5.22 0 7.598h-6.012c-1.238-2.378-1.345-4.816 0-7.598" mask="url(#g)"/>
                <path fill="#3F99EB" d="M91.084 217.502c-2.342-23.48-2.755-54.697-.47-81.758 2.286 27.06 2.806 58.279.47 81.758" mask="url(#g)"/>
                <path fill="#162B3B" d="M65.65 189.439a3.474 3.474 0 0 1-3.401-2.796l-11.776-59.218a3.473 3.473 0 0 1 6.812-1.357l11.775 59.219a3.473 3.473 0 0 1-3.41 4.152" mask="url(#g)"/>
                <path fill="#7F8FB2" d="M131.174 391.41H32.118L25.17 220.78h112.95z" mask="url(#g)"/>
                <path fill="#7F8FB2" d="M0 243.793h161.922v-75.547H0z" mask="url(#g)"/>
                <path fill="#162B3B" d="M40.976 135.639a7.075 7.075 0 0 1-1.871-13.375l34.687-16.42a7.076 7.076 0 0 1 6.053 12.79l-34.687 16.419a7.038 7.038 0 0 1-4.182.586" mask="url(#g)"/>
                <path fill="#23485F" d="M74.353 124.604c-4.28-.715-8.137-3.483-10.056-7.735-3.054-6.768-.045-14.728 6.722-17.782l13.206-6.01c6.765-3.055 14.728-.044 17.782 6.721 3.052 6.767.043 14.728-6.724 17.782l-13.204 6.012a13.403 13.403 0 0 1-7.726 1.012" mask="url(#g)"/>
                <path fill="#FFF" d="M59.236 112.716s.01 3.632 1.58 6.86c1.569 3.228 4.464 5.934 4.464 5.934l-3.012 1.426s-2.854-2.707-4.515-5.922c-1.662-3.212-1.481-6.895-1.481-6.895l2.964-1.403z" mask="url(#g)"/>
                <path fill="#041319" d="M44.36 119.827s.011 3.632 1.58 6.86c1.571 3.228 4.466 5.934 4.466 5.934l-3.013 1.426s-2.854-2.708-4.514-5.92c-1.663-3.213-1.48-6.898-1.48-6.898l2.962-1.402z" mask="url(#g)"/>
            </g>
        </g>
    </g>
</svg>
