<svg xmlns="http://www.w3.org/2000/svg" xmlns:xlink="http://www.w3.org/1999/xlink" width="97" height="97" viewBox="0 0 97 97">
    <defs>
        <circle id="a" cx="48.5" cy="48.5" r="48.5"/>
    </defs>
    <g fill="none" fill-rule="evenodd">
        <mask id="b" fill="#fff">
            <use xlink:href="#a"/>
        </mask>
        <use fill="#F4F3F3" xlink:href="#a"/>
        <g fill="#CDCDCD" fill-rule="nonzero" mask="url(#b)">
            <path d="M48.246 62.201c-11.445 0-20.718-9.41-20.718-21.008C27.528 29.596 36.801 21 48.246 21c11.447 0 20.728 8.596 20.728 20.193 0 11.599-9.281 21.008-20.728 21.008zM16.02 103.974s-4.395.245-6.33-2.012c-1.046-1.22-.318-17.065.397-18.444l1.752-3.379s4.844-9.17 10.359-14.484c3.387-3.26 7.416-2.517 10.022-1.457 1.605.652 3.42 2.552 4.746 3.559 1.828 1.387 5.054 2.964 10.328 3.053h3.236c5.272-.09 8.498-1.666 10.324-3.053 1.325-1.007 3.09-2.966 4.68-3.64 2.391-1.013 6.032-1.636 9.33 1.538 5.517 5.314 9.886 14.651 9.886 14.651l1.795 3.313c.743 1.37 1.503 13.507.487 14.743-1.815 2.21-5.889 1.917-5.889 1.917l-65.123 3.695z"/>
        </g>
    </g>
</svg>
