<svg xmlns="http://www.w3.org/2000/svg" width="11" height="13" viewBox="0 0 11 13">
    <g fill="#FFF" fill-rule="nonzero">
        <path d="M9.166 1.494H7.472v-1.1a.394.394 0 0 0-.4-.394c-.022 0-.036.007-.043.014A.054.054 0 0 0 7 0H2.962a.388.388 0 0 0-.394.393v1.101h-1.7a.854.854 0 0 0-.866.865v1.415h.75v8.056c0 .487.372.858.859.858h6.812a.848.848 0 0 0 .865-.858V3.774h.743V2.36a.854.854 0 0 0-.865-.865zM3.355.786h3.324v.708H3.355V.786zm5.14 11.044c0 .05-.022.072-.072.072H1.61c-.05 0-.072-.021-.072-.072V3.774h6.955v8.056zm.743-8.842H.796V2.36c0-.05.021-.079.071-.079h8.3c.05 0 .07.029.07.079v.63z"/>
        <path d="M6.457 4.697h1v6.505h-1zM4.627 4.697h1v6.505h-1zM2.797 4.697h1v6.505h-1z"/>
    </g>
</svg>
