<svg xmlns="http://www.w3.org/2000/svg" xmlns:xlink="http://www.w3.org/1999/xlink" width="290" height="262" viewBox="0 0 290 262">
    <defs>
        <path id="a" d="M18.911.682C16.8 2.686 14.033 3.69 9.703 3.689 5.145 3.687 2.319 2.575.166.356H18.91v.326z"/>
        <path id="c" d="M.27.787l2.097 1.142.515-.36L1.633.27z"/>
        <path id="e" d="M8.959 10.568V.127H.085v10.441h8.874z"/>
        <path id="g" d="M.072 1.926L.54 4.214l1.326-1.681L1.394.239z"/>
        <path id="i" d="M.24.997l2.922.54L5.376.615 2.416.08z"/>
    </defs>
    <g fill="none" fill-rule="evenodd">
        <path fill="#999" d="M160.775 123.24H146.75a2.023 2.023 0 0 1-2.024-2.022v-1.203c0-1.117.906-2.024 2.024-2.024h14.025c1.118 0 2.023.907 2.023 2.024v1.203a2.023 2.023 0 0 1-2.023 2.023"/>
        <path fill="#959596" d="M153.127 115.712h-14.025a2.023 2.023 0 0 1-2.024-2.022v-1.204c0-1.117.907-2.023 2.024-2.023h14.025c1.118 0 2.024.906 2.024 2.023v1.204a2.023 2.023 0 0 1-2.024 2.022z"/>
        <path fill="#CB1663" d="M144.997 112.739c-34.974 0-63.326 28.335-63.326 63.29 0 34.953 28.352 63.29 63.326 63.29 34.974 0 63.326-28.337 63.326-63.29 0-34.955-28.352-63.29-63.326-63.29m0-16.594c44.143 0 79.929 35.765 79.929 79.884 0 44.118-35.786 79.883-79.929 79.883-44.144 0-79.929-35.765-79.929-79.883 0-44.12 35.785-79.884 79.93-79.884"/>
        <path fill="#FFCA05" d="M144.997 98.735l1.934 3.613 4.035.722-2.84 2.955.56 4.06-3.689-1.788-3.69 1.788.561-4.06-2.84-2.955 4.035-.721z"/>
        <path fill="#FFF" d="M106.329 109.09l3.482 2.163 3.857-1.391-.982 3.978 2.516 3.235-4.09.296-2.301 3.391-1.545-3.794-3.94-1.14 3.135-2.642zM78.022 137.382l4.097.132 2.644-3.131 1.14 3.935 3.797 1.545-3.393 2.3-.296 4.087-3.237-2.515-3.981.982 1.392-3.855zM67.66 176.028l3.615-1.933.723-4.033 2.956 2.84 4.062-.561-1.788 3.687 1.788 3.688-4.062-.56-2.956 2.84-.722-4.034zM78.021 214.675l2.164-3.48-1.392-3.855 3.98.982 3.238-2.514.296 4.085 3.393 2.3-3.797 1.546-1.14 3.935-2.644-3.131z"/>
        <path fill="#FFCA05" d="M106.328 242.966l.133-4.095-3.134-2.642 3.938-1.14 1.546-3.795 2.301 3.391 4.09.297-2.517 3.235.982 3.978-3.856-1.391zM144.996 253.321l-1.933-3.612-4.036-.722 2.84-2.956-.56-4.058 3.69 1.787 3.69-1.787-.56 4.058 2.84 2.956-4.036.722zM183.665 242.967l-3.482-2.163-3.856 1.392.982-3.979-2.517-3.235 4.09-.296 2.3-3.391 1.546 3.794 3.938 1.14-3.134 2.642z"/>
        <path fill="#FFF" d="M211.972 214.675l-4.097-.132-2.644 3.131-1.14-3.935-3.797-1.545 3.393-2.3.296-4.086 3.237 2.514 3.981-.981-1.392 3.854zM222.333 176.028l-3.615 1.934-.722 4.033-2.956-2.839-4.061.56 1.787-3.688-1.787-3.687 4.06.56 2.957-2.839.722 4.033zM211.972 137.382l-2.163 3.48 1.392 3.855-3.98-.982-3.238 2.515-.296-4.086-3.393-2.301 3.797-1.545 1.14-3.935 2.644 3.132zM183.665 109.091l-.133 4.095 3.134 2.642-3.937 1.14-1.546 3.795-2.301-3.391-4.09-.296 2.517-3.236-.982-3.978 3.856 1.391z"/>
        <path fill="#E4E8EB" d="M122.036 177.568c.774 8.963-4.398 49.162-.674 52.429 3.731 3.276 13.899 2.994 26.487 3.232 12.588-.238 23.868.135 26.488-3.232 2.62-3.367-2.144-43.657-1.34-52.494.301-3.32.668-7.136 1.007-10.61.12-1.289-1.787-17.557-3.264-29.827-2.476-.46-4.768-.738-6.787-.738-2.42 0-9.731.132-16.44.162-6.707-.03-14.018-.162-16.439-.162-2.875 0-6.73.433-11.082 1.103l10.48 22.824s-3.67 7.727-8.436 17.313"/>
        <path fill="#CED0D1" d="M158.684 162.664h11.618v-2.594h-11.618zM124.664 162.85h11.618v-2.595h-11.618z"/>
        <path fill="#7F8FB2" d="M145.551 147.067l-1.624 3.054-3.426 76.703 5.62 14.614 7.505-15.22-2.69-76.097-.884-3.02z"/>
        <path fill="#A3A5A7" d="M136.126 135.27l.76-3.668 20.866.08.436 5.319z"/>
        <path fill="#E9BCAD" d="M144.907 121.547h-6.423s.55 5.47 0 9.377c-.55 3.907-3.12 5.47-3.12 5.47s.917 4.883 7.34 8.205c1.423.734 3.07 1 4.773.969 1.703.031 3.35-.235 4.772-.97 6.424-3.32 7.341-8.205 7.341-8.205s-2.57-1.562-3.12-5.469c-.551-3.907 0-9.377 0-9.377h-11.563z"/>
        <path fill="#FCD1BD" d="M146.942 131.551c-10.502-.562-25.001-11.452-27.105-27.7-3.498-.134-8.673-3.596-9.23-9.872-.556-6.275 2.913-8.085 6.505-8.085.392 0 .774.043 1.146.126 4.107-13.274 15.353-22.895 28.684-23.286 13.332.391 24.578 10.012 28.685 23.286a5.292 5.292 0 0 1 1.146-.126c3.592 0 6.665 1.774 6.504 8.085-.16 6.312-5.732 9.738-9.23 9.872-2.103 16.248-16.603 27.138-27.105 27.7"/>
        <path fill="#FAC7B3" d="M146.562 131.551c.126-.006.254-.014.383-.025.128.01.256.019.383.025 10.39-.561 24.736-11.452 26.818-27.7 3.46-.134 9.131-5.449 9.131-9.872 0-.214-.007-.428-.02-.638-.007.02-1.923 5.41-4.211 7.213-2.294 1.808-5.388 1.587-5.092 1.575.298-.01-6.19 14.593-12.61 19.78-10.135 8.19-18.664 8.19-28.799 0-6.42-5.187-12.907-19.79-12.61-19.78.297.012-2.798.233-5.09-1.575-2.29-1.804-4.206-7.194-4.213-7.213-.013.21-.02.424-.02.638 0 4.423 5.671 9.738 9.132 9.872 2.08 16.248 16.427 27.139 26.818 27.7"/>
        <path fill="#5B6887" d="M143.926 65.938c-2.909 1.886-13.144 2.536-18.454 9.676-4.687 6.304-3.613 28.116-5.758 28.491-.361-1.191.91-17.947-2.291-18.202 0 0-.038-.449-.067-.66-.249-.998.417-3.417 2.853-10.537 1.848-5.406 15.9-16.87 23.131-8.868l.586.1z"/>
        <path fill="#5B6887" d="M175.494 86.31c-2.104 1.409-1.281 16.985-1.29 17.018-1.806-.326-1.47-17.654-3.896-22.125-3.04-5.602-6.837-7.75-11.037-8.105-1.026.371-2.25.87-3.701 1.516-7.322 3.262-14.524 6.076-22.68 5.035 3.95.092 9.068-1.832 11.575-3.45-14.514 4.8-30.894 1.194-34.163-14.476 4.703 2.683 5.7 2.188 8.77 2.737-.8-.46-8.699-5.29-9.157-6.82 7.57 1.833 8.338 1.623 26.08.64 4.979-.276 10.199-.568 15.154-.197-1.015-.636-2.341-1.315-4.284-2.11 0 0 2.503.325 6.026.603 6.965.549 10.35 3.193 14.897 7.582.266.245.526.497.78.76l.604.59c1.525 1.192 3.28-.253 5.957 5.457 1.793 3.828 2.11 12.043 1.259 14.943 0 0-.71.28-.894.402"/>
        <path fill="#5B6887" d="M174.204 103.328c-1.806-.326-1.47-17.654-3.896-22.125-3.04-5.602-6.836-7.75-11.037-8.105-1.025.372-2.25.87-3.702 1.517-7.32 3.262-14.523 6.076-22.68 5.034 1.29.03 2.704-.155 4.112-.474 3.121-.414 7.213-1.087 9.258-1.963 3.569-1.529 11.958-6.3 11.958-6.3s2.596-1.575 6.025.741c3.43 2.316 7.319 5.602 8.254 11.729.937 6.127 1.708 19.946 1.708 19.946"/>
        <path fill="#E6B39D" d="M148.878 93.189l3.09 10.808s-1.916 1.297-2.41 1.482c-.495.186-6.365-.926-6.056-.988.309-.061 5.315-.802 5.747-1.235.432-.432-.37-10.067-.37-10.067"/>
        <path fill="#F1C1AD" d="M116.617 89.013c-.349-.059-2.506.175-3.73 2.097-1.224 1.923.467 4.835 1.748 6.932 1.283 2.098 2.799 3.321 3.381 2.273.583-1.049.816-3.145-.233-4.02-1.049-.874-1.748-1.632-.816-2.563.933-.933.933-.524.758-2.214-.175-1.689-1.108-2.505-1.108-2.505M177.64 88.396c.349-.059 2.506.174 3.73 2.097 1.223 1.922-.467 4.835-1.749 6.932-1.282 2.097-2.797 3.32-3.38 2.272-.583-1.049-.817-3.145.233-4.02 1.049-.874 1.748-1.631.816-2.562-.933-.934-.933-.525-.758-2.215.174-1.688 1.107-2.504 1.107-2.504"/>
        <path fill="#002A55" d="M134.687 135.408c-.367 30.258-12.484 110.987-12.977 109.506-.495-1.482-15.763-5.227-15.763-5.227 8.083-29.39 10.075-50.836 11.808-79.698-.447.315-24.112 22.614-29.56 26.495-1.002.712-15.012-10.782-10.708-15.26 4.248-4.418 23.306-32.227 40.722-34.282.258-.031.458-1.174.717-1.203 5.408-.627 10.815-.036 15.761-.331"/>
        <path fill="#002A55" d="M106.906 236.124c7.285-27.592 9.186-48.452 10.849-76.135-.447.316-24.112 22.614-29.56 26.494-.334.238-2.12-.884-4.189-2.653-1.382-6.813-1.925-15.038-1.925-15.038l23.495-11.94s6.674-.186 7.601.092c.928.278 6.364-.628 6.364-.628s.032 13.322-.339 22.03c-.37 8.71-5.102 56.555-5.102 56.555s-3.057 1.588-7.194 1.223M160.765 135.655c.285 23.63 9.145 112.72 9.579 111.421.493-1.482 14.925-6.314 14.925-6.314-3.161-22.437-5.032-57.487-6.413-80.493 5.197 18.173 4.982 54.94 7.167 69.228.28 1.833 12.841.834 13.102-.78 2.865-17.672 7.364-87.607-19.609-90.908-.287-.035-2.958-.93-3.246-.965-5.44-.656-10.58-.824-15.505-1.19"/>
        <path fill="#002A55" d="M180.097 242.58l.373-.136c.286-.46 2.431-1.25 4.755-1.994-3.134-22.448-4.994-57.28-6.37-80.181 5.197 18.173 4.983 54.94 7.168 69.228.113.736 2.204 1.015 4.684.982-1.922-18.46-6.757-62.236-8.377-67.092-2.04-6.114-3.985-8.709-3.985-8.709-2.85 20.633-.796 85.727 1.752 87.902"/>
        <path fill="#021930" d="M130.318 135.753c-.556.247-12.743 10.976-12.743 10.976l7.602 7.969-5.636 1.618 10.343 32.915c4.219-23.684 3.922-32.24 4.803-53.824l-4.369.346zM165.134 136c.556.247 12.743 10.976 12.743 10.976l-7.601 7.968 5.635 1.62-8.884 32.565c-4.22-23.685-5.38-31.89-6.262-53.475l4.369.346z"/>
        <path fill="#B8BABC" d="M146.615 141.865v5.913"/>
        <path fill="#2F3031" d="M145.086 148.303c-.463-.309-3.683-2.788-5.722-4.239-2.04-1.452-2.7-3.626-2.7-3.626l1.193-2.03s4.965 4.873 5.618 4.929c.653.055 1.611 4.966 1.611 4.966"/>
        <path fill="#B8BABC" d="M143.16 141.865l3.17 6.192 12.683-7.688c-2.841.321-15.854 1.496-15.854 1.496"/>
        <path fill="#2F3031" d="M148.98 148.766c.464-.31 4.821-2.687 6.86-4.139 2.04-1.45 2.844-4.786 2.844-4.786h-2.288s-5.151 3.903-5.804 3.959c-.653.056-1.611 4.966-1.611 4.966"/>
        <path fill="#7F8FB2" d="M147.431 143.288c-2.615-.107-5.19-.183-5.19-.183s1.232 6.714 1.686 7.016c.235.156 1.868.372 3.504.474 1.637-.102 3.27-.318 3.505-.474.454-.302 1.687-7.016 1.687-7.016s-2.576.076-5.192.183"/>
        <path fill="#FFF" d="M147.562 141.68c1.908 1.168 6.76 7.086 6.76 7.086s7.193-12.279 6.139-13.111c-1.054-.832-2.71-3.973-2.71-3.973l-10.189 9.999z"/>
        <path fill="#3F99EA" d="M216.946 231.499l6.298 29.265c23.069-4.88 39.822-7.057 63.286-2.674-6.79-10-19.787-14.638-31.013-17.78 8.631-4.224 25.082-6.389 34.477-4.562-24.18-14.558-46.147-10.417-73.048-4.249"/>
        <path fill="#2A7FCB" d="M216.946 231.499l19.483-19.375 9.126 31.426-22.311 17.214z"/>
        <path fill="#3F99EA" d="M73.047 231.499l-6.297 29.265c-23.068-4.88-39.822-7.057-63.286-2.674 6.79-10 19.786-14.638 31.013-17.78-8.63-4.224-25.082-6.389-34.477-4.562 24.18-14.558 46.146-10.417 73.047-4.249"/>
        <path fill="#2A7FCB" d="M73.047 231.499l-19.482-19.375-9.125 31.426 22.31 17.214z"/>
        <path fill="#3F99EA" d="M53.565 212.124c29.02 11.56 61.584 14.793 91.432 14.182 29.847.611 62.412-2.621 91.432-14.182l9.126 31.426c-53.297 23.435-149.885 23.22-201.116 0l9.126-31.426z"/>
        <path fill="#FCD1BD" d="M106.381 160.798c2.596-2.41 4.363-1.449 5.006-7.967.457-4.639-2.428-7.245-.068-8.45 2.26-1.156 6.256 2.348 6.372 11.044 0 0 8.268-3.003 11.04-1.687 2.772 1.316 1.842 4.378 1.842 4.378 1.471.948 2.007 4.292.976 5.322 0 0 1.146 1.759 1.327 3.282.18 1.522-.385 2.743-.91 3.157-.778.613 2.397 3.979-3.167 5.135-4.99 1.037-15.04 3.374-18.987.331l-3.43-14.545z"/>
        <path fill="#F4BFA6" d="M132.876 166.72c-.181-1.523-1.327-3.281-1.327-3.281 1.031-1.03.495-4.375-.976-5.323 0 0 .93-3.062-1.842-4.378-2.772-1.316-11.04 1.686-11.04 1.686-.11-8.216-3.683-11.792-5.982-11.187 1.027.743 2.249 1.856 3.067 3.355 1.655 3.031 1.103 9.991 1.103 9.991s7.17-4.134 10.548-3.239c3.38.896 2.758 3.858 2.758 3.858s1.655 1.782 1.655 3.165-.759 2.624-.759 2.624 1.368.965 1.615 2.411c.247 1.447-.925 3.514-.925 3.514s.965 2.123.138 3.06c-.645.73-8.41 2.778-11.785 3.709 3.565-.347 7.228-1.165 9.675-1.673 5.565-1.156 2.389-4.521 3.168-5.135.525-.413 1.089-1.635.909-3.158"/>
        <path fill="#E4E8EB" d="M106.411 179.001c1.576-.555 6.92-2.336 6.92-2.336l-5.472-17.009-5.265 2.532L106.41 179z"/>
        <path fill="#002A55" d="M112.342 179.47c.147-.599-5.79-19.695-5.79-19.695-8.696 3.51-22.967 7.414-29.065 11.45-2.533 1.676-5.47 12.044-2.502 14.822 2.966 2.78 11.756 2.295 18.26.742 6.506-1.553 19.097-7.319 19.097-7.319"/>
        <path fill="#002A55" d="M112.342 179.47c.055-.224-.744-3.045-1.764-6.485h-.001l-.003-.008s-13.62 6.576-22.704 9.077c-6.262 1.725-11.334 2.084-13.882 2.141.198.767.521 1.407.997 1.852 2.966 2.78 11.756 2.295 18.26.742 6.506-1.553 19.097-7.319 19.097-7.319"/>
        <path fill="#FAC7B3" d="M133.452 111.672c3.063 1.494 8.199 1.532 13.154 1.479 5.1-.054 10.02-.245 13.173-1.88-4.688 11.874-15.56 12.971-22.12 6.914-1.797-1.659-3.272-3.855-4.207-6.513"/>
        <path fill="#6D222A" d="M133.452 111.702c3.05 1.6 7.946 2.36 12.879 2.311 4.932.05 9.83-.71 12.878-2.31-2.75 5.625-5.617 8.45-12.878 8.448-7.261-.002-10.128-2.823-12.879-8.449"/>
        <g transform="translate(136.628 116.463)">
            <mask id="b" fill="#fff">
                <use xlink:href="#a"/>
            </mask>
            <path fill="#FFF" d="M18.911 1.048c-2.119 2.04-4.897 3.063-9.265 3.062C5.102 4.108 2.279 3.003.128.798.158.211.55.364 1.12.403c5.888.403 11.004.482 16.876.129.366-.022.774-.139.852.199.025.108.046.214.064.317" mask="url(#b)"/>
        </g>
        <path fill="#E6E7E8" d="M155.54 117.51c-.182.176-.37.343-.56.503-.123-.31-.233-.561-.304-.619-.21-.167-7.66.565-10.528.335-2.867-.23-6.133-.376-6.572-.292-.144.027-.238.154-.3.323-.177-.16-.35-.326-.52-.5.03-.586.422-.433.991-.394 5.888.403 11.004.481 16.876.128.366-.021.774-.138.852.2.025.108.047.213.065.316"/>
        <path fill="#FFF" d="M135.395 112.53c2.983 1.034 6.948 1.523 10.936 1.483 3.987.04 7.952-.449 10.936-1.484v.942c0 1.351-1.113 2.316-2.458 2.455-6.178.643-11.783.585-16.956 0-1.344-.15-2.458-1.104-2.458-2.455v-.942z"/>
        <path fill="#E6E7E8" d="M135.395 112.53l.229.077c.163.738.42 1.558.853 1.99.816.817 1.176.931 2.326 1.094 1.148.162 13.324.347 15.075-.122 1.75-.47 2.23-.643 2.712-1.808.165-.396.294-.786.397-1.137.094-.03.187-.062.28-.095v.942c0 1.351-1.113 2.316-2.458 2.455-6.178.643-11.783.585-16.956 0-1.344-.15-2.458-1.104-2.458-2.455v-.942z"/>
        <path fill="#FABFA2" d="M133.605 114.08a2.322 2.322 0 0 1-.653-2.408c.238-.75.829-1.291 1.54-1.509-.474.391-.842.916-1.04 1.54a3.292 3.292 0 0 0 .153 2.376M159.096 113.826c.647-.6.932-1.526.653-2.406a2.314 2.314 0 0 0-1.54-1.51c.474.392.842.916 1.04 1.54.257.812.18 1.651-.153 2.376"/>
        <path fill="#FAC7B3" d="M133.509 97.015c3.11 0 5.648-1.768 5.648-3.935s-2.537-3.935-5.648-3.935c-3.112 0-5.65 1.768-5.65 3.935s2.538 3.935 5.65 3.935"/>
        <path fill="#7C6444" d="M133.508 89.145c3.12 0 5.65 1.286 5.65 2.87s-2.53 2.87-5.65 2.87c-3.12 0-5.649-1.286-5.649-2.87s2.53-2.87 5.649-2.87"/>
        <path fill="#FFF" d="M133.508 89.35c3.12 0 5.65 1.264 5.65 2.823 0 1.56-2.53 2.823-5.65 2.823-3.12 0-5.649-1.264-5.649-2.823s2.53-2.822 5.649-2.822"/>
        <path fill="#060204" d="M133.927 94.232a1.916 1.916 0 0 0 1.912-1.911 1.916 1.916 0 0 0-1.912-1.913 1.916 1.916 0 0 0-1.913 1.913c0 1.052.86 1.911 1.913 1.911"/>
        <path stroke="#231F1F" stroke-width=".5" d="M133.927 94.232a1.916 1.916 0 0 0 1.912-1.911 1.916 1.916 0 0 0-1.912-1.913 1.916 1.916 0 0 0-1.913 1.913c0 1.052.86 1.911 1.913 1.911z"/>
        <path fill="#404041" d="M133.927 93.486c.642 0 1.166-.524 1.166-1.166 0-.642-.524-1.166-1.166-1.166-.642 0-1.166.524-1.166 1.166 0 .642.524 1.166 1.166 1.166"/>
        <path fill="#FFF" d="M134.818 92.37a.62.62 0 0 0 .62-.616.62.62 0 0 0-1.24 0c0 .339.28.616.62.616"/>
        <path fill="#FAC7B3" d="M160.718 97.151c-3.219 0-5.844-1.829-5.844-4.07 0-2.243 2.625-4.072 5.844-4.072 3.219 0 5.845 1.83 5.845 4.072 0 2.241-2.626 4.07-5.845 4.07"/>
        <path fill="#7C6444" d="M160.718 89.01c-3.227 0-5.844 1.329-5.844 2.969 0 1.639 2.617 2.968 5.844 2.968 3.227 0 5.845-1.329 5.845-2.968 0-1.64-2.618-2.97-5.845-2.97"/>
        <path fill="#FFF" d="M160.718 89.221c-3.227 0-5.844 1.307-5.844 2.92s2.617 2.921 5.844 2.921c3.227 0 5.845-1.308 5.845-2.92 0-1.614-2.618-2.92-5.845-2.92"/>
        <path fill="#060204" d="M160.285 94.272c1.09 0 1.979-.888 1.979-1.978 0-1.09-.889-1.978-1.98-1.978-1.089 0-1.978.888-1.978 1.978 0 1.09.89 1.978 1.979 1.978"/>
        <path stroke="#231F1F" stroke-width=".5" d="M160.285 94.272c1.09 0 1.979-.888 1.979-1.978 0-1.09-.889-1.978-1.98-1.978-1.089 0-1.978.888-1.978 1.978 0 1.09.89 1.978 1.979 1.978z"/>
        <path fill="#404041" d="M160.285 93.5a1.21 1.21 0 0 0 1.207-1.206 1.21 1.21 0 0 0-1.207-1.206 1.21 1.21 0 0 0-1.207 1.206 1.21 1.21 0 0 0 1.207 1.206"/>
        <path fill="#FFF" d="M161.151 92.016a.641.641 0 0 1-.64-.638.64.64 0 0 1 1.28 0c0 .351-.287.638-.64.638"/>
        <path fill="#5B6887" d="M165.097 64.295c-.503-.753-3.474-3.64-7.41-5.481-3.934-1.84-6.822-1.757-6.822-1.757s4.144 2.468 4.772 3.305c.627.837.753 1.087.753 1.087s-2.344-.334-9.879-1.255c-7.534-.92-14.148.92-19.255.753-5.107-.167-6.697-.585-6.697-.585s2.846 1.924 10.38 2.593c7.535.67 21.684 1.758 21.684 1.758s-5.776 2.175-14.735 2.845c-8.958.67-20.092-1.256-20.092-1.256s3.975 3.197 11.783 5.447c7.807 2.252 26.058-3.522 26.058-3.522s-1.382 1.757-4.103 3.807c-2.72 2.05-3.28 1.937-3.28 1.937s7.718-3.192 10.606-4.53c2.889-1.34 3.094-1.211 3.265-1.465.171-.254 4.312 1.631 6.74 4.686 2.427 3.053 5.232 11.212 5.232 10.835 0-.376-.21-4.895-.67-7.237-.46-2.344-.879-3.557-.879-3.557s2.68 6.945 2.68 6.736c0-.21-.168-6.61-1.843-9.204-1.674-2.594-6.07-3.974-6.07-3.974l-2.218-1.966z"/>
        <path fill="#FFF" d="M147.562 141.68c-1.907 1.168-7.062 7.086-7.062 7.086s-6.866-12.526-5.813-13.358c1.055-.832 2.199-3.726 2.199-3.726l10.676 9.999z"/>
        <path fill="#F2F2F2" d="M82.512 244.489c-.652.16-1.888.188-3.389-.15-3.476-.784-5.596-3.568-4.683-7.608.871-3.858 4.077-5.882 7.9-5.02 1.537.347 2.432.895 2.803 1.21l-.677 1.21c-.538-.428-1.348-.841-2.372-1.072-2.89-.653-5.228.76-5.96 3.997-.68 3.016.62 5.346 3.62 6.023.97.22 2.003.24 2.713.074l.045 1.336zM86.49 239.31c-.448 2.661.592 5.287 3.125 5.714 2.551.43 4.389-1.674 4.866-4.5.417-2.477-.44-5.281-3.121-5.733-2.662-.449-4.408 1.784-4.87 4.52m9.704 1.425c-.723 4.286-3.713 6.12-6.893 5.585-3.29-.555-5.171-3.494-4.535-7.264.667-3.953 3.562-6.126 6.89-5.565 3.4.573 5.16 3.549 4.538 7.244M97.639 247.415l1.425-12.55 1.77.2 3.304 6.807c.764 1.576 1.34 2.981 1.79 4.333l.04-.014c.042-1.693.177-3.224.4-5.178l.596-5.252 1.528.174-1.426 12.55-1.64-.187-3.263-6.82c-.717-1.496-1.393-3.025-1.872-4.455l-.057.011c-.087 1.594-.221 3.107-.458 5.192l-.61 5.362-1.527-.173zM119.918 248.839c-.747.212-2.217.548-3.92.435-1.908-.126-3.448-.715-4.605-1.976-1.015-1.119-1.578-2.846-1.448-4.81.267-3.758 3.031-6.336 7.26-6.056 1.46.096 2.58.49 3.106.787l-.481 1.302c-.654-.344-1.48-.643-2.752-.727-3.069-.203-5.197 1.573-5.406 4.733-.212 3.199 1.59 5.214 4.528 5.408 1.067.07 1.807-.03 2.193-.193l.249-3.76-2.563-.168.086-1.31 4.154.275-.4 6.06zM124.478 242.84l1.668.045c1.743.048 2.875-.877 2.915-2.32.044-1.63-1.117-2.373-2.84-2.439-.788-.022-1.353.038-1.618.106l-.125 4.608zm-1.474-5.795c.83-.147 2.013-.208 3.137-.177 1.744.047 2.86.397 3.627 1.13.622.58.954 1.45.928 2.424-.045 1.667-1.125 2.744-2.468 3.157l-.001.056c.965.363 1.521 1.28 1.785 2.598.365 1.773.631 2.999.88 3.493l-1.686-.047c-.196-.36-.448-1.455-.762-3.038-.326-1.752-.984-2.426-2.463-2.523l-1.537-.042-.149 5.47-1.63-.045.34-12.456zM138.934 244.452l-1.261-3.628c-.287-.823-.48-1.571-.672-2.3h-.037c-.183.75-.384 1.52-.623 2.29l-1.214 3.663 3.807-.025zm-4.136 1.3l-1.287 3.984-1.687.01 4.211-12.66 1.97-.012 4.396 12.603-1.745.011-1.376-3.964-4.482.029zM145.14 238.455l-3.845-.034.012-1.386 9.358.082-.012 1.387-3.863-.035-.099 11.246-1.65-.014zM153.198 237.073l.184 7.474c.07 2.829 1.355 3.997 3.041 3.955 1.874-.045 3.043-1.312 2.975-4.103l-.183-7.473 1.648-.04.182 7.361c.094 3.877-1.909 5.52-4.645 5.586-2.587.064-4.573-1.368-4.669-5.283l-.182-7.436 1.65-.041zM163.496 236.74l1.629-.098.681 11.246 5.392-.327.083 1.366-7.02.425zM179.034 242.934l-1.59-3.497c-.362-.792-.623-1.52-.88-2.229l-.038.004c-.114.765-.243 1.55-.409 2.338l-.871 3.76 3.788-.376zm-3.999 1.677l-.914 4.083-1.68.166 3.028-12.993 1.96-.195 5.537 12.146-1.735.172-1.736-3.821-4.46.442zM184.517 236.234l-3.809.519-.187-1.374 9.271-1.263.187 1.374-3.827.521 1.521 11.142-1.635.223zM192.643 233.603l2.08 12.46-1.61.268-2.08-12.46zM197.555 239.25c.553 2.641 2.48 4.708 4.995 4.182 2.533-.53 3.476-3.16 2.889-5.966-.515-2.458-2.338-4.757-5-4.2-2.643.552-3.453 3.269-2.884 5.984m9.557-2.21c.892 4.255-1.224 7.053-4.38 7.713-3.267.684-6.092-1.367-6.876-5.109-.823-3.926 1.08-7.005 4.384-7.696 3.378-.707 6.104 1.423 6.872 5.091M210.984 242.701l-3.395-12.171 1.716-.478 5.621 5.07c1.301 1.175 2.364 2.26 3.29 3.345l.03-.028c-.597-1.585-1.047-3.056-1.576-4.952l-1.42-5.092 1.481-.413 3.396 12.171-1.59.443-5.59-5.098c-1.227-1.118-2.428-2.281-3.41-3.428l-.05.033c.52 1.51.963 2.963 1.528 4.985l1.451 5.2-1.482.413zM222.434 237.312a5.804 5.804 0 0 0 3.034-.182c1.577-.549 2.208-1.701 1.79-2.904-.39-1.115-1.248-1.53-3.076-1.59-2.188-.013-3.743-.604-4.329-2.285-.647-1.858.413-3.775 2.733-4.581 1.222-.425 2.206-.45 2.842-.334l.012 1.405a5.033 5.033 0 0 0-2.463.221c-1.63.567-1.91 1.756-1.628 2.57.389 1.115 1.306 1.412 3.175 1.476 2.29.077 3.656.693 4.266 2.446.64 1.84-.168 3.908-2.984 4.887-1.151.4-2.526.501-3.311.298l-.06-1.427z"/>
        <g>
            <path fill="#CB1663" d="M88.27 61.004l.491 3.315 2.984.885-2.776 1.655.042 3.37-2.215-2.29-2.955 1.192 1.409-3.062-1.876-2.644 3.088.405z"/>
            <path fill="#3F99EA" d="M73.518 59.526L68.5 58.048 64.32 62l-.03-6.023-4.395-3.087 5.036-2.21 1.454-5.886 3.152 4.637 5.285-.55-3.07 5.105z"/>
            <path fill="#7ED321" d="M43.152 106.567l-3.035-.895-2.532 2.395-.023-3.647-2.629-1.849 3.03-1.352.88-3.551 1.907 2.795 3.175-.338-1.852 3.093z"/>
            <path fill="#CB1663" d="M40.473 3.642l-1.126-.327-.898.866-.036-1.317-.932-.678 1.1-.48.31-1.29.7 1.02 1.141-.123-.676 1.117z"/>
            <path fill="#3F99EA" d="M29.913 56.344l-1.126-.327-.897.865-.036-1.316-.932-.679 1.1-.48.31-1.29.698 1.02 1.142-.123-.676 1.118z"/>
            <path fill="#CB1663" d="M81 28.991l-1.122-.33-.906.885.003-1.33-.966-.664 1.093-.503.32-1.281.696 1.02 1.177-.119-.678 1.115zM106.15 45.033l-1.088-.325-.903.862-.038-1.317-.926-.677 1.097-.477.306-1.288.698 1.021 1.146-.128-.671 1.119z"/>
            <path fill="#F8E81C" d="M19.224 89.793l1.699 2.45-2.625-1.479-1.707-2.451z"/>
            <path fill="#CB1663" d="M18.213 90.087l2.624 1.479-1.698-2.45-2.634-1.48z"/>
            <path fill="#606060" d="M38.007 17.02l1.67-1.997 1.817 2.186-1.67 1.997z"/>
            <path fill="#CDCDCD" d="M38.007 17.02l1.818 2.186 1.669-1.997-1.818-2.186z"/>
            <g fill="#CB1663">
                <path d="M26.84 41.605s.261-.617-.08-1.18c-.338-.566-1.733-1.55-1.733-1.55l-1.994-1.206-1.058-.953s-.438.567.1 1.13c.542.564 1.663 1.216 1.663 1.216l2.065 1.262s.985.856 1.037 1.28"/>
                <path d="M21.832 37.44s.346-.796.747-.964c.39-.174 1.87-.864 2.563-.971.709-.107 1.545-.732 1.545-.732l.019-.968s-.778.563-1.536.686c-.756.118-2.17.783-2.17.783s-.952.437-1.119 1.048c-.177.609-.049 1.118-.049 1.118"/>
                <path d="M26.707 33.798s-.452-.646-1.657-1.011c-1.21-.365-2.635-1.307-2.783-1.775 0 0-.238.793-.011 1.058.225.273.7.864 1.44 1.15.74.281 1.55.629 1.55.629s.728.351.812.403c.167-.011.65-.454.65-.454M26.008 30.441s-.223.212-1.034.201c-.832-.014-2.157-.329-2.555-.843-.388-.508-.074-1.033-.074-1.033s.916.74 1.37.76c.468.018 2.291-.248 2.291-.248l.002 1.163z"/>
                <path d="M22.162 31.785s.204-.676.557-.9c.343-.236.872-.449 1.243-.579.357-.136 1.883-.327 2.054-.075L26 29.244s-.618-.413-1.587-.073c-.967.345-1.506.598-1.851.89-.356.293-.437.616-.437.616l.036 1.108zM25.548 27.719s-.267.37-.872.331c-.595-.031-1.707.051-2.035-.787.09-.49.383-.585.383-.585s.266.241.561.296c.31.053 2.007-.286 2.007-.286l-.044 1.03z"/>
                <path d="M22.224 29.161s.36-.692.731-.878c.379-.177 1.878-.858 2.587-.586.004-.36.05-1.009.05-1.009s-.561-.193-1.148.014c-.587.21-1.437.55-1.729.815-.279.26-.503.703-.503.703l.012.941zM22.666 27.08s.66-.991 1.507-.871l.206-.97s-.581.02-1.132.338c-.552.318-.52.503-.52.503l-.061 1zM32.68 32.026l.588-.091.388.625-.236.1z"/>
            </g>
            <g transform="rotate(12 -109.115 301.489)">
                <mask id="d" fill="#fff">
                    <use xlink:href="#c"/>
                </mask>
                <path fill="#606060" d="M2.687 2.086L3.07.872.582-.183.2 1.028z" mask="url(#d)"/>
            </g>
            <path fill="#606060" d="M65.776 87.708l-.025 2.382 1.649-1.417.064-2.35zM56.588 72.12l-.026 2.382 1.65-1.416.064-2.35z"/>
            <path fill="#F8E81C" d="M26.627 70.092l.028-2.358-1.65 1.398-.028 2.38z"/>
            <path fill="#7F8FB2" d="M37.05 85.05l2.543 3.011 2.26-2.773-2.51-2.991z"/>
            <path fill="#D5E6F5" d="M80.31 34.671l-2.538-3.012-2.302 2.766 2.546 2.995z"/>
            <path fill="#F8E81C" d="M106.37 49.599l-2.476 2.109-.08 3.543 2.52-2.106z"/>
            <path fill="#D5E6F5" d="M69.58 3.52L66.92-.046l.315 3.738 2.672 3.55z"/>
            <path fill="#CB1663" d="M80.223 46.311l-2.324.445 2.744 1.137 2.326-.474zM22.302 110.192l-1.625-2.46-2.574-1.536 1.621 2.46zM128.7 31.662l-1.633 1.302 2.587.206 1.668-1.296zM19.405 79.963l.059-2.35L17.774 79l-.026 2.382z"/>
            <path fill="#CDCDCD" d="M76.066 7.86l-.031 2.38 1.654-1.41.026-2.36z"/>
            <path fill="#CB1663" d="M53.532 20.49l-2.555-2.38-.287 2.464 2.552 2.402z"/>
            <path fill="#3F99EA" d="M100.118 45.457s.872-.752.924-1.967c.053-1.252-.878-4.227-.878-4.227l-1.523-3.88-.532-2.571s-1.075.5-.859 1.916c.198 1.458 1.085 3.588 1.085 3.588l1.563 4.052s.539 2.349.22 3.089"/>
            <path fill="#3F99EA" d="M97.3 33.828s1.119-.913 1.792-.828c.654.112 3.145.462 4.138.98.981.498 2.595.332 2.595.332l.876-1.54s-1.498.155-2.567-.415c-1.076-.533-3.484-.86-3.484-.86s-1.592-.223-2.33.579c-.736.808-1.02 1.752-1.02 1.752"/>
            <path fill="#3F99EA" d="M106.69 32.759s-.015-1.486-1.237-3.26c-1.256-1.747-2.266-4.696-2.043-5.592 0 0-.993 1.052-.945 1.718.064.636.164 2.056.867 3.235a58.877 58.877 0 0 1 1.434 2.56s.633 1.264.7 1.45c.237.14 1.225-.111 1.225-.111M108.696 26.678s-.465.13-1.511-.695c-1.045-.821-2.468-2.657-2.525-3.867-.067-1.217.79-1.752.79-1.752s.52 2.113 1.108 2.57c.566.499 3.157 1.856 3.157 1.856l-1.02 1.888z"/>
            <path fill="#3F99EA" d="M102.595 25.056s.856-.896 1.507-.916c.648-.025 1.505.153 2.088.301.576.144 2.698 1.313 2.693 1.901l.854-1.619s-.455-1.257-1.996-1.662c-1.53-.396-2.435-.526-3.123-.403-.72.154-1.09.579-1.09.579l-.933 1.819zM110.458 21.845s-.663.324-1.41-.306c-.725-.656-2.232-1.62-1.938-3.271.565-.724 1.017-.59 1.017-.59s.13.641.462 1.04c.336.397 2.81 1.493 2.81 1.493l-.941 1.634z"/>
            <path fill="#3F99EA" d="M104.94 20.906s1.071-.777 1.71-.715c.624.087 3.15.46 3.832 1.584l.917-1.564s-.528-.868-1.467-1.11c-.93-.239-2.347-.505-2.924-.374-.593.157-1.268.66-1.268.66l-.8 1.519zM107.316 17.982s1.69-.952 2.688.051c.322-.368 1.085-1.336 1.085-1.336s-.744-.544-1.733-.56c-.98-.054-1.113.292-1.113.292l-.927 1.553z"/>
        </g>
        <g>
            <path fill="#7ED321" d="M206.41 60.976l1.595 2.947 3.11-.19-2.046 2.506 1.192 3.153-2.865-1.394-2.369 2.13.277-3.36-2.667-1.843 3.04-.675zM240.853 101.253l-3.147.188-1.566 3.125-1.27-3.405-3.096-.858 2.38-2.302-.383-3.643 2.745 1.976 2.865-1.38-.682 3.516z"/>
            <path fill="#F8E81C" d="M186.54 54.842l-3.15.194-1.566 3.122-1.259-3.406-3.115-.856 2.395-2.283-.39-3.64 2.746 1.97 2.863-1.399-.675 3.542z"/>
            <path fill="#606060" d="M148.49 46.028l2.161-1.715 2.477.308-1.22 3.369z"/>
            <path fill="#CDCDCD" d="M148.49 46.028l3.419 1.962 1.22-3.369-2.478-.308z"/>
            <path fill="#3F99EA" d="M254.15 90.384l.248 4.567 3.418-.305-.256-4.564z"/>
            <path fill="#F8E81C" d="M155.244 22.33l-2.366-1.76-2.951-.556 2.374 1.754z"/>
            <g transform="rotate(-8 864.205 -1892.715)">
                <mask id="f" fill="#fff">
                    <use xlink:href="#e"/>
                </mask>
                <path fill="#606060" d="M8.959 7.937l-3.15-.24-1.993 2.871-.776-3.546L.085 5.744 2.771 3.78 2.894.127l2.45 2.365 3.034-.99L7.206 4.89z" mask="url(#f)"/>
            </g>
            <path fill="#CDCDCD" d="M267.412 118.28l-3.376-1.973-1.21 3.367 3.376 1.974z"/>
            <path fill="#3F99EA" d="M251.17 18.504l-4.085.258-2.006 3.998-1.622-4.366-3.995-1.098 3.057-2.965-.471-4.689 3.5 2.56 3.714-1.812-.884 4.542z"/>
            <path fill="#F8E81C" d="M211.07 26.239l-1.174.076-.55 1.12-.486-1.224-1.104-.321.868-.823-.156-1.32 1.01.721 1.032-.51-.254 1.286z"/>
            <path fill="#7F8FB2" d="M266.752 73.435l-3.195.197-1.525 3.112-1.261-3.4-3.146-.85 2.388-2.31-.354-3.644 2.717 2 2.897-1.407-.686 3.516z"/>
            <path fill="#CB1663" d="M257.293 56.992l-1.08 1.85-.782-2.2 1.075-1.856z"/>
            <g transform="rotate(-8 518.981 -1796.623)">
                <mask id="h" fill="#fff">
                    <use xlink:href="#g"/>
                </mask>
                <path fill="#606060" d="M-.351 7.245l2.843-4.87-.203-5.161L-.554 2.08z" mask="url(#h)"/>
            </g>
            <path fill="#606060" d="M230.999 29.47l3.004.117-2.063 1.221-2.969-.128z"/>
            <g transform="rotate(-8 326.848 -1619.662)">
                <mask id="j" fill="#fff">
                    <use xlink:href="#i"/>
                </mask>
                <path fill="#B2BFCC" d="M9.339-.71L.94-1.227l-4.667 3.528 8.405.517z" mask="url(#j)"/>
            </g>
            <path fill="#5B6887" d="M242.529 51.654l3.306-.213-2.252-2.883.738-3.684-3.02 1.466-2.843-2.067.382 3.799-2.49 2.387 3.267.878 1.328 3.555z"/>
            <path fill="#D5E6F5" d="M214.296 71.319l3.422 1.965 1.167-3.382-3.38-1.949zM271.41 64.073l-3.417-1.97-1.218 3.391 3.416 1.968z"/>
            <path fill="#7F8FB2" d="M203.142 41.132l3.205.412.453-4.233-3.197-.415z"/>
            <path fill="#F8E81C" d="M254.41 54.357l.638 4.262 3.13-.662-.653-4.26z"/>
            <path fill="#CB1663" d="M266.638 50.26l2.12 1.656 1.855-1.012-3.274-1.283z"/>
            <path fill="#CDCDCD" d="M216.677 8.655l1.181 3.342 1.607-2.827-1.149-3.355zM203.322 52.53l1.42 1.112 1.245-.67-2.21-.87zM165.31 31.504l-1.088 1.782 2.5-.692 1.125-1.787zM227.83 59.157l-1.089 1.782 2.501-.691 1.124-1.788zM225.29 82.502l-1.088 1.783 2.5-.692 1.124-1.788z"/>
            <path fill="#CB1663" d="M260.964 39.247l3.221 1.387-.577-2.433-3.22-1.363z"/>
            <path fill="#D5E6F5" d="M254.346 5.588l.681 4.255 3.13-.663-.644-4.261z"/>
            <g fill="#CB1663">
                <path d="M192.161 31.371s-.049-.92-.787-1.39c-.727-.472-2.974-.79-2.974-.79l-3.104-.202-1.818-.477s-.197.962.774 1.308c.986.347 2.718.422 2.718.422l3.205.227s1.685.414 1.986.902"/>
                <path d="M183.723 29.476s-.039-1.187.33-1.639c.374-.467 1.75-2.24 2.511-2.815.782-.566 1.426-1.863 1.426-1.863l-.541-1.188s-.602 1.173-1.434 1.804c-.849.628-2.156 2.333-2.156 2.333s-.89 1.14-.737 1.99c.148.845.601 1.378.601 1.378"/>
                <path d="M187.435 21.965s-.917-.504-2.574-.179c-1.66.325-3.927.076-4.372-.4 0 0 .174 1.118.608 1.306.416.178 1.334.598 2.393.476 1.06-.13 2.237-.215 2.237-.215s1.058-.037 1.202-.032c.202-.118.506-.956.506-.956M184.638 18.325s-.132.393-1.119.907c-.995.503-2.787.965-3.557.589-.775-.375-.691-1.21-.691-1.21s1.516.317 2.087.045c.57-.261 2.603-1.737 2.603-1.737l.677 1.406z"/>
                <path d="M180.82 22.398s-.15-.947.128-1.453c.287-.498.797-1.1 1.149-1.486.365-.39 2.073-1.59 2.428-1.384l-.59-1.2s-.985-.106-1.95.925c-.964 1.034-1.447 1.676-1.695 2.249-.248.577-.153 1.019-.153 1.019l.683 1.33zM182.496 15.303s-.099.628-.848.96c-.736.342-2.025 1.146-2.91.34-.169-.666.132-.963.132-.963s.437.133.844.01c.394-.13 2.23-1.613 2.23-1.613l.552 1.266z"/>
                <path d="M179.35 19.176s.022-1.072.365-1.534c.341-.459 1.747-2.238 2.763-2.362-.201-.43-.534-1.243-.534-1.243s-.783.11-1.368.733c-.585.622-1.401 1.586-1.583 2.09-.191.492-.204 1.18-.204 1.18l.561 1.136zM178.663 16.367s.204-1.631 1.292-2.021c-.086-.393-.32-1.3-.32-1.3s-.665.387-1.16 1.122c-.473.734-.32.933-.32.933l.508 1.266z"/>
            </g>
            <path fill="#B2BFCC" d="M256.068 125.275s-.519-1.51-2.507-3.088c-1.985-1.582-4.112-4.393-4.163-5.343 0 0-.778 1.241-.495 1.915.28.636.867 2.073 2.068 3.165 1.207 1.082 2.488 2.34 2.488 2.34s1.13 1.168 1.27 1.333c.311.12 1.339-.322 1.339-.322M256.296 118.694s-.48.218-1.936-.43c-1.45-.654-3.703-2.26-4.178-3.488-.476-1.228.328-1.915.328-1.915s1.286 2.018 2.109 2.41c.82.403 4.174 1.33 4.174 1.33l-.497 2.093z"/>
            <path fill="#B2BFCC" d="M248.87 118.172s.653-1.06 1.367-1.223c.723-.137 1.773-.124 2.458-.086.719.052 3.505.871 3.697 1.463l.41-1.788s-.92-1.224-2.795-1.355c-1.883-.125-2.931-.074-3.679.18-.746.257-1.028.779-1.028.779l-.43 2.03zM256.664 113.426s-.64.475-1.696-.065c-1.048-.513-3.074-1.228-3.29-2.988.392-.815.949-.75.949-.75s.349.623.874.968c.51.322 3.676 1.02 3.676 1.02l-.513 1.815z"/>
            <path fill="#B2BFCC" d="M250.106 113.481s.948-.979 1.69-1.025c.744-.039 3.718-.108 4.87.928.15-.63.51-1.773.51-1.773s-.903-.78-2.035-.87c-1.134-.077-2.806-.104-3.42.162-.624.242-1.228.87-1.228.87l-.387 1.708zM251.793 110.066s1.612-1.293 3.065-.425c.249-.462.776-1.582.776-1.582s-1.016-.393-2.144-.266c-1.122.146-1.132.508-1.132.508l-.565 1.765z"/>
        </g>
    </g>
</svg>
