<svg xmlns="http://www.w3.org/2000/svg" width="24" height="24" viewBox="0 0 24 24">
    <g fill="#FFF" fill-rule="nonzero">
        <path d="M12 24C5.383 24 0 18.617 0 12S5.383 0 12 0s12 5.383 12 12-5.383 12-12 12zM12 .727C5.784.727.727 5.784.727 12c0 6.216 5.057 11.273 11.273 11.273 6.216 0 11.273-5.057 11.273-11.273C23.273 5.784 18.216.727 12 .727z"/>
        <path d="M12 24c-2.498 0-4.899-.77-6.945-2.225a.363.363 0 1 1 .084-.637c3.016-1.117 3.502-2.023 3.502-3.76 0-.459-.103-.61-.289-.883-.247-.359-.584-.851-.821-2.137-.035-.185-.065-.2-.23-.28-.44-.212-.846-.517-.952-1.91 0-.676.233-1.049.426-1.243-.043-.24-.112-.654-.176-1.105-.33-2.02-.344-4.493 2.496-5.643 2.476-1.003 4.452-.455 5.072.199.44.014 1.573.129 2.361 1.046 1.213 1.41.827 4.627.695 5.5.193.19.428.557.428 1.218-.106 1.42-.511 1.727-.953 1.939-.166.08-.195.093-.23.279-.237 1.286-.573 1.778-.82 2.137-.187.273-.29.424-.29.883 0 1.737.487 2.643 3.502 3.76a.362.362 0 0 1 .085.637A11.913 11.913 0 0 1 12 24zm-5.951-2.436A11.172 11.172 0 0 0 12 23.273c2.117 0 4.16-.589 5.951-1.709-2.526-1.037-3.32-2.083-3.32-4.185 0-.684.202-.98.417-1.294.221-.323.496-.724.706-1.859.101-.548.42-.7.63-.802.225-.108.458-.22.54-1.311 0-.556-.25-.707-.26-.713a.388.388 0 0 1-.192-.39c.18-.967.477-3.982-.495-5.114-.664-.772-1.71-.793-1.91-.785-.034-.003-.066-.004-.098-.012-.094-.024-.254-.106-.303-.19-.198-.34-1.92-1.021-4.298-.059-2.35.951-2.355 2.99-2.05 4.86.1.696.21 1.297.21 1.3a.364.364 0 0 1-.205.396c.002 0-.247.152-.247.733.082 1.062.315 1.175.54 1.284.21.1.53.253.63.802.21 1.134.485 1.536.706 1.859.215.313.417.61.417 1.293 0 2.105-.793 3.151-3.32 4.187z"/>
    </g>
</svg>
