<svg xmlns="http://www.w3.org/2000/svg" width="24" height="25" viewBox="0 0 24 25">
    <g fill="#FFF" fill-rule="evenodd">
        <path fill-rule="nonzero" d="M20.744 17.473l-2.63 3.778-1.855-1.523a.47.47 0 0 0-.596.726l2.25 1.847a.469.469 0 0 0 .683-.095l2.92-4.196a.47.47 0 0 0-.772-.537z"/>
        <path d="M18.764 24.873a5.236 5.236 0 1 1 0-10.473 5.236 5.236 0 0 1 0 10.473zm0-.873a4.364 4.364 0 1 0 0-8.727 4.364 4.364 0 0 0 0 8.727z"/>
        <path fill-rule="nonzero" d="M12 4.364c1.495 0 2.573.362 3.206 1.076.738.834.617 1.903.616 1.911l-.004 2.488.144.13c.157.142.243.33.243.534v1.547a.72.72 0 0 1-.515.687.437.437 0 0 0 .257.834 1.588 1.588 0 0 0 1.13-1.521v-1.547a1.59 1.59 0 0 0-.386-1.034V7.433c.023-.227.103-1.505-.822-2.56-.804-.917-2.105-1.382-3.869-1.382-1.764 0-3.065.465-3.87 1.382-.924 1.055-.844 2.333-.82 2.56v2.036a1.59 1.59 0 0 0-.388 1.033v1.547c0 .48.216.929.585 1.231a8.2 8.2 0 0 0 1.349 2.788v1.263a.973.973 0 0 1-.507.854l-3.45 1.882a3.185 3.185 0 0 0-.336.214A11.102 11.102 0 0 1 .873 12C.873 5.864 5.864.873 12 .873 18.136.873 23.127 5.864 23.127 12A.436.436 0 1 0 24 12c0-6.617-5.383-12-12-12S0 5.383 0 12c0 3.48 1.483 6.64 3.89 8.846l-.006.004.13.11a11.905 11.905 0 0 0 3.477 2.156c.073.03.144.062.217.09.152.058.307.11.462.162.167.056.335.109.505.158.12.034.24.07.36.1.307.078.615.148.927.201a.437.437 0 0 0 .147-.86h-.002a11.073 11.073 0 0 1-1.132-.26 11.37 11.37 0 0 1-1.194-.414c-.089-.036-.177-.07-.265-.11-.18-.079-.36-.163-.536-.252l-.048-.025A11.205 11.205 0 0 1 5.27 20.86l.047-.026 3.45-1.882c.593-.324.962-.945.962-1.62v-1.573l-.102-.121c-.01-.01-.95-1.15-1.309-2.712l-.04-.173-.148-.096a.723.723 0 0 1-.336-.608v-1.547c0-.203.087-.391.243-.533l.144-.13v-2.43l-.004-.058c0-.01-.13-1.06.61-1.903.631-.72 1.712-1.084 3.213-1.084z"/>
    </g>
</svg>
