<svg xmlns="http://www.w3.org/2000/svg" width="13" height="12" viewBox="0 0 13 12">
    <path fill="#666" fill-rule="nonzero" d="M9.461 4.755s.515-.386.123-.772c-.391-.386-.772.112-.772.112L4.875 7.98s-.923 1.174-1.624.464c-.7-.71.47-1.602.47-1.602l5.163-5.094s1.205-1.31 2.338-.193c1.13 1.118-.2 2.309-.2 2.309L5.22 9.589s-1.857 2.116-3.575.42c-1.718-1.696.447-3.507.447-3.507l4.404-4.347s.494-.406.124-.772c-.37-.365-.782.122-.782.122L.785 6.492s-1.907 2.064.223 4.166c2.13 2.103 4.224.22 4.224.22l6.946-6.854s1.39-1.512-.267-3.148C10.254-.76 8.72.612 8.72.612L2.743 6.508s-1.53 1.229-.142 2.598c1.389 1.372 2.611-.161 2.611-.161l4.248-4.19z"/>
</svg>
