<svg xmlns="http://www.w3.org/2000/svg" width="26" height="27" viewBox="0 0 26 27">
    <g fill="#FFF" fill-rule="nonzero">
        <path d="M8.755 8.858c.13 0 .259.014.383.04a1.881 1.881 0 0 1 1.158-1.82 1.81 1.81 0 0 1 2.033.469l1.359-1.436a1.067 1.067 0 0 0-.028-1.493 1.024 1.024 0 0 0-1.467.03l-4.109 4.34c.216-.085.44-.13.67-.13zM6.418 18.613a2.057 2.057 0 0 1 2.853-.697l.421.263-.03-.074-.313-.801-2.306-5.874a1.886 1.886 0 0 1-.018-1.322l-.352.371h-.001l-2.233 2.359.464-3.722a1.328 1.328 0 0 0-.39-1.117 1.27 1.27 0 0 0-.902-.368c-.642 0-1.2.488-1.283 1.154L.084 19.845a1.525 1.525 0 0 0 .424 1.392l3.826 3.748a1.469 1.469 0 0 0 1.794.205l3.25-1.992-2.312-1.707a2.133 2.133 0 0 1-.648-2.878zM15.601 7.951l.197.5.854-.903a1.07 1.07 0 0 0-.03-1.494 1.027 1.027 0 0 0-1.467.03l-.728.77c.526.16.962.556 1.174 1.097z"/>
        <path d="M21.301 17.414l-2.963-7.547a.923.923 0 0 0-.856-.59.903.903 0 0 0-.342.068.942.942 0 0 0-.513 1.218l1.425 3.627a.477.477 0 0 1-.005.36.465.465 0 0 1-.424.283.462.462 0 0 1-.428-.294l-2.45-6.24a.922.922 0 0 0-.855-.59.905.905 0 0 0-.343.067.942.942 0 0 0-.513 1.218l2.45 6.24a.476.476 0 0 1-.257.61.456.456 0 0 1-.6-.262L11.837 8.47a.922.922 0 0 0-1.198-.522.943.943 0 0 0-.514 1.218l2.792 7.11a.477.477 0 0 1-.004.36.466.466 0 0 1-.423.283.462.462 0 0 1-.429-.295l-2.45-6.24a.921.921 0 0 0-.855-.59.906.906 0 0 0-.342.068.942.942 0 0 0-.514 1.218l2.62 6.675.876 2.231a.17.17 0 0 1-.048.19.162.162 0 0 1-.192.015l-2.366-1.477a1.135 1.135 0 0 0-1.584.387 1.184 1.184 0 0 0 .379 1.612l7.901 5.835a1.469 1.469 0 0 0 1.422.18l4.175-1.697c.623-.253 1.001-.9.922-1.579l-.702-6.035-.001-.004zM21.137 5.613a.688.688 0 0 0-.927.316.709.709 0 0 0 .31.943 3.2 3.2 0 0 1 1.6 1.87c.271.82.211 1.699-.168 2.473a.71.71 0 0 0 .311.943.682.682 0 0 0 .927-.316 4.688 4.688 0 0 0 .242-3.547 4.595 4.595 0 0 0-2.295-2.682z"/>
        <path d="M22.165 3.512a.686.686 0 0 0-.927.317.709.709 0 0 0 .311.942c2.71 1.373 3.818 4.732 2.469 7.49a.708.708 0 0 0 .31.943.69.69 0 0 0 .926-.316c1.69-3.452.304-7.658-3.09-9.376zM11.18 3.224a.702.702 0 0 0-.566-.81 4.477 4.477 0 0 0-3.407.794A4.623 4.623 0 0 0 5.351 6.22a.702.702 0 0 0 .682.82.694.694 0 0 0 .68-.585c.142-.854.602-1.6 1.295-2.101a3.11 3.11 0 0 1 2.375-.554.696.696 0 0 0 .797-.576z"/>
        <path d="M3.643 6.64a.695.695 0 0 0 .797-.576C4.943 3.026 7.78.97 10.767 1.485a.697.697 0 0 0 .797-.576.703.703 0 0 0-.567-.81 6.739 6.739 0 0 0-5.127 1.195 6.963 6.963 0 0 0-2.795 4.534.703.703 0 0 0 .567.81z"/>
    </g>
</svg>
