<svg xmlns="http://www.w3.org/2000/svg" width="81" height="81" viewBox="0 0 81 81">
    <g fill="none" fill-rule="evenodd">
        <g>
            <path fill="#5B6887" fill-rule="nonzero" d="M38.5 13.62c4.687 0 8.07 1.131 10.053 3.36 2.315 2.602 1.936 5.94 1.934 5.967l-.013 7.765.452.406c.491.441.762 1.032.762 1.666v4.828c0 .986-.65 1.847-1.616 2.144a1.364 1.364 0 0 0-.905 1.704 1.37 1.37 0 0 0 1.71.9c2.122-.652 3.546-2.559 3.546-4.748v-4.828a4.95 4.95 0 0 0-1.212-3.227V23.2c.071-.708.323-4.696-2.577-7.987-2.52-2.866-6.602-4.316-12.133-4.316-5.532 0-9.612 1.45-12.134 4.315-2.9 3.29-2.648 7.281-2.577 7.987v6.357a4.95 4.95 0 0 0-1.212 3.226v4.829c0 1.5.676 2.898 1.832 3.842 1.108 4.322 3.388 7.594 4.231 8.702v3.942a3.036 3.036 0 0 1-1.59 2.667L16.23 62.64a9.994 9.994 0 0 0-1.051.666C8.027 56.909 3.606 47.66 3.606 37.457c0-19.152 15.653-34.733 34.895-34.733 19.24 0 34.894 15.58 34.894 34.733 0 .753.613 1.362 1.369 1.362.755 0 1.368-.609 1.368-1.362C76.132 16.804 59.252 0 38.501 0S.869 16.804.869 37.457c0 10.865 4.651 20.725 12.197 27.612l-.017.013.407.34a37.362 37.362 0 0 0 10.906 6.734c.227.092.452.192.68.28.476.181.962.342 1.448.504.524.176 1.05.34 1.583.493.376.108.751.217 1.132.312.96.244 1.927.462 2.905.63a1.367 1.367 0 0 0 1.58-1.111 1.361 1.361 0 0 0-1.117-1.573l-.01-.001a34.866 34.866 0 0 1-2.644-.572 33.938 33.938 0 0 1-.904-.24 35.78 35.78 0 0 1-3.746-1.291c-.278-.113-.555-.222-.829-.342-.567-.25-1.129-.51-1.682-.79l-.15-.078a35.162 35.162 0 0 1-5.211-3.263c.049-.029.097-.055.145-.082l10.82-5.875a5.757 5.757 0 0 0 3.016-5.058V49.19l-.319-.379c-.029-.034-2.978-3.587-4.104-8.465l-.124-.54-.467-.3a2.255 2.255 0 0 1-1.052-1.896v-4.829c0-.633.27-1.223.762-1.666l.451-.405v-7.587l-.012-.179c-.004-.032-.408-3.308 1.91-5.938 1.982-2.246 5.372-3.386 10.078-3.386z"/>
            <circle cx="61" cy="61" r="19" stroke="#5B6887" stroke-width="2"/>
        </g>
        <g fill="#7F8FB2" fill-rule="nonzero">
            <path d="M70.25 50.94h-3.373v-2.166A.78.78 0 0 0 66.08 48c-.043 0-.072.014-.086.028a.109.109 0 0 0-.057-.028h-8.041a.767.767 0 0 0-.782.774v2.167h-3.388c-.967 0-1.722.746-1.722 1.703v2.786H53.5v15.858c0 .957.74 1.688 1.708 1.688h13.562c.968 0 1.723-.731 1.723-1.688V55.43h1.48v-2.786c0-.957-.755-1.703-1.722-1.703zm-11.57-1.392h6.617v1.393h-6.618v-1.393zm10.232 21.74c0 .099-.043.14-.143.14H55.207c-.1 0-.143-.041-.143-.14V55.43h13.848v15.858zm1.48-17.406H53.584v-1.238c0-.099.043-.155.142-.155H70.25c.1 0 .142.056.142.155v1.238z"/>
            <path d="M64.856 57.245h1.58V70.05h-1.58zM61.212 57.245h1.58V70.05h-1.58zM57.569 57.245h1.58V70.05h-1.58z"/>
        </g>
    </g>
</svg>
