<svg xmlns="http://www.w3.org/2000/svg" width="24" height="24" viewBox="0 0 24 24">
    <g fill="#FFF" fill-rule="nonzero">
        <path d="M23.645 17.536l-4.556-6.56c-.17-.244-.39-.44-.628-.612.239-.173.46-.369.629-.612l4.555-6.56c.232-.335.355-.723.355-1.12C24 .93 22.994 0 21.758 0H2.241C1.006 0 0 .93 0 2.072c0 .397.123.785.355 1.12l4.556 6.56c.17.243.39.44.628.612-.239.172-.46.368-.629.612l-4.555 6.56A1.957 1.957 0 0 0 0 18.656c0 .096.017.189.03.282-.014.05-.03.099-.03.153v2.727C0 23.021.98 24 2.182 24h19.636A2.184 2.184 0 0 0 24 21.818v-2.727c0-.054-.016-.104-.03-.153.013-.093.03-.186.03-.282 0-.398-.123-.785-.355-1.12zM1.252 2.57a.868.868 0 0 1-.161-.497c0-.541.515-.981 1.15-.981h19.517c.635 0 1.151.44 1.151.98a.868.868 0 0 1-.16.498l-4.555 6.56c-.296.425-.833.69-1.403.69H7.209c-.57 0-1.107-.265-1.402-.69L1.252 2.57zm21.657 19.25c0 .6-.489 1.09-1.09 1.09H2.181c-.602 0-1.091-.49-1.091-1.09v-1.395c.337.188.728.303 1.15.303h19.517c.423 0 .814-.115 1.151-.303v1.394zm-1.557-2.364H2.648c-.608 0-1.103-.422-1.103-.94 0-.167.054-.332.155-.477l4.364-6.286c.284-.408.799-.661 1.345-.661h9.182c.546 0 1.061.253 1.344.66l4.365 6.287c.101.145.155.31.155.477 0 .518-.495.94-1.103.94z"/>
        <path d="M17.135 12.262a.52.52 0 0 0-.435-.247L7.255 12a.523.523 0 0 0-.44.25l-3.72 5.836a.63.63 0 0 0-.034.602.532.532 0 0 0 .473.312h16.931c.2 0 .382-.121.475-.314a.624.624 0 0 0-.038-.603l-3.767-5.821zM4.556 17.836l2.978-4.671 8.887.014 3.014 4.657H4.556z"/>
        <circle cx="17.5" cy="21.5" r="1"/>
        <circle cx="20.5" cy="21.5" r="1"/>
    </g>
</svg>
