<svg xmlns="http://www.w3.org/2000/svg" width="12" height="12" viewBox="0 0 12 12">
    <g fill="#7F8FB2" fill-rule="nonzero">
        <path d="M10.63 7.53a.383.383 0 0 0-.387.388v3.165H.813v-9.42h3.165c.217 0 .387-.17.387-.387a.383.383 0 0 0-.387-.388H.425a.383.383 0 0 0-.387.388V11.47c0 .217.17.387.387.387H10.62c.218 0 .388-.17.388-.387V7.918a.381.381 0 0 0-.378-.387z"/>
        <path d="M11.906.246a.484.484 0 0 0-.218-.218h-.01A.38.38 0 0 0 11.538 0H6.435a.383.383 0 0 0-.388.387c0 .218.17.388.388.388h4.167L6.16 5.215a.388.388 0 0 0 .548.549l4.44-4.441V5.49c0 .217.17.387.388.387.217 0 .387-.17.387-.387V.387c.01-.047-.009-.094-.018-.141z"/>
    </g>
</svg>
