<svg xmlns="http://www.w3.org/2000/svg" width="15" height="15" viewBox="0 0 15 15">
    <g fill="#CB1663" fill-rule="nonzero">
        <path d="M7.104 12.188c-.712 0-1.292.579-1.292 1.29a1.293 1.293 0 0 0 2.583 0c0-.711-.579-1.29-1.291-1.29zm0 1.721a.431.431 0 1 1 0-.861.431.431 0 0 1 0 .861zM7.247 0A4.252 4.252 0 0 0 3 4.247v.43h2.583v-.43c0-.917.747-1.664 1.664-1.664a1.666 1.666 0 0 1 1.177 2.841c-.509.51-2.038 1.926-2.054 1.94l-.414.384v2.87h2.583V8.876c.53-.494 1.34-1.252 1.712-1.624a4.22 4.22 0 0 0 1.244-3.004A4.252 4.252 0 0 0 7.247 0zm2.395 6.642c-.41.41-1.414 1.347-1.827 1.73l-.137.128v1.258h-.861V8.124l.138-.128c.016-.014 1.558-1.442 2.078-1.963.477-.477.74-1.111.74-1.786a2.528 2.528 0 0 0-2.526-2.525A2.53 2.53 0 0 0 4.76 3.817h-.87A3.392 3.392 0 0 1 7.246.861a3.39 3.39 0 0 1 3.387 3.386c0 .905-.352 1.755-.992 2.395z"/>
    </g>
</svg>
