<svg xmlns="http://www.w3.org/2000/svg" width="15" height="15" viewBox="0 0 15 15">
    <g fill="#CB1663" fill-rule="nonzero">
        <path d="M12.478 7a.426.426 0 0 0-.432.433v5.91H8.98v-2.414a.427.427 0 0 0-.417-.424H6.347a.437.437 0 0 0-.44.424v2.413H2.849V7.63a.424.424 0 0 0-.432-.418A.42.42 0 0 0 2 7.63v6.146a.42.42 0 0 0 .417.417h3.93a.42.42 0 0 0 .416-.417v-2.413h1.368v2.413c0 .228.189.417.432.417h3.915a.42.42 0 0 0 .417-.417V7.433A.422.422 0 0 0 12.478 7z"/>
        <path d="M14.878 7.248l-3.412-3.426V1.486a.432.432 0 0 0-.44-.431.422.422 0 0 0-.417.43v1.48L7.795.135A.413.413 0 0 0 7.505 0a.427.427 0 0 0-.307.134L.13 7.201c-.17.169-.18.44 0 .597.158.18.428.169.598 0l6.775-6.76 6.76 6.823c.07.07.173.111.307.111.118 0 .22-.04.307-.11a.446.446 0 0 0 0-.614z"/>
    </g>
</svg>
