<svg xmlns="http://www.w3.org/2000/svg" width="24" height="24" viewBox="0 0 24 24">
    <g fill="none" fill-rule="nonzero">
        <path fill="#5B6887" d="M11.97 0C5.358 0 0 5.359 0 11.97c0 6.61 5.359 11.969 11.97 11.969 6.61 0 11.969-5.36 11.969-11.97S18.579 0 11.969 0z"/>
        <path fill="#FFF" d="M17.984 13.02v4.432h-2.57v-4.135c0-1.038-.37-1.747-1.3-1.747-.71 0-1.132.478-1.318.94-.068.165-.085.394-.085.626v4.315h-2.57s.035-7.002 0-7.726h2.57v1.095c-.005.008-.013.017-.017.025h.017v-.025c.341-.526.95-1.277 2.315-1.277 1.69 0 2.958 1.104 2.958 3.477zM7.454 6C6.575 6 6 6.577 6 7.335c0 .742.558 1.335 1.42 1.335h.017c.896 0 1.453-.593 1.453-1.335C8.873 6.577 8.333 6 7.454 6zM6.153 17.452H8.72V9.725H6.153v7.727z"/>
    </g>
</svg>
