<svg xmlns="http://www.w3.org/2000/svg" width="16" height="13" viewBox="0 0 16 13">
    <path fill="#CB1663" fill-rule="nonzero" d="M15.339.33c.247 0 .45.203.45.45v11.03c0 .247-.203.45-.45.45H.444A.448.448 0 0 1 0 11.809V.78C0 .533.197.33.444.33H15.34zM7.892 6.54l3.377-2.921 2.762-2.394H1.752L4.514 3.62l3.378 2.92zm3.961-2.248L8.19 7.466a.453.453 0 0 1-.59.006l-3.67-3.18L.895 1.663v9.263L3.93 8.292l1.702-1.467a.438.438 0 0 1 .628.044c.165.184.14.47-.044.629L4.514 8.97l-2.762 2.388h12.28L11.27 8.97 9.568 7.498a.45.45 0 0 1-.044-.629.438.438 0 0 1 .628-.044l1.702 1.467 3.04 2.634V1.663l-3.04 2.629z"/>
</svg>
