<svg xmlns="http://www.w3.org/2000/svg" width="17" height="22" viewBox="0 0 17 22">
    <g fill="#7F8FB2" fill-rule="nonzero">
        <path d="M15.512 2.528h-2.867V.665A.666.666 0 0 0 11.968 0c-.037 0-.06.012-.073.024A.092.092 0 0 0 11.847 0H5.012a.656.656 0 0 0-.665.665v1.863h-2.88c-.822 0-1.463.641-1.463 1.464v2.395h1.27v13.634c0 .822.629 1.451 1.452 1.451h11.528c.823 0 1.464-.629 1.464-1.451V6.387h1.258V3.992c0-.823-.641-1.464-1.464-1.464zM5.677 1.331h5.625v1.197H5.677V1.331zm8.698 18.69c0 .085-.036.12-.12.12H2.724c-.084 0-.12-.035-.12-.12V6.387h11.77v13.634zm1.258-14.964H1.346V3.992c0-.085.037-.133.121-.133h14.045c.085 0 .121.048.121.133v1.065z"/>
        <path d="M10.927 7.948h1.343v11.008h-1.343zM7.831 7.948h1.343v11.008H7.831zM4.734 7.948h1.343v11.008H4.734z"/>
    </g>
</svg>
