<svg xmlns="http://www.w3.org/2000/svg" width="15" height="15" viewBox="0 0 15 15">
    <path fill="none" fill-rule="nonzero" stroke="#B2BFCC" stroke-width=".981" d="M7.682 9.079c-1.654 0-2.994-1.608-2.994-3.59 0-1.98 1.34-3.449 2.994-3.449 1.654 0 2.995 1.469 2.995 3.45S9.336 9.079 7.682 9.079zM3.025 13.93s-.635.042-.915-.344c-.15-.208-.046-.63.058-.866l.253-.577s.7-1.567 1.497-2.475c.49-.557 1.071-.43 1.448-.249.232.111.494.436.686.608.264.237.73.506 1.492.522h.468c.761-.016 1.227-.285 1.491-.522.192-.172.447-.507.677-.622.345-.173.871-.28 1.348.263.797.908 1.428 2.503 1.428 2.503l.26.566c.107.234.217.654.07.865-.262.378-.851.328-.851.328h-9.41z"/>
</svg>
