<svg xmlns="http://www.w3.org/2000/svg" width="16" height="15" viewBox="0 0 16 15">
    <g fill="#CB1663" fill-rule="nonzero">
        <path d="M7.844 8.408a4.21 4.21 0 0 0 4.213-4.205c0-2.321-1.887-4.191-4.213-4.191S3.631 1.895 3.631 4.203a4.218 4.218 0 0 0 4.213 4.205zm0-7.3a3.108 3.108 0 0 1 3.102 3.095A3.108 3.108 0 0 1 7.844 7.3a3.108 3.108 0 0 1-3.101-3.096 3.108 3.108 0 0 1 3.101-3.095zM.556 14.973h14.629c.31 0 .555-.246.555-.555 0-2.902-2.365-5.275-5.285-5.275h-5.17C2.379 9.143 0 11.503 0 14.418c0 .31.246.555.556.555zm4.73-4.72h5.169a4.169 4.169 0 0 1 4.135 3.61H1.15a4.18 4.18 0 0 1 4.136-3.61z"/>
    </g>
</svg>
