<svg xmlns="http://www.w3.org/2000/svg" width="24" height="24" viewBox="0 0 24 24">
    <g fill="#FFF" fill-rule="nonzero">
        <path d="M7.056 18.133a.822.822 0 0 1-.594.246.822.822 0 0 1-.595-.246L.328 12.595c-.04-.041-.082-.082-.102-.123 0 0-.02-.02-.02-.041-.021-.041-.042-.082-.062-.103 0-.02 0-.04-.02-.04-.021-.042-.021-.062-.042-.103-.02-.062-.02-.103-.02-.164 0-.062 0-.103.02-.165 0-.04.02-.082.041-.102 0-.02 0-.041.02-.041l.062-.123s0-.02.02-.02c.021-.042.062-.083.103-.124l5.539-5.538a.842.842 0 0 1 1.19 1.19L2.953 11.2h14.584c.472 0 .841.37.841.841 0 .472-.369.841-.84.841H2.953l4.102 4.103c.329.287.329.82 0 1.148z"/>
        <path d="M23.077 23.897H12a.832.832 0 0 1-.841-.84V14.79c0-.472.37-.841.841-.841.472 0 .841.369.841.84v7.426h9.395V1.765H12.84V9.19c0 .472-.37.84-.841.84a.832.832 0 0 1-.841-.84V.923c0-.472.37-.84.841-.84h11.077c.472 0 .84.368.84.84v22.133c-.02.472-.389.841-.84.841z"/>
    </g>
</svg>
