<svg xmlns="http://www.w3.org/2000/svg" width="12" height="12" viewBox="0 0 12 12">
    <g fill="#5B6887" fill-rule="nonzero">
        <path d="M3.528 9.067a.41.41 0 0 1-.297.123.41.41 0 0 1-.298-.123L.164 6.297a.272.272 0 0 1-.051-.061s-.01-.01-.01-.02a.224.224 0 0 0-.031-.052c0-.01 0-.02-.01-.02-.01-.02-.01-.031-.021-.052-.01-.03-.01-.051-.01-.082 0-.03 0-.051.01-.082 0-.02.01-.04.02-.051 0-.01 0-.02.01-.02l.032-.062s0-.01.01-.01c.01-.02.03-.041.051-.062l2.77-2.77a.42.42 0 0 1 .594.596L1.477 5.6h7.292c.236 0 .42.185.42.42 0 .236-.184.421-.42.421H1.477l2.051 2.051c.164.144.164.41 0 .575z"/>
        <path d="M11.538 11.949H6a.416.416 0 0 1-.42-.42V7.394c0-.236.184-.42.42-.42s.42.184.42.42v3.713h4.698V.882H6.42v3.713c0 .236-.185.42-.421.42a.416.416 0 0 1-.42-.42V.462c0-.236.184-.421.42-.421h5.538c.236 0 .421.185.421.42v11.067a.43.43 0 0 1-.42.42z"/>
    </g>
</svg>
