<svg xmlns="http://www.w3.org/2000/svg" width="12" height="12" viewBox="0 0 12 12">
    <g fill="#5B6887" fill-rule="nonzero">
        <path d="M5.974 6.416a3.21 3.21 0 0 0 3.209-3.208 3.2 3.2 0 0 0-3.209-3.2 3.207 3.207 0 0 0-3.208 3.2 3.215 3.215 0 0 0 3.208 3.208zm0-5.57a2.37 2.37 0 0 1 2.362 2.362A2.37 2.37 0 0 1 5.974 5.57a2.37 2.37 0 0 1-2.362-2.362A2.37 2.37 0 0 1 5.974.845zM.423 11.426h11.142a.42.42 0 0 0 .423-.423 4.03 4.03 0 0 0-4.026-4.026H4.025A4.03 4.03 0 0 0 0 11.003a.42.42 0 0 0 .423.423zm3.602-3.602h3.937c1.615 0 2.943 1.2 3.15 2.755H.876a3.185 3.185 0 0 1 3.15-2.755z"/>
    </g>
</svg>
