<svg xmlns="http://www.w3.org/2000/svg" xmlns:xlink="http://www.w3.org/1999/xlink" width="8" height="9" viewBox="0 0 8 9">
    <defs>
        <ellipse id="a" cx="6.4" cy="3.938" rx="1.6" ry="1.688"/>
    </defs>
    <g fill="none" fill-rule="evenodd">
        <g fill="#B2BFCC" fill-rule="nonzero">
            <path d="M3.287 8.74a.559.559 0 0 0 .444.226c.175 0 .32-.076.44-.226a.82.82 0 0 0 .184-.53H3.104c0 .206.061.382.183.53zM7.426 7.517a6.785 6.785 0 0 1-.66-1.66c-.148-.583-.28-1.428-.4-2.533-.068-.643-.287-1.186-.529-1.537a2.557 2.557 0 0 0-.415-.471A2.4 2.4 0 0 0 4.566.81C4.526.58 4.427.39 4.27.236a.753.753 0 0 0-.538-.231c-.2 0-.379.078-.533.23a1.034 1.034 0 0 0-.294.575c-.293.103-.546.23-.86.506a2.568 2.568 0 0 0-.415.471c-.24.349-.456.894-.525 1.537C.986 4.43.85 5.273.7 5.858a6.878 6.878 0 0 1-.656 1.66.284.284 0 0 0-.016.28c.044.093.11.141.2.141h7.014c.09 0 .154-.049.2-.142a.382.382 0 0 0 .024-.132.291.291 0 0 0-.041-.148zm-6.79-.123c.244-.505.43-1.06.558-1.654.128-.595.245-1.38.358-2.347.099-.84.415-1.368.81-1.684.281-.225.521-.342.803-.418.101-.027.167-.137.167-.26v-.01c0-.26.183-.471.4-.471.223 0 .399.211.399.471v.01c0 .123.072.23.175.26.28.083.524.189.798.418.137.114.26.242.363.388.21.296.386.75.448 1.296.11.967.228 1.748.358 2.342.13.594.318 1.149.562 1.66h-6.2z"/>
        </g>
        <g>
            <use fill="#B2BFCC" xlink:href="#a"/>
            <ellipse cx="6.4" cy="3.938" stroke="#FFF" rx="1.1" ry="1.188"/>
        </g>
    </g>
</svg>
