<svg xmlns="http://www.w3.org/2000/svg" width="15" height="16" viewBox="0 0 15 16">
    <g fill="#CB1663" fill-rule="nonzero">
        <path d="M6.164 15.537c.236.271.512.402.832.402.329 0 .6-.135.825-.402a1.41 1.41 0 0 0 .344-.942H5.82c0 .366.115.68.344.942zM13.924 13.364a11.705 11.705 0 0 1-1.238-2.95c-.278-1.038-.526-2.54-.748-4.505-.13-1.143-.539-2.108-.993-2.732a4.633 4.633 0 0 0-.78-.838 4.562 4.562 0 0 0-1.603-.899A1.79 1.79 0 0 0 8.004.42a1.45 1.45 0 0 0-1.008-.41c-.374 0-.71.14-1 .41-.29.27-.474.611-.55 1.021a4.567 4.567 0 0 0-1.612.9c-.29.242-.55.523-.779.837-.45.62-.856 1.589-.985 2.732-.222 1.964-.477 3.464-.756 4.504a11.862 11.862 0 0 1-1.23 2.95.484.484 0 0 0-.03.498c.083.167.206.254.374.254H13.58c.168 0 .29-.088.374-.253a.648.648 0 0 0 .046-.236.498.498 0 0 0-.076-.262zm-12.732-.218c.458-.9.805-1.887 1.046-2.942.24-1.057.46-2.454.672-4.172.185-1.494.778-2.433 1.52-2.994.526-.399.977-.607 1.505-.742.19-.049.313-.245.313-.463v-.017c0-.464.343-.838.748-.838.42 0 .749.375.749.838v.017c0 .218.135.409.328.463.526.147.983.335 1.497.742.258.204.486.43.68.69.394.526.725 1.335.84 2.304.205 1.72.428 3.107.672 4.163a13.06 13.06 0 0 0 1.054 2.95H1.192z"/>
    </g>
</svg>
