<svg xmlns="http://www.w3.org/2000/svg" width="24" height="25" viewBox="0 0 24 25">
    <g fill="#FFF" fill-rule="evenodd">
        <g fill-rule="nonzero">
            <path d="M20.65 17.146l-.666-.666a.698.698 0 0 0-.986 0l-3.595 3.595-.495 1.817-.122.121a.233.233 0 0 0-.001.328l-.001.005.004-.001a.232.232 0 0 0 .329-.001l.121-.122 1.817-.495 3.595-3.595a.698.698 0 0 0 0-.986zm-4.708 3.05l2.393-2.392.991.99-2.393 2.393-.99-.99zm-.21.45l.752.752-1.034.282.282-1.034zm4.587-2.845l-.663.663-.99-.99.662-.664a.23.23 0 0 1 .326 0l.666.666a.23.23 0 0 1 0 .325zM12.058 4.286c1.468 0 2.527.355 3.148 1.057.725.819.607 1.869.606 1.877l-.004 2.443.141.128a.7.7 0 0 1 .239.524v1.52c0 .31-.204.58-.506.674a.43.43 0 0 0 .252.82 1.56 1.56 0 0 0 1.11-1.494v-1.52c0-.37-.136-.732-.379-1.015v-2c.022-.223.101-1.478-.807-2.513-.79-.902-2.068-1.358-3.8-1.358-1.732 0-3.01.456-3.8 1.357-.908 1.036-.83 2.291-.807 2.513v2c-.244.284-.38.645-.38 1.016v1.52c0 .471.212.911.574 1.208a8.054 8.054 0 0 0 1.325 2.738v1.24c0 .35-.19.672-.498.84l-3.389 1.848c-.11.06-.22.13-.329.21a10.903 10.903 0 0 1-3.625-8.133C1.13 5.76 6.032.857 12.058.857c6.026 0 10.928 4.903 10.928 10.929a.428.428 0 1 0 .858 0C23.844 5.287 18.557 0 12.058 0S.272 5.287.272 11.786c0 3.418 1.457 6.52 3.82 8.688l-.005.004.127.107a11.693 11.693 0 0 0 3.416 2.119c.071.029.141.06.213.088.149.057.301.107.453.158.164.056.33.108.496.156.118.033.235.068.355.098.3.076.603.145.91.198a.429.429 0 0 0 .145-.844l-.004-.001a10.876 10.876 0 0 1-1.111-.255 11.167 11.167 0 0 1-1.173-.407c-.087-.035-.174-.07-.26-.107a10.92 10.92 0 0 1-.526-.249l-.048-.024a11.005 11.005 0 0 1-1.632-1.027l.046-.026 3.389-1.848c.582-.318.944-.928.944-1.592v-1.544l-.1-.12a7.123 7.123 0 0 1-1.285-2.663l-.039-.17-.146-.094a.71.71 0 0 1-.33-.597v-1.52c0-.198.085-.384.239-.523l.141-.128V7.276l-.003-.056c-.002-.01-.128-1.041.598-1.869.62-.707 1.682-1.065 3.156-1.065z"/>
        </g>
        <path d="M17.571 24.429a5.143 5.143 0 1 1 0-10.286 5.143 5.143 0 0 1 0 10.286zm0-.858a4.286 4.286 0 1 0 0-8.571 4.286 4.286 0 0 0 0 8.571z"/>
    </g>
</svg>
