<svg xmlns="http://www.w3.org/2000/svg" width="24" height="23" viewBox="0 0 24 23">
    <g fill="#FFF" fill-rule="nonzero">
        <path d="M22.827 19.622c0 .83-.649 1.5-1.454 1.5H7.563c-.407-.003-.89-.006-1.376-.012-.367-.006-.453-.241-.465-.427.016-.336.099-.792.155-1.063l.04-.192.008-.037c.165-.833.207-1.622.207-1.622a5.2 5.2 0 0 0 .01-.288V2.62c0-.825.65-1.5 1.454-1.5h13.777c.804 0 1.454.675 1.454 1.5v17.001zM5.03 16.808c0 .52-.148 1.916-.178 2.19-.013.075-.022.145-.038.222h.001s-.136.856-.362 1.459a.584.584 0 0 1-.375.378c-1.094.19-1.664-.195-1.792-.3a2.551 2.551 0 0 1-.5-.683c-.006-.01-.013-.019-.018-.03-.012-.022-.02-.045-.03-.068-.029-.057-.057-.108-.085-.171-.014-.034-.022-.064-.031-.096a5.398 5.398 0 0 1-.475-2.292l.031-9.86s-.076-2.038 1.281-2.03l2.176.014h.075c.114.012.317.086.319.483l-.001.225h.002v10.559zM22.308.025h-15.7c-.918 0-1.659.755-1.659 1.677v2.245c-.009.19-.068.493-.35.492h-.001l-2.625-.012C.558 4.421.13 5.435 0 6.13v12.169s.043 1.181.33 1.886c.142.313.323.63.548.96.362.532.916.813 1.37.962 0 0 .217.174 1.837.255H22.48a1.66 1.66 0 0 0 1.485-1.66v-19A1.67 1.67 0 0 0 22.308.026z"/>
        <path d="M9.078 4.988h10.85s.763-.062.755.558c0 .227-.018.56-.778.56H9.079s-.578-.08-.56-.56c.008-.27.157-.558.56-.558zM9.078 7.805h10.85s.763-.06.755.56c0 .226-.018.558-.778.558H9.079s-.578-.08-.56-.56c.008-.27.157-.558.56-.558zM8.984 10.635h10.852s.762-.06.753.56c0 .226-.017.558-.777.558H8.985s-.577-.08-.56-.56c.01-.27.158-.558.56-.558zM8.984 13.36h10.852s.762-.061.753.558c0 .227-.017.559-.777.559H8.985s-.577-.08-.56-.559c.01-.27.158-.559.56-.559zM8.984 16.2h10.852s.762-.06.753.56c0 .226-.017.558-.777.558H8.985s-.577-.08-.56-.559c.01-.27.158-.559.56-.559z"/>
    </g>
</svg>
