<svg xmlns="http://www.w3.org/2000/svg" width="12" height="13" viewBox="0 0 12 13">
    <path fill="#7F8FB2" fill-rule="nonzero" d="M2.556 7.596L.709 9.473a.408.408 0 0 1-.583 0 .424.424 0 0 1 0-.593l1.846-1.877a.408.408 0 0 1 .584 0 .424.424 0 0 1 0 .593zm.954 3.596l-.555.564a.424.424 0 0 0 0 .593.408.408 0 0 0 .584 0l.554-.564a.424.424 0 0 0 0-.593.408.408 0 0 0-.583 0zm8.132-9.44l-.122.314L8.83 9.073c-.382.996-.662 1.519-1.126 1.615a.711.711 0 0 1-.145.015c-.362 0-.645-.294-.992-.656l-.029-.029-4.345.29a.412.412 0 0 1-.403-.246.424.424 0 0 1 .084-.47l2.124-2.158-1.82-1.85c-.524-.532-.83-.951-.738-1.393.102-.486.586-.674 1.319-.958l.309-.12L9.962.378c.985-.391 1.51-.519 1.831-.19.33.339.14.826-.15 1.565zM11.09.874a7.02 7.02 0 0 0-.827.286L3.367 3.894l-.315.123c-.304.117-.675.261-.793.357.03.07.134.245.501.618l1.82 1.85 3.723-3.784a.408.408 0 0 1 .583 0 .424.424 0 0 1 0 .593L4.874 7.729l-.002.002-.002.002-1.639 1.665 2.532-.169-.488-.496a.424.424 0 0 1 0-.593.408.408 0 0 1 .583 0l1.106 1.124.192.198c.134.14.296.308.392.377.077-.088.233-.342.513-1.07l2.69-7.008.125-.32c.074-.187.159-.403.213-.568z"/>
</svg>
