<svg xmlns="http://www.w3.org/2000/svg" width="16" height="15" viewBox="0 0 16 15">
    <g fill="#FFF" fill-rule="nonzero">
        <path d="M14.593.857L.989 7.99c-.56.294-.536.723.05.956l1.737.686c.586.232 1.475.107 1.973-.283L12.292 3.4c.496-.39.55-.333.118.129L6.447 9.914c-.432.46-.304 1.023.284 1.252l.203.08c.588.227 1.549.61 2.134.848l1.926.784c.585.238 1.064.436 1.064.44 0 .003.003.014.006.014.003.001.141-.496.307-1.105l2.937-10.795c.165-.61-.155-.868-.715-.575zM6.51 11.89l-1.333-.545c-.585-.24-.865.04-.622.625 0 0 1.237 2.98 1.203 3.086-.036.104 1.187-1.77 1.187-1.77.345-.528.149-1.157-.436-1.396z"/>
    </g>
</svg>
