<svg xmlns="http://www.w3.org/2000/svg" width="11" height="11" viewBox="0 0 11 11">
    <path fill="#FFF" fill-rule="nonzero" d="M2.338 6.685L.645 8.336a.382.382 0 0 1-.534 0 .363.363 0 0 1 0-.522l1.693-1.651a.385.385 0 0 1 .534 0 .363.363 0 0 1 0 .522zm.875 3.164l-.508.496a.363.363 0 0 0 0 .522.382.382 0 0 0 .534 0l.509-.496a.363.363 0 0 0 0-.522.385.385 0 0 0-.535 0zm7.455-8.307l-.112.276-2.467 6.166c-.35.877-.606 1.337-1.032 1.421a.678.678 0 0 1-.133.014c-.332 0-.591-.26-.91-.577a9.726 9.726 0 0 1-.026-.026l-3.983.254a.38.38 0 0 1-.37-.216.362.362 0 0 1 .078-.413L3.66 6.542 1.99 4.914c-.48-.468-.761-.837-.676-1.226.094-.428.537-.593 1.209-.843l.283-.106L9.127.332c.903-.344 1.385-.456 1.68-.167.302.298.127.728-.14 1.377zM10.16.77a6.621 6.621 0 0 0-.758.25l-6.32 2.407-.289.109c-.278.103-.618.23-.726.314.027.062.123.216.459.544L4.194 6.02l3.413-3.329a.385.385 0 0 1 .535 0 .363.363 0 0 1 0 .522L4.463 6.8l-.001.002-.002.002L2.958 8.27l2.32-.148-.447-.437a.363.363 0 0 1 0-.522.382.382 0 0 1 .535 0l1.013.989c.063.06.121.12.176.174.124.124.272.272.36.332.07-.077.213-.3.47-.942L9.85 1.55l.115-.281a9.95 9.95 0 0 0 .194-.5z"/>
</svg>
