<svg xmlns="http://www.w3.org/2000/svg" width="12" height="12" viewBox="0 0 12 12">
    <path fill="#B2BFCC" fill-rule="nonzero" d="M11.793 10.464l-3.29-3.282a.706.706 0 0 0 .074-.215 4.549 4.549 0 0 0 .65-2.365c0-.51-.084-1.021-.258-1.523a4.555 4.555 0 0 0-1.087-1.73C6.11-.44 3.124-.437 1.355 1.35A4.575 4.575 0 0 0 .157 3.426a4.561 4.561 0 0 0 0 2.373 4.476 4.476 0 0 0 1.198 2.078 4.594 4.594 0 0 0 3.26 1.345c.924 0 1.764-.267 2.543-.754l.118-.074 3.305 3.297c.125.126.258.2.384.215.03.007.052.009.074.007a.55.55 0 0 0 .236-.066 1.4 1.4 0 0 0 .289-.23l.148-.148a1.4 1.4 0 0 0 .229-.288.535.535 0 0 0 .059-.266v-.06c0-.125-.077-.262-.207-.39zM8.281 5.592a3.745 3.745 0 0 1-.99 1.708A3.77 3.77 0 0 1 4.615 8.41c-.998 0-1.946-.406-2.684-1.109-1.45-1.381-1.444-3.964 0-5.36C2.661 1.236 3.61.824 4.615.824c1.057 0 1.939.375 2.676 1.116a3.756 3.756 0 0 1 .99 3.652z"/>
</svg>
