<svg xmlns="http://www.w3.org/2000/svg" width="24" height="24" viewBox="0 0 24 24">
    <path fill="#5B6887" fill-rule="nonzero" d="M11.97 0C5.358 0 0 5.359 0 11.97c0 6.61 5.359 11.969 11.97 11.969 6.61 0 11.969-5.36 11.969-11.97S18.579 0 11.969 0zm7.237 8.777c.006.142.009.283.009.426 0 5.113-3.89 10.401-10.402 10.401a10.36 10.36 0 0 1-5.604-1.643.088.088 0 0 1-.035-.104.09.09 0 0 1 .094-.058c.28.033.568.05.854.05a7.138 7.138 0 0 0 4.254-1.387 3.712 3.712 0 0 1-3.223-2.566.09.09 0 0 1 .018-.086.09.09 0 0 1 .083-.028c.412.078.83.083 1.234.017a3.725 3.725 0 0 1-2.61-3.547v-.047a.089.089 0 0 1 .132-.076c.4.222.842.365 1.296.42a3.709 3.709 0 0 1-1.398-2.906c0-.657.173-1.302.503-1.867a.088.088 0 0 1 .07-.043c.028-.003.056.01.075.032a10.24 10.24 0 0 0 7.29 3.748 3.717 3.717 0 0 1 6.318-3.308 7.159 7.159 0 0 0 2.227-.858.089.089 0 0 1 .1.006.09.09 0 0 1 .03.097 3.708 3.708 0 0 1-1.306 1.834c.578-.1 1.14-.27 1.673-.507a.088.088 0 0 1 .11.13 7.4 7.4 0 0 1-1.792 1.87z"/>
</svg>
