<svg xmlns="http://www.w3.org/2000/svg" width="16" height="17" viewBox="0 0 16 17">
    <g fill="#FFF" fill-rule="nonzero">
        <path d="M9.931 6.233H3.034a.28.28 0 0 0-.275.284.28.28 0 0 0 .275.283h6.897a.28.28 0 0 0 .276-.283.28.28 0 0 0-.276-.284zM3.034 4.533h2.76a.28.28 0 0 0 .275-.283.28.28 0 0 0-.276-.283H3.034a.28.28 0 0 0-.275.283.28.28 0 0 0 .275.283zM10.207 8.783A.28.28 0 0 0 9.93 8.5H3.034a.28.28 0 0 0-.275.283.28.28 0 0 0 .275.284h6.897a.28.28 0 0 0 .276-.284zM8 11.05a.28.28 0 0 0-.276-.283h-4.69a.28.28 0 0 0-.275.283.28.28 0 0 0 .275.283h4.69A.28.28 0 0 0 8 11.05zM3.034 13.033a.28.28 0 0 0-.275.284.28.28 0 0 0 .275.283h3.863a.28.28 0 0 0 .275-.283.28.28 0 0 0-.275-.284H3.034z"/>
        <path d="M.552.567h8v3.966h3.862V9.35h.552V4.133L8.942 0H0v17h8.552v-.567h-8V.567zm8.551.4l2.92 3h-2.92v-3z"/>
        <path d="M9.38 10.2V17H16v-6.8H9.38zm6.068 6.233H9.931v-5.666h2.483v3.566l-1.184-1.217-.39.401 1.85 1.9 1.85-1.9-.39-.4-1.184 1.216v-3.566h2.482v5.666z"/>
    </g>
</svg>
